Quicksand-Regular.ufo
<glyph name="exclam" format="2">
  <advance width="185.25"/>
  <unicode hex="0021"/>
  <note>
exclam
</note>
  <outline>
    <contour>
      <point x="93" y="196" type="curve" smooth="yes"/>
      <point x="104" y="196"/>
      <point x="112" y="202"/>
      <point x="113" y="217" type="curve" smooth="yes"/>
      <point x="124" y="659" type="line" smooth="yes"/>
      <point x="125" y="682"/>
      <point x="115" y="700"/>
      <point x="93" y="700" type="curve" smooth="yes"/>
      <point x="70" y="700"/>
      <point x="61" y="682"/>
      <point x="61" y="659" type="curve" smooth="yes"/>
      <point x="72" y="217" type="line" smooth="yes"/>
      <point x="74" y="202"/>
      <point x="81" y="196"/>
    </contour>
    <contour>
      <point x="90" y="0" type="curve" smooth="yes"/>
      <point x="96" y="0" type="line" smooth="yes"/>
      <point x="119" y="0"/>
      <point x="131" y="15"/>
      <point x="131" y="38" type="curve" smooth="yes"/>
      <point x="131" y="60" type="line" smooth="yes"/>
      <point x="131" y="83"/>
      <point x="119" y="98"/>
      <point x="96" y="98" type="curve" smooth="yes"/>
      <point x="90" y="98" type="line" smooth="yes"/>
      <point x="66" y="98"/>
      <point x="54" y="83"/>
      <point x="54" y="60" type="curve" smooth="yes"/>
      <point x="54" y="38" type="line" smooth="yes"/>
      <point x="54" y="15"/>
      <point x="66" y="0"/>
    </contour>
  </outline>
</glyph>
<glyph name="quotedbl" format="2">
  <advance width="382.75"/>
  <unicode hex="0022"/>
  <note>
quotedbl
</note>
  <outline>
    <contour>
      <point x="70" y="674" type="curve" smooth="yes"/>
      <point x="44" y="461" type="line" smooth="yes"/>
      <point x="42" y="445"/>
      <point x="47" y="435"/>
      <point x="57" y="435" type="curve" smooth="yes"/>
      <point x="71" y="435"/>
      <point x="81" y="441"/>
      <point x="85" y="456" type="curve" smooth="yes"/>
      <point x="148" y="672" type="line" smooth="yes"/>
      <point x="153" y="688"/>
      <point x="148" y="700"/>
      <point x="131" y="700" type="curve" smooth="yes"/>
      <point x="99" y="700" type="line" smooth="yes"/>
      <point x="81" y="700"/>
      <point x="72" y="692"/>
    </contour>
    <contour>
      <point x="260" y="674" type="curve" smooth="yes"/>
      <point x="234" y="461" type="line" smooth="yes"/>
      <point x="232" y="445"/>
      <point x="236" y="435"/>
      <point x="247" y="435" type="curve" smooth="yes"/>
      <point x="261" y="435"/>
      <point x="270" y="441"/>
      <point x="275" y="456" type="curve" smooth="yes"/>
      <point x="338" y="672" type="line" smooth="yes"/>
      <point x="343" y="688"/>
      <point x="338" y="699"/>
      <point x="321" y="700" type="curve" smooth="yes"/>
      <point x="289" y="700" type="line" smooth="yes"/>
      <point x="271" y="700"/>
      <point x="262" y="692"/>
    </contour>
  </outline>
</glyph>
<glyph name="numbersign" format="2">
  <advance width="654"/>
  <unicode hex="0023"/>
  <note>
numbersign
</note>
  <outline>
    <contour>
      <point x="143" y="0" type="curve" smooth="yes"/>
      <point x="159" y="0"/>
      <point x="171" y="10"/>
      <point x="173" y="26" type="curve" smooth="yes"/>
      <point x="282" y="660" type="line" smooth="yes"/>
      <point x="286" y="682"/>
      <point x="273" y="700"/>
      <point x="252" y="700" type="curve" smooth="yes"/>
      <point x="237" y="700"/>
      <point x="225" y="690"/>
      <point x="222" y="674" type="curve" smooth="yes"/>
      <point x="113" y="41" type="line" smooth="yes"/>
      <point x="109" y="18"/>
      <point x="122" y="0"/>
    </contour>
    <contour>
      <point x="96" y="462" type="curve" smooth="yes"/>
      <point x="598" y="462" type="line" smooth="yes"/>
      <point x="616" y="462"/>
      <point x="630" y="474"/>
      <point x="630" y="491" type="curve" smooth="yes"/>
      <point x="630" y="510"/>
      <point x="616" y="524"/>
      <point x="598" y="524" type="curve" smooth="yes"/>
      <point x="96" y="524" type="line" smooth="yes"/>
      <point x="77" y="524"/>
      <point x="63" y="512"/>
      <point x="63" y="495" type="curve" smooth="yes"/>
      <point x="63" y="476"/>
      <point x="77" y="462"/>
    </contour>
    <contour>
      <point x="402" y="0" type="curve" smooth="yes"/>
      <point x="418" y="0"/>
      <point x="429" y="10"/>
      <point x="432" y="26" type="curve" smooth="yes"/>
      <point x="541" y="660" type="line" smooth="yes"/>
      <point x="545" y="682"/>
      <point x="532" y="700"/>
      <point x="511" y="700" type="curve" smooth="yes"/>
      <point x="495" y="700"/>
      <point x="484" y="690"/>
      <point x="481" y="674" type="curve" smooth="yes"/>
      <point x="372" y="41" type="line" smooth="yes"/>
      <point x="368" y="18"/>
      <point x="381" y="0"/>
    </contour>
    <contour>
      <point x="56" y="181" type="curve" smooth="yes"/>
      <point x="559" y="181" type="line" smooth="yes"/>
      <point x="577" y="181"/>
      <point x="591" y="193"/>
      <point x="591" y="210" type="curve" smooth="yes"/>
      <point x="591" y="228"/>
      <point x="577" y="242"/>
      <point x="559" y="242" type="curve" smooth="yes"/>
      <point x="56" y="242" type="line" smooth="yes"/>
      <point x="38" y="242"/>
      <point x="24" y="230"/>
      <point x="24" y="213" type="curve" smooth="yes"/>
      <point x="24" y="195"/>
      <point x="38" y="181"/>
    </contour>
  </outline>
</glyph>
<glyph name="percent" format="2">
  <advance width="776.25"/>
  <unicode hex="0025"/>
  <note>
percent
</note>
  <outline>
    <contour>
      <point x="181" y="343" type="curve"/>
      <point x="271" y="343"/>
      <point x="320" y="428"/>
      <point x="320" y="525" type="curve"/>
      <point x="320" y="623"/>
      <point x="273" y="708"/>
      <point x="183" y="708" type="curve"/>
      <point x="92" y="708"/>
      <point x="45" y="623"/>
      <point x="45" y="524" type="curve"/>
      <point x="45" y="427"/>
      <point x="91" y="343"/>
    </contour>
    <contour>
      <point x="183" y="395" type="curve"/>
      <point x="129" y="395"/>
      <point x="102" y="450"/>
      <point x="102" y="525" type="curve"/>
      <point x="102" y="598"/>
      <point x="125" y="656"/>
      <point x="181" y="656" type="curve"/>
      <point x="235" y="656"/>
      <point x="263" y="600"/>
      <point x="263" y="524" type="curve"/>
      <point x="263" y="451"/>
      <point x="239" y="395"/>
    </contour>
    <contour>
      <point x="593" y="-9" type="curve"/>
      <point x="683" y="-9"/>
      <point x="731" y="77"/>
      <point x="731" y="174" type="curve"/>
      <point x="731" y="272"/>
      <point x="685" y="357"/>
      <point x="595" y="357" type="curve"/>
      <point x="504" y="357"/>
      <point x="456" y="272"/>
      <point x="456" y="173" type="curve"/>
      <point x="456" y="76"/>
      <point x="504" y="-9"/>
    </contour>
    <contour>
      <point x="595" y="44" type="curve"/>
      <point x="541" y="44"/>
      <point x="513" y="99"/>
      <point x="513" y="174" type="curve"/>
      <point x="513" y="247"/>
      <point x="537" y="305"/>
      <point x="593" y="305" type="curve"/>
      <point x="647" y="305"/>
      <point x="675" y="249"/>
      <point x="675" y="173" type="curve"/>
      <point x="675" y="100"/>
      <point x="651" y="44"/>
    </contour>
    <component base="fraction" xOffset="118"/>
  </outline>
</glyph>
<glyph name="ampersand" format="2">
  <advance width="679"/>
  <unicode hex="0026"/>
  <note>
ampersand
</note>
  <outline>
    <contour>
      <point x="272" y="-10" type="curve" smooth="yes"/>
      <point x="476" y="-10"/>
      <point x="580" y="138"/>
      <point x="603" y="283" type="curve" smooth="yes"/>
      <point x="605" y="302"/>
      <point x="593" y="318"/>
      <point x="575" y="318" type="curve" smooth="yes"/>
      <point x="559" y="318"/>
      <point x="550" y="309"/>
      <point x="548" y="297" type="curve" smooth="yes"/>
      <point x="525" y="174"/>
      <point x="451" y="48"/>
      <point x="279" y="48" type="curve" smooth="yes"/>
      <point x="156" y="48"/>
      <point x="92" y="136"/>
      <point x="92" y="226" type="curve" smooth="yes"/>
      <point x="92" y="296"/>
      <point x="130" y="362"/>
      <point x="234" y="385" type="curve"/>
      <point x="191" y="428" type="line"/>
      <point x="81" y="390"/>
      <point x="30" y="305"/>
      <point x="30" y="218" type="curve" smooth="yes"/>
      <point x="30" y="103"/>
      <point x="129" y="-10"/>
    </contour>
    <contour>
      <point x="627" y="3" type="curve" smooth="yes"/>
      <point x="645" y="3"/>
      <point x="654" y="19"/>
      <point x="654" y="31" type="curve" smooth="yes"/>
      <point x="654" y="41"/>
      <point x="650" y="49"/>
      <point x="641" y="56" type="curve" smooth="yes"/>
      <point x="562" y="115"/>
      <point x="424" y="222"/>
      <point x="317" y="343" type="curve" smooth="yes"/>
      <point x="258" y="409"/>
      <point x="201" y="484"/>
      <point x="201" y="546" type="curve" smooth="yes"/>
      <point x="201" y="611"/>
      <point x="244" y="655"/>
      <point x="326" y="655" type="curve" smooth="yes"/>
      <point x="399" y="655"/>
      <point x="439" y="626"/>
      <point x="466" y="586" type="curve" smooth="yes"/>
      <point x="470" y="579"/>
      <point x="477" y="575"/>
      <point x="488" y="575" type="curve" smooth="yes"/>
      <point x="505" y="575"/>
      <point x="516" y="588"/>
      <point x="516" y="600" type="curve" smooth="yes"/>
      <point x="516" y="609"/>
      <point x="512" y="617"/>
      <point x="511" y="619" type="curve" smooth="yes"/>
      <point x="486" y="668"/>
      <point x="422" y="710"/>
      <point x="326" y="710" type="curve" smooth="yes"/>
      <point x="209" y="710"/>
      <point x="138" y="639"/>
      <point x="138" y="546" type="curve" smooth="yes"/>
      <point x="138" y="472"/>
      <point x="193" y="397"/>
      <point x="263" y="317" type="curve" smooth="yes"/>
      <point x="383" y="179"/>
      <point x="486" y="104"/>
      <point x="609" y="8" type="curve" smooth="yes"/>
      <point x="614" y="5"/>
      <point x="620" y="3"/>
    </contour>
  </outline>
</glyph>
<glyph name="quotesingle" format="2">
  <advance width="193.25"/>
  <unicode hex="0027"/>
  <note>
quotesingle
</note>
  <outline>
    <contour>
      <point x="70" y="674" type="curve" smooth="yes"/>
      <point x="44" y="461" type="line" smooth="yes"/>
      <point x="42" y="445"/>
      <point x="47" y="435"/>
      <point x="57" y="435" type="curve" smooth="yes"/>
      <point x="72" y="435"/>
      <point x="81" y="441"/>
      <point x="85" y="456" type="curve" smooth="yes"/>
      <point x="149" y="672" type="line" smooth="yes"/>
      <point x="154" y="688"/>
      <point x="148" y="699"/>
      <point x="132" y="700" type="curve" smooth="yes"/>
      <point x="99" y="700" type="line" smooth="yes"/>
      <point x="81" y="700"/>
      <point x="72" y="692"/>
    </contour>
  </outline>
</glyph>
<glyph name="parenleft" format="2">
  <advance width="373.5"/>
  <unicode hex="0028"/>
  <note>
parenleft
</note>
  <outline>
    <contour>
      <point x="321" y="-192" type="curve" smooth="yes"/>
      <point x="337" y="-192"/>
      <point x="347" y="-179"/>
      <point x="347" y="-165" type="curve" smooth="yes"/>
      <point x="347" y="-156"/>
      <point x="343" y="-147"/>
      <point x="335" y="-143" type="curve" smooth="yes"/>
      <point x="189" y="-64"/>
      <point x="113" y="99"/>
      <point x="113" y="257" type="curve" smooth="yes"/>
      <point x="113" y="415"/>
      <point x="193" y="574"/>
      <point x="335" y="656" type="curve" smooth="yes"/>
      <point x="343" y="662"/>
      <point x="347" y="671"/>
      <point x="347" y="679" type="curve" smooth="yes"/>
      <point x="347" y="692"/>
      <point x="337" y="706"/>
      <point x="321" y="706" type="curve" smooth="yes"/>
      <point x="317" y="706"/>
      <point x="312" y="705"/>
      <point x="307" y="702" type="curve" smooth="yes"/>
      <point x="144" y="605"/>
      <point x="53" y="439"/>
      <point x="53" y="257" type="curve" smooth="yes"/>
      <point x="53" y="75"/>
      <point x="138" y="-103"/>
      <point x="306" y="-188" type="curve" smooth="yes"/>
      <point x="312" y="-191"/>
      <point x="316" y="-192"/>
    </contour>
  </outline>
</glyph>
<glyph name="parenright" format="2">
  <advance width="373.5"/>
  <unicode hex="0029"/>
  <note>
parenright
</note>
  <outline>
    <contour>
      <point x="52" y="-191" type="curve" smooth="yes"/>
      <point x="57" y="-191"/>
      <point x="62" y="-190"/>
      <point x="67" y="-187" type="curve" smooth="yes"/>
      <point x="229" y="-92"/>
      <point x="321" y="76"/>
      <point x="321" y="258" type="curve" smooth="yes"/>
      <point x="321" y="441"/>
      <point x="235" y="617"/>
      <point x="67" y="703" type="curve" smooth="yes"/>
      <point x="62" y="706"/>
      <point x="58" y="707"/>
      <point x="52" y="707" type="curve" smooth="yes"/>
      <point x="36" y="707"/>
      <point x="27" y="694"/>
      <point x="27" y="680" type="curve" smooth="yes"/>
      <point x="27" y="671"/>
      <point x="31" y="662"/>
      <point x="39" y="658" type="curve" smooth="yes"/>
      <point x="184" y="579"/>
      <point x="261" y="416"/>
      <point x="261" y="258" type="curve" smooth="yes"/>
      <point x="261" y="100"/>
      <point x="180" y="-59"/>
      <point x="39" y="-141" type="curve" smooth="yes"/>
      <point x="30" y="-147"/>
      <point x="26" y="-156"/>
      <point x="26" y="-164" type="curve" smooth="yes"/>
      <point x="26" y="-177"/>
      <point x="37" y="-191"/>
    </contour>
  </outline>
</glyph>
<glyph name="asterisk" format="2">
  <advance width="309"/>
  <unicode hex="002A"/>
  <note>
asterisk
</note>
  <outline>
    <contour>
      <point x="154" y="400" type="curve" smooth="yes"/>
      <point x="168" y="400"/>
      <point x="178" y="411"/>
      <point x="177" y="425" type="curve" smooth="yes"/>
      <point x="170" y="518" type="line"/>
      <point x="169" y="522"/>
      <point x="172" y="524"/>
      <point x="176" y="522" type="curve" smooth="yes"/>
      <point x="253" y="468" type="line" smooth="yes"/>
      <point x="265" y="460"/>
      <point x="280" y="463"/>
      <point x="287" y="475" type="curve" smooth="yes"/>
      <point x="294" y="487"/>
      <point x="289" y="501"/>
      <point x="275" y="508" type="curve" smooth="yes"/>
      <point x="190" y="548" type="line"/>
      <point x="186" y="549"/>
      <point x="186" y="553"/>
      <point x="190" y="554" type="curve"/>
      <point x="275" y="595" type="line" smooth="yes"/>
      <point x="289" y="601"/>
      <point x="294" y="614"/>
      <point x="287" y="627" type="curve" smooth="yes"/>
      <point x="280" y="639"/>
      <point x="265" y="643"/>
      <point x="253" y="634" type="curve" smooth="yes"/>
      <point x="176" y="581" type="line" smooth="yes"/>
      <point x="172" y="578"/>
      <point x="169" y="580"/>
      <point x="170" y="584" type="curve"/>
      <point x="177" y="677" type="line" smooth="yes"/>
      <point x="178" y="691"/>
      <point x="169" y="702"/>
      <point x="156" y="702" type="curve" smooth="yes"/>
      <point x="142" y="702"/>
      <point x="132" y="691"/>
      <point x="133" y="677" type="curve" smooth="yes"/>
      <point x="140" y="584" type="line"/>
      <point x="141" y="580"/>
      <point x="138" y="578"/>
      <point x="135" y="581" type="curve" smooth="yes"/>
      <point x="57" y="635" type="line" smooth="yes"/>
      <point x="45" y="643"/>
      <point x="31" y="640"/>
      <point x="24" y="628" type="curve" smooth="yes"/>
      <point x="17" y="616"/>
      <point x="21" y="601"/>
      <point x="35" y="595" type="curve" smooth="yes"/>
      <point x="121" y="554" type="line"/>
      <point x="125" y="553"/>
      <point x="125" y="549"/>
      <point x="121" y="548" type="curve"/>
      <point x="35" y="508" type="line" smooth="yes"/>
      <point x="22" y="501"/>
      <point x="16" y="488"/>
      <point x="24" y="475" type="curve" smooth="yes"/>
      <point x="31" y="463"/>
      <point x="45" y="460"/>
      <point x="57" y="468" type="curve" smooth="yes"/>
      <point x="135" y="522" type="line" smooth="yes"/>
      <point x="138" y="524"/>
      <point x="141" y="522"/>
      <point x="140" y="518" type="curve"/>
      <point x="133" y="425" type="line" smooth="yes"/>
      <point x="132" y="411"/>
      <point x="141" y="400"/>
    </contour>
  </outline>
</glyph>
<glyph name="plus" format="2">
  <advance width="561.5"/>
  <unicode hex="002B"/>
  <note>
plus
</note>
  <outline>
    <contour>
      <point x="77" y="227" type="curve"/>
      <point x="490" y="227" type="line"/>
      <point x="507" y="227"/>
      <point x="519" y="240"/>
      <point x="519" y="255" type="curve"/>
      <point x="519" y="272"/>
      <point x="507" y="285"/>
      <point x="490" y="285" type="curve"/>
      <point x="77" y="285" type="line"/>
      <point x="60" y="285"/>
      <point x="48" y="273"/>
      <point x="48" y="257" type="curve"/>
      <point x="48" y="240"/>
      <point x="60" y="227"/>
    </contour>
    <contour>
      <point x="283" y="11" type="curve"/>
      <point x="302" y="11"/>
      <point x="315" y="25"/>
      <point x="315" y="44" type="curve"/>
      <point x="315" y="468" type="line"/>
      <point x="315" y="486"/>
      <point x="303" y="499"/>
      <point x="283" y="499" type="curve"/>
      <point x="265" y="499"/>
      <point x="251" y="486"/>
      <point x="251" y="467" type="curve"/>
      <point x="251" y="43" type="line"/>
      <point x="251" y="25"/>
      <point x="265" y="11"/>
    </contour>
  </outline>
</glyph>
<glyph name="comma" format="2">
  <advance width="194"/>
  <unicode hex="002C"/>
  <note>
comma
</note>
  <outline>
    <contour>
      <point x="156" y="3" type="curve" smooth="yes"/>
      <point x="156" y="42"/>
      <point x="131" y="65"/>
      <point x="97" y="65" type="curve"/>
      <point x="71" y="65"/>
      <point x="42" y="46"/>
      <point x="40" y="23" type="curve" smooth="yes"/>
      <point x="39" y="11"/>
      <point x="44" y="3"/>
      <point x="52" y="-4" type="curve"/>
      <point x="59" y="2"/>
      <point x="70" y="5"/>
      <point x="79" y="5" type="curve" smooth="yes"/>
      <point x="93" y="5"/>
      <point x="101" y="-5"/>
      <point x="101" y="-20" type="curve" smooth="yes"/>
      <point x="101" y="-40"/>
      <point x="91" y="-60"/>
      <point x="72" y="-70" type="curve" smooth="yes"/>
      <point x="55" y="-79"/>
      <point x="36" y="-75"/>
      <point x="36" y="-97" type="curve"/>
      <point x="36" y="-113"/>
      <point x="48" y="-119"/>
      <point x="62" y="-119" type="curve"/>
      <point x="104" y="-119"/>
      <point x="156" y="-56"/>
    </contour>
  </outline>
</glyph>
<glyph name="hyphen" format="2">
  <advance width="390"/>
  <unicode hex="002D"/>
  <note>
hyphen
</note>
  <outline>
    <contour>
      <point x="87" y="231" type="curve" smooth="yes"/>
      <point x="303" y="231" type="line" smooth="yes"/>
      <point x="320" y="231"/>
      <point x="333" y="243"/>
      <point x="333" y="259" type="curve" smooth="yes"/>
      <point x="333" y="277"/>
      <point x="320" y="290"/>
      <point x="303" y="290" type="curve" smooth="yes"/>
      <point x="87" y="290" type="line" smooth="yes"/>
      <point x="70" y="290"/>
      <point x="58" y="278"/>
      <point x="58" y="261" type="curve" smooth="yes"/>
      <point x="58" y="244"/>
      <point x="70" y="231"/>
    </contour>
  </outline>
</glyph>
<glyph name="period" format="2">
  <advance width="180.75"/>
  <unicode hex="002E"/>
  <note>
period
</note>
  <outline>
    <contour>
      <point x="87" y="0" type="curve" smooth="yes"/>
      <point x="94" y="0" type="line" smooth="yes"/>
      <point x="117" y="0"/>
      <point x="129" y="15"/>
      <point x="129" y="39" type="curve" smooth="yes"/>
      <point x="129" y="60" type="line" smooth="yes"/>
      <point x="129" y="83"/>
      <point x="117" y="98"/>
      <point x="94" y="98" type="curve" smooth="yes"/>
      <point x="87" y="98" type="line" smooth="yes"/>
      <point x="64" y="98"/>
      <point x="52" y="83"/>
      <point x="52" y="60" type="curve" smooth="yes"/>
      <point x="52" y="39" type="line" smooth="yes"/>
      <point x="52" y="15"/>
      <point x="64" y="0"/>
    </contour>
  </outline>
</glyph>
<glyph name="slash" format="2">
  <advance width="522.25"/>
  <unicode hex="002F"/>
  <note>
slash
</note>
  <outline>
    <contour>
      <point x="36" y="-130" type="curve" smooth="yes"/>
      <point x="49" y="-130"/>
      <point x="58" y="-124"/>
      <point x="67" y="-108" type="curve" smooth="yes"/>
      <point x="502" y="754" type="line" smooth="yes"/>
      <point x="505" y="761"/>
      <point x="506" y="766"/>
      <point x="506" y="772" type="curve" smooth="yes"/>
      <point x="506" y="789"/>
      <point x="492" y="799"/>
      <point x="480" y="799" type="curve" smooth="yes"/>
      <point x="465" y="799"/>
      <point x="456" y="793"/>
      <point x="447" y="775" type="curve" smooth="yes"/>
      <point x="12" y="-86" type="line" smooth="yes"/>
      <point x="9" y="-91"/>
      <point x="8" y="-96"/>
      <point x="8" y="-101" type="curve" smooth="yes"/>
      <point x="8" y="-117"/>
      <point x="20" y="-130"/>
    </contour>
  </outline>
</glyph>
<glyph name="zero" format="2">
  <advance width="594.5"/>
  <unicode hex="0030"/>
  <note>
zero
</note>
  <anchor x="290" y="351" name="center"/>
  <outline>
    <contour>
      <point x="297" y="-10" type="curve"/>
      <point x="460" y="-10"/>
      <point x="540" y="148"/>
      <point x="540" y="350" type="curve"/>
      <point x="540" y="553"/>
      <point x="460" y="710"/>
      <point x="297" y="710" type="curve"/>
      <point x="135" y="710"/>
      <point x="55" y="553"/>
      <point x="55" y="350" type="curve"/>
      <point x="55" y="148"/>
      <point x="135" y="-10"/>
    </contour>
    <contour>
      <point x="297" y="52" type="curve"/>
      <point x="181" y="52"/>
      <point x="119" y="171"/>
      <point x="119" y="350" type="curve"/>
      <point x="119" y="530"/>
      <point x="181" y="649"/>
      <point x="297" y="649" type="curve"/>
      <point x="414" y="649"/>
      <point x="476" y="530"/>
      <point x="476" y="350" type="curve"/>
      <point x="476" y="171"/>
      <point x="414" y="52"/>
    </contour>
  </outline>
</glyph>
<glyph name="one" format="2">
  <advance width="333.25"/>
  <unicode hex="0031"/>
  <note>
one
</note>
  <outline>
    <contour>
      <point x="207" y="0" type="curve"/>
      <point x="226" y="0"/>
      <point x="240" y="13"/>
      <point x="240" y="30" type="curve"/>
      <point x="240" y="670" type="line"/>
      <point x="240" y="686"/>
      <point x="229" y="699"/>
      <point x="214" y="700" type="curve"/>
      <point x="206" y="701"/>
      <point x="197" y="700"/>
      <point x="190" y="696" type="curve"/>
      <point x="21" y="594" type="line"/>
      <point x="11" y="588"/>
      <point x="5" y="578"/>
      <point x="5" y="569" type="curve" smooth="yes"/>
      <point x="5" y="554"/>
      <point x="19" y="537"/>
      <point x="37" y="537" type="curve" smooth="yes"/>
      <point x="41" y="537"/>
      <point x="46" y="538"/>
      <point x="51" y="541" type="curve"/>
      <point x="187" y="622" type="line"/>
      <point x="176" y="632" type="line"/>
      <point x="176" y="30" type="line"/>
      <point x="176" y="13"/>
      <point x="189" y="0"/>
    </contour>
  </outline>
</glyph>
<glyph name="two" format="2">
  <advance width="566.75"/>
  <unicode hex="0032"/>
  <note>
two
</note>
  <outline>
    <contour>
      <point x="493" y="58" type="curve"/>
      <point x="165" y="58" type="line"/>
      <point x="175" y="46" type="line"/>
      <point x="370" y="265" type="line"/>
      <point x="463" y="367"/>
      <point x="499" y="438"/>
      <point x="499" y="511" type="curve"/>
      <point x="499" y="627"/>
      <point x="421" y="710"/>
      <point x="284" y="710" type="curve"/>
      <point x="204" y="710"/>
      <point x="128" y="670"/>
      <point x="92" y="596" type="curve" smooth="yes"/>
      <point x="84" y="584"/>
      <point x="78" y="575"/>
      <point x="78" y="566" type="curve"/>
      <point x="78" y="553"/>
      <point x="95" y="540"/>
      <point x="109" y="540" type="curve"/>
      <point x="121" y="540"/>
      <point x="129" y="548"/>
      <point x="135" y="558" type="curve" smooth="yes"/>
      <point x="161" y="625"/>
      <point x="219" y="653"/>
      <point x="280" y="653" type="curve"/>
      <point x="378" y="653"/>
      <point x="435" y="597"/>
      <point x="435" y="507" type="curve"/>
      <point x="435" y="444"/>
      <point x="397" y="383"/>
      <point x="325" y="306" type="curve"/>
      <point x="94" y="51" type="line"/>
      <point x="89" y="45"/>
      <point x="86" y="38"/>
      <point x="86" y="30" type="curve"/>
      <point x="86" y="10"/>
      <point x="101" y="0"/>
      <point x="118" y="0" type="curve"/>
      <point x="493" y="0" type="line"/>
      <point x="509" y="0"/>
      <point x="522" y="12"/>
      <point x="522" y="29" type="curve"/>
      <point x="522" y="45"/>
      <point x="509" y="58"/>
    </contour>
  </outline>
</glyph>
<glyph name="three" format="2">
  <advance width="519.75"/>
  <unicode hex="0033"/>
  <note>
three
</note>
  <outline>
    <contour>
      <point x="86" y="103" type="curve"/>
      <point x="69" y="103"/>
      <point x="56" y="85"/>
      <point x="56" y="70" type="curve"/>
      <point x="56" y="62"/>
      <point x="60" y="53"/>
      <point x="70" y="46" type="curve"/>
      <point x="109" y="8"/>
      <point x="166" y="-10"/>
      <point x="221" y="-10" type="curve"/>
      <point x="357" y="-10"/>
      <point x="466" y="83"/>
      <point x="466" y="223" type="curve"/>
      <point x="466" y="364"/>
      <point x="363" y="443"/>
      <point x="254" y="443" type="curve"/>
      <point x="239" y="443"/>
      <point x="209" y="437"/>
      <point x="206" y="433" type="curve"/>
      <point x="228" y="420" type="line"/>
      <point x="431" y="647" type="line"/>
      <point x="437" y="653"/>
      <point x="441" y="661"/>
      <point x="441" y="669" type="curve"/>
      <point x="441" y="682"/>
      <point x="433" y="700"/>
      <point x="410" y="700" type="curve"/>
      <point x="74" y="700" type="line"/>
      <point x="58" y="700"/>
      <point x="45" y="688"/>
      <point x="45" y="672" type="curve"/>
      <point x="45" y="655"/>
      <point x="58" y="643"/>
      <point x="74" y="643" type="curve"/>
      <point x="377" y="643" type="line"/>
      <point x="366" y="659" type="line"/>
      <point x="161" y="431" type="line"/>
      <point x="154" y="424"/>
      <point x="151" y="417"/>
      <point x="151" y="408" type="curve"/>
      <point x="151" y="391"/>
      <point x="162" y="378"/>
      <point x="178" y="378" type="curve"/>
      <point x="189" y="378"/>
      <point x="212" y="385"/>
      <point x="233" y="385" type="curve"/>
      <point x="317" y="385"/>
      <point x="405" y="336"/>
      <point x="405" y="221" type="curve"/>
      <point x="405" y="118"/>
      <point x="324" y="47"/>
      <point x="227" y="47" type="curve"/>
      <point x="177" y="47"/>
      <point x="138" y="63"/>
      <point x="111" y="92" type="curve"/>
      <point x="100" y="101"/>
      <point x="93" y="103"/>
    </contour>
  </outline>
</glyph>
<glyph name="four" format="2">
  <advance width="555.75"/>
  <unicode hex="0034"/>
  <note>
four
</note>
  <outline>
    <contour>
      <point x="387" y="0" type="curve"/>
      <point x="404" y="0"/>
      <point x="418" y="13"/>
      <point x="418" y="30" type="curve"/>
      <point x="418" y="670" type="line"/>
      <point x="418" y="687"/>
      <point x="405" y="700"/>
      <point x="388" y="700" type="curve"/>
      <point x="382" y="700"/>
      <point x="370" y="698"/>
      <point x="363" y="688" type="curve"/>
      <point x="41" y="267" type="line"/>
      <point x="36" y="261"/>
      <point x="34" y="253"/>
      <point x="34" y="247" type="curve"/>
      <point x="34" y="231"/>
      <point x="48" y="216"/>
      <point x="64" y="216" type="curve"/>
      <point x="485" y="216" type="line"/>
      <point x="501" y="216"/>
      <point x="514" y="228"/>
      <point x="514" y="244" type="curve"/>
      <point x="514" y="260"/>
      <point x="501" y="272"/>
      <point x="485" y="272" type="curve"/>
      <point x="105" y="272" type="line"/>
      <point x="108" y="261" type="line"/>
      <point x="371" y="609" type="line"/>
      <point x="358" y="617" type="line"/>
      <point x="358" y="30" type="line"/>
      <point x="358" y="13"/>
      <point x="370" y="0"/>
    </contour>
  </outline>
</glyph>
<glyph name="five" format="2">
  <advance width="549"/>
  <unicode hex="0035"/>
  <note>
five
</note>
  <outline>
    <contour>
      <point x="224" y="-2" type="curve"/>
      <point x="374" y="-2"/>
      <point x="479" y="99"/>
      <point x="479" y="241" type="curve"/>
      <point x="479" y="372"/>
      <point x="382" y="465"/>
      <point x="253" y="465" type="curve"/>
      <point x="185" y="465"/>
      <point x="122" y="440"/>
      <point x="96" y="420" type="curve"/>
      <point x="114" y="407" type="line"/>
      <point x="155" y="650" type="line"/>
      <point x="146" y="641" type="line"/>
      <point x="433" y="641" type="line"/>
      <point x="449" y="641"/>
      <point x="462" y="654"/>
      <point x="462" y="670" type="curve"/>
      <point x="462" y="687"/>
      <point x="449" y="700"/>
      <point x="433" y="700" type="curve"/>
      <point x="132" y="700" type="line"/>
      <point x="115" y="700"/>
      <point x="103" y="687"/>
      <point x="101" y="675" type="curve"/>
      <point x="58" y="403" type="line"/>
      <point x="53" y="383"/>
      <point x="66" y="363"/>
      <point x="91" y="363" type="curve"/>
      <point x="110" y="363"/>
      <point x="166" y="408"/>
      <point x="239" y="408" type="curve"/>
      <point x="349" y="408"/>
      <point x="419" y="339"/>
      <point x="419" y="239" type="curve"/>
      <point x="419" y="131"/>
      <point x="339" y="56"/>
      <point x="224" y="56" type="curve"/>
      <point x="182" y="56"/>
      <point x="140" y="71"/>
      <point x="106" y="98" type="curve"/>
      <point x="99" y="104"/>
      <point x="91" y="107"/>
      <point x="84" y="107" type="curve"/>
      <point x="67" y="107"/>
      <point x="55" y="91"/>
      <point x="55" y="78" type="curve"/>
      <point x="55" y="69"/>
      <point x="60" y="58"/>
      <point x="68" y="52" type="curve" smooth="yes"/>
      <point x="111" y="16"/>
      <point x="169" y="-2"/>
    </contour>
  </outline>
</glyph>
<glyph name="six" format="2">
  <advance width="536.75"/>
  <unicode hex="0036"/>
  <note>
six
</note>
  <outline>
    <contour>
      <point x="285" y="-10" type="curve"/>
      <point x="412" y="-10"/>
      <point x="504" y="95"/>
      <point x="504" y="214" type="curve"/>
      <point x="504" y="332"/>
      <point x="419" y="443"/>
      <point x="297" y="443" type="curve"/>
      <point x="212" y="443"/>
      <point x="141" y="393"/>
      <point x="106" y="328" type="curve"/>
      <point x="127" y="341" type="line"/>
      <point x="153" y="476"/>
      <point x="267" y="614"/>
      <point x="380" y="661" type="curve"/>
      <point x="395" y="666"/>
      <point x="404" y="676"/>
      <point x="404" y="690" type="curve"/>
      <point x="404" y="712"/>
      <point x="389" y="721"/>
      <point x="373" y="721" type="curve"/>
      <point x="369" y="721"/>
      <point x="364" y="720"/>
      <point x="360" y="719" type="curve"/>
      <point x="159" y="643"/>
      <point x="55" y="401"/>
      <point x="55" y="240" type="curve"/>
      <point x="55" y="114"/>
      <point x="128" y="-10"/>
    </contour>
    <contour>
      <point x="283" y="48" type="curve"/>
      <point x="178" y="48"/>
      <point x="116" y="125"/>
      <point x="116" y="211" type="curve"/>
      <point x="116" y="305"/>
      <point x="180" y="385"/>
      <point x="288" y="385" type="curve"/>
      <point x="388" y="385"/>
      <point x="443" y="302"/>
      <point x="443" y="214" type="curve"/>
      <point x="443" y="116"/>
      <point x="376" y="48"/>
    </contour>
  </outline>
</glyph>
<glyph name="seven" format="2">
  <advance width="518"/>
  <unicode hex="0037"/>
  <note>
seven
</note>
  <outline>
    <contour>
      <point x="179" y="-3" type="curve"/>
      <point x="191" y="-3"/>
      <point x="203" y="5"/>
      <point x="208" y="17" type="curve"/>
      <point x="483" y="658" type="line"/>
      <point x="484" y="661"/>
      <point x="486" y="668"/>
      <point x="486" y="672" type="curve"/>
      <point x="486" y="688"/>
      <point x="476" y="700"/>
      <point x="457" y="700" type="curve"/>
      <point x="89" y="700" type="line"/>
      <point x="73" y="700"/>
      <point x="60" y="688"/>
      <point x="60" y="672" type="curve"/>
      <point x="60" y="655"/>
      <point x="73" y="643"/>
      <point x="89" y="643" type="curve"/>
      <point x="428" y="643" type="line"/>
      <point x="416" y="656" type="line"/>
      <point x="151" y="40" type="line"/>
      <point x="149" y="35"/>
      <point x="148" y="30"/>
      <point x="148" y="25" type="curve"/>
      <point x="148" y="9"/>
      <point x="164" y="-3"/>
    </contour>
  </outline>
</glyph>
<glyph name="eight" format="2">
  <advance width="564.75"/>
  <unicode hex="0038"/>
  <note>
eight
</note>
  <outline>
    <contour>
      <point x="376" y="352" type="line"/>
      <point x="427" y="376"/>
      <point x="479" y="432"/>
      <point x="479" y="510" type="curve"/>
      <point x="479" y="617"/>
      <point x="392" y="700"/>
      <point x="282" y="700" type="curve"/>
      <point x="172" y="700"/>
      <point x="84" y="617"/>
      <point x="84" y="510" type="curve"/>
      <point x="84" y="434"/>
      <point x="134" y="375"/>
      <point x="187" y="351" type="curve"/>
      <point x="191" y="361" type="line"/>
      <point x="128" y="334"/>
      <point x="68" y="275"/>
      <point x="68" y="187" type="curve"/>
      <point x="68" y="79"/>
      <point x="161" y="-8"/>
      <point x="282" y="-8" type="curve"/>
      <point x="403" y="-8"/>
      <point x="497" y="79"/>
      <point x="497" y="187" type="curve"/>
      <point x="497" y="269"/>
      <point x="441" y="333"/>
      <point x="373" y="361" type="curve"/>
    </contour>
    <contour>
      <point x="145" y="510" type="curve"/>
      <point x="145" y="588"/>
      <point x="201" y="643"/>
      <point x="282" y="643" type="curve"/>
      <point x="362" y="643"/>
      <point x="418" y="588"/>
      <point x="418" y="510" type="curve"/>
      <point x="418" y="430"/>
      <point x="354" y="376"/>
      <point x="282" y="376" type="curve"/>
      <point x="210" y="376"/>
      <point x="145" y="430"/>
    </contour>
    <contour>
      <point x="282" y="50" type="curve"/>
      <point x="191" y="50"/>
      <point x="129" y="108"/>
      <point x="129" y="187" type="curve"/>
      <point x="129" y="267"/>
      <point x="199" y="327"/>
      <point x="282" y="327" type="curve"/>
      <point x="365" y="327"/>
      <point x="436" y="267"/>
      <point x="436" y="187" type="curve"/>
      <point x="436" y="108"/>
      <point x="373" y="50"/>
    </contour>
  </outline>
</glyph>
<glyph name="nine" format="2">
  <advance width="553.25"/>
  <unicode hex="0039"/>
  <note>
nine
</note>
  <outline>
    <contour>
      <point x="275" y="711" type="curve"/>
      <point x="148" y="711"/>
      <point x="55" y="606"/>
      <point x="55" y="487" type="curve"/>
      <point x="55" y="369"/>
      <point x="141" y="260"/>
      <point x="262" y="260" type="curve"/>
      <point x="348" y="260"/>
      <point x="419" y="308"/>
      <point x="454" y="373" type="curve"/>
      <point x="432" y="360" type="line"/>
      <point x="406" y="225"/>
      <point x="293" y="99"/>
      <point x="179" y="51" type="curve"/>
      <point x="164" y="46"/>
      <point x="155" y="36"/>
      <point x="155" y="22" type="curve"/>
      <point x="155" y="4"/>
      <point x="170" y="-9"/>
      <point x="187" y="-9" type="curve"/>
      <point x="191" y="-9"/>
      <point x="195" y="-8"/>
      <point x="199" y="-7" type="curve"/>
      <point x="400" y="70"/>
      <point x="504" y="300"/>
      <point x="504" y="461" type="curve"/>
      <point x="504" y="587"/>
      <point x="431" y="711"/>
    </contour>
    <contour>
      <point x="276" y="653" type="curve"/>
      <point x="381" y="653"/>
      <point x="443" y="576"/>
      <point x="443" y="490" type="curve"/>
      <point x="443" y="396"/>
      <point x="379" y="318"/>
      <point x="272" y="318" type="curve"/>
      <point x="171" y="318"/>
      <point x="117" y="399"/>
      <point x="117" y="487" type="curve"/>
      <point x="117" y="585"/>
      <point x="184" y="653"/>
    </contour>
  </outline>
</glyph>
<glyph name="colon" format="2">
  <advance width="186.75"/>
  <unicode hex="003A"/>
  <note>
colon
</note>
  <outline>
    <contour>
      <point x="90" y="417" type="curve" smooth="yes"/>
      <point x="97" y="417" type="line" smooth="yes"/>
      <point x="120" y="417"/>
      <point x="132" y="432"/>
      <point x="132" y="455" type="curve" smooth="yes"/>
      <point x="132" y="476" type="line" smooth="yes"/>
      <point x="132" y="500"/>
      <point x="120" y="515"/>
      <point x="97" y="515" type="curve" smooth="yes"/>
      <point x="90" y="515" type="line" smooth="yes"/>
      <point x="67" y="515"/>
      <point x="55" y="500"/>
      <point x="55" y="476" type="curve" smooth="yes"/>
      <point x="55" y="455" type="line" smooth="yes"/>
      <point x="55" y="432"/>
      <point x="67" y="417"/>
    </contour>
    <contour>
      <point x="90" y="0" type="curve" smooth="yes"/>
      <point x="97" y="0" type="line" smooth="yes"/>
      <point x="120" y="0"/>
      <point x="132" y="15"/>
      <point x="132" y="38" type="curve" smooth="yes"/>
      <point x="132" y="60" type="line" smooth="yes"/>
      <point x="132" y="83"/>
      <point x="120" y="98"/>
      <point x="97" y="98" type="curve" smooth="yes"/>
      <point x="90" y="98" type="line" smooth="yes"/>
      <point x="67" y="98"/>
      <point x="55" y="83"/>
      <point x="55" y="60" type="curve" smooth="yes"/>
      <point x="55" y="38" type="line" smooth="yes"/>
      <point x="55" y="15"/>
      <point x="67" y="0"/>
    </contour>
  </outline>
</glyph>
<glyph name="semicolon" format="2">
  <advance width="198.75"/>
  <unicode hex="003B"/>
  <note>
semicolon
</note>
  <outline>
    <contour>
      <point x="110" y="417" type="curve" smooth="yes"/>
      <point x="116" y="417" type="line" smooth="yes"/>
      <point x="139" y="417"/>
      <point x="154" y="432"/>
      <point x="154" y="455" type="curve" smooth="yes"/>
      <point x="154" y="476" type="line" smooth="yes"/>
      <point x="154" y="500"/>
      <point x="139" y="515"/>
      <point x="116" y="515" type="curve" smooth="yes"/>
      <point x="110" y="515" type="line" smooth="yes"/>
      <point x="86" y="515"/>
      <point x="71" y="500"/>
      <point x="71" y="476" type="curve" smooth="yes"/>
      <point x="71" y="455" type="line" smooth="yes"/>
      <point x="71" y="432"/>
      <point x="86" y="417"/>
    </contour>
    <component base="comma" xOffset="8"/>
  </outline>
</glyph>
<glyph name="less" format="2">
  <advance width="522.75"/>
  <unicode hex="003C"/>
  <note>
less
</note>
  <outline>
    <contour>
      <point x="431" y="0" type="curve" smooth="yes"/>
      <point x="445" y="0"/>
      <point x="458" y="14"/>
      <point x="458" y="30" type="curve" smooth="yes"/>
      <point x="458" y="43"/>
      <point x="452" y="51"/>
      <point x="434" y="60" type="curve" smooth="yes"/>
      <point x="84" y="257" type="line"/>
      <point x="86" y="230" type="line"/>
      <point x="438" y="428" type="line" smooth="yes"/>
      <point x="449" y="434"/>
      <point x="456" y="442"/>
      <point x="456" y="455" type="curve" smooth="yes"/>
      <point x="456" y="469"/>
      <point x="442" y="484"/>
      <point x="425" y="483" type="curve" smooth="yes"/>
      <point x="418" y="483"/>
      <point x="410" y="480"/>
      <point x="402" y="475" type="curve" smooth="yes"/>
      <point x="57" y="279" type="line" smooth="yes"/>
      <point x="42" y="271"/>
      <point x="33" y="261"/>
      <point x="33" y="245" type="curve" smooth="yes"/>
      <point x="33" y="229"/>
      <point x="38" y="218"/>
      <point x="54" y="210" type="curve" smooth="yes"/>
      <point x="405" y="10" type="line" smooth="yes"/>
      <point x="413" y="5"/>
      <point x="423" y="0"/>
    </contour>
  </outline>
</glyph>
<glyph name="equal" format="2">
  <advance width="481.75"/>
  <unicode hex="003D"/>
  <note>
equal
</note>
  <outline>
    <contour>
      <point x="81" y="309" type="curve"/>
      <point x="401" y="309" type="line"/>
      <point x="419" y="309"/>
      <point x="432" y="322"/>
      <point x="432" y="337" type="curve"/>
      <point x="432" y="354"/>
      <point x="419" y="367"/>
      <point x="401" y="367" type="curve"/>
      <point x="81" y="367" type="line"/>
      <point x="63" y="367"/>
      <point x="50" y="355"/>
      <point x="50" y="339" type="curve"/>
      <point x="50" y="322"/>
      <point x="63" y="309"/>
    </contour>
    <contour>
      <point x="81" y="126" type="curve"/>
      <point x="401" y="126" type="line"/>
      <point x="419" y="126"/>
      <point x="432" y="139"/>
      <point x="432" y="155" type="curve"/>
      <point x="432" y="171"/>
      <point x="419" y="184"/>
      <point x="401" y="184" type="curve"/>
      <point x="81" y="184" type="line"/>
      <point x="63" y="184"/>
      <point x="50" y="172"/>
      <point x="50" y="156" type="curve"/>
      <point x="50" y="139"/>
      <point x="63" y="126"/>
    </contour>
  </outline>
</glyph>
<glyph name="greater" format="2">
  <advance width="529.5"/>
  <unicode hex="003E"/>
  <note>
greater
</note>
  <outline>
    <contour>
      <point x="93" y="0" type="curve" smooth="yes"/>
      <point x="100" y="0"/>
      <point x="110" y="4"/>
      <point x="118" y="9" type="curve" smooth="yes"/>
      <point x="475" y="206" type="line" smooth="yes"/>
      <point x="491" y="215"/>
      <point x="497" y="225"/>
      <point x="497" y="241" type="curve" smooth="yes"/>
      <point x="497" y="257"/>
      <point x="488" y="267"/>
      <point x="472" y="276" type="curve" smooth="yes"/>
      <point x="121" y="474" type="line" smooth="yes"/>
      <point x="113" y="479"/>
      <point x="104" y="483"/>
      <point x="97" y="483" type="curve" smooth="yes"/>
      <point x="81" y="484"/>
      <point x="68" y="470"/>
      <point x="68" y="455" type="curve" smooth="yes"/>
      <point x="68" y="441"/>
      <point x="74" y="433"/>
      <point x="85" y="427" type="curve" smooth="yes"/>
      <point x="446" y="225" type="line"/>
      <point x="444" y="252" type="line"/>
      <point x="89" y="59" type="line" smooth="yes"/>
      <point x="71" y="50"/>
      <point x="65" y="43"/>
      <point x="65" y="29" type="curve" smooth="yes"/>
      <point x="65" y="15"/>
      <point x="78" y="0"/>
    </contour>
  </outline>
</glyph>
<glyph name="question" format="2">
  <advance width="485"/>
  <unicode hex="003F"/>
  <note>
question
</note>
  <outline>
    <contour>
      <point x="201" y="336" type="curve" smooth="yes"/>
      <point x="201" y="217" type="line" smooth="yes"/>
      <point x="200" y="200"/>
      <point x="213" y="187"/>
      <point x="230" y="187" type="curve" smooth="yes"/>
      <point x="247" y="187"/>
      <point x="260" y="200"/>
      <point x="260" y="217" type="curve" smooth="yes"/>
      <point x="260" y="322" type="line" smooth="yes"/>
      <point x="254" y="315"/>
      <point x="244" y="315"/>
      <point x="248" y="315" type="curve"/>
      <point x="362" y="320"/>
      <point x="453" y="416"/>
      <point x="453" y="523" type="curve" smooth="yes"/>
      <point x="453" y="654"/>
      <point x="359" y="736"/>
      <point x="244" y="736" type="curve" smooth="yes"/>
      <point x="170" y="736"/>
      <point x="101" y="700"/>
      <point x="59" y="646" type="curve" smooth="yes"/>
      <point x="47" y="631"/>
      <point x="49" y="612"/>
      <point x="66" y="602" type="curve" smooth="yes"/>
      <point x="81" y="592"/>
      <point x="96" y="598"/>
      <point x="107" y="609" type="curve" smooth="yes"/>
      <point x="139" y="650"/>
      <point x="189" y="678"/>
      <point x="244" y="678" type="curve" smooth="yes"/>
      <point x="327" y="678"/>
      <point x="391" y="615"/>
      <point x="391" y="523" type="curve" smooth="yes"/>
      <point x="391" y="434"/>
      <point x="322" y="372"/>
      <point x="231" y="367" type="curve" smooth="yes"/>
      <point x="214" y="367"/>
      <point x="201" y="353"/>
    </contour>
    <contour>
      <point x="231" y="0" type="curve" smooth="yes"/>
      <point x="237" y="0" type="line" smooth="yes"/>
      <point x="260" y="0"/>
      <point x="272" y="15"/>
      <point x="272" y="38" type="curve" smooth="yes"/>
      <point x="272" y="60" type="line" smooth="yes"/>
      <point x="272" y="83"/>
      <point x="260" y="98"/>
      <point x="237" y="98" type="curve" smooth="yes"/>
      <point x="231" y="98" type="line" smooth="yes"/>
      <point x="207" y="98"/>
      <point x="195" y="83"/>
      <point x="195" y="60" type="curve" smooth="yes"/>
      <point x="195" y="38" type="line" smooth="yes"/>
      <point x="195" y="15"/>
      <point x="207" y="0"/>
    </contour>
  </outline>
</glyph>
<glyph name="at" format="2">
  <advance width="972.25"/>
  <unicode hex="0040"/>
  <note>
at
</note>
  <outline>
    <contour>
      <point x="689" y="55" type="curve"/>
      <point x="825" y="55"/>
      <point x="925" y="233"/>
      <point x="925" y="396" type="curve"/>
      <point x="925" y="568"/>
      <point x="804" y="710"/>
      <point x="576" y="710" type="curve"/>
      <point x="278" y="710"/>
      <point x="40" y="518"/>
      <point x="40" y="206" type="curve"/>
      <point x="40" y="24"/>
      <point x="145" y="-162"/>
      <point x="414" y="-162" type="curve"/>
      <point x="526" y="-162"/>
      <point x="596" y="-126"/>
      <point x="653" y="-98" type="curve"/>
      <point x="669" y="-90"/>
      <point x="674" y="-78"/>
      <point x="669" y="-66" type="curve"/>
      <point x="663" y="-51"/>
      <point x="650" y="-50"/>
      <point x="639" y="-55" type="curve"/>
      <point x="576" y="-86"/>
      <point x="524" y="-114"/>
      <point x="414" y="-114" type="curve"/>
      <point x="183" y="-114"/>
      <point x="90" y="47"/>
      <point x="90" y="206" type="curve"/>
      <point x="90" y="492"/>
      <point x="303" y="662"/>
      <point x="576" y="662" type="curve"/>
      <point x="758" y="662"/>
      <point x="875" y="554"/>
      <point x="875" y="396" type="curve"/>
      <point x="875" y="253"/>
      <point x="795" y="102"/>
      <point x="700" y="102" type="curve"/>
      <point x="675" y="102"/>
      <point x="649" y="121"/>
      <point x="656" y="166" type="curve"/>
      <point x="703" y="466" type="line"/>
      <point x="707" y="490"/>
      <point x="699" y="502"/>
      <point x="677" y="502" type="curve"/>
      <point x="657" y="502"/>
      <point x="648" y="490"/>
      <point x="646" y="475" type="curve"/>
      <point x="624" y="331" type="line"/>
      <point x="643" y="381" type="line"/>
      <point x="633" y="453"/>
      <point x="582" y="510"/>
      <point x="502" y="510" type="curve"/>
      <point x="364" y="510"/>
      <point x="261" y="345"/>
      <point x="261" y="220" type="curve"/>
      <point x="261" y="128"/>
      <point x="322" y="55"/>
      <point x="408" y="55" type="curve"/>
      <point x="489" y="55"/>
      <point x="575" y="111"/>
      <point x="617" y="220" type="curve"/>
      <point x="603" y="222" type="line"/>
      <point x="594" y="153" type="line"/>
      <point x="586" y="94"/>
      <point x="627" y="55"/>
    </contour>
    <contour>
      <point x="417" y="106" type="curve"/>
      <point x="365" y="106"/>
      <point x="321" y="148"/>
      <point x="321" y="222" type="curve"/>
      <point x="321" y="319"/>
      <point x="390" y="459"/>
      <point x="504" y="459" type="curve"/>
      <point x="579" y="459"/>
      <point x="628" y="405"/>
      <point x="618" y="323" type="curve"/>
      <point x="615" y="215"/>
      <point x="510" y="106"/>
    </contour>
  </outline>
</glyph>
<glyph name="A" format="2">
  <advance width="646.5"/>
  <unicode hex="0041"/>
  <note>
A
</note>
  <anchor x="324" y="0" name="bottom"/>
  <anchor x="583" y="10" name="ogonek"/>
  <anchor x="324" y="700" name="top"/>
  <outline>
    <contour>
      <point x="328" y="623" type="line"/>
      <point x="310" y="627" type="line"/>
      <point x="559" y="19" type="line" smooth="yes"/>
      <point x="564" y="7"/>
      <point x="575" y="-1"/>
      <point x="588" y="-1" type="curve" smooth="yes"/>
      <point x="604" y="-1"/>
      <point x="618" y="10"/>
      <point x="618" y="28" type="curve" smooth="yes"/>
      <point x="618" y="32"/>
      <point x="617" y="36"/>
      <point x="616" y="40" type="curve" smooth="yes"/>
      <point x="353" y="683" type="line" smooth="yes"/>
      <point x="348" y="695"/>
      <point x="337" y="703"/>
      <point x="324" y="703" type="curve"/>
      <point x="310" y="703"/>
      <point x="300" y="698"/>
      <point x="294" y="683" type="curve" smooth="yes"/>
      <point x="30" y="37" type="line"/>
      <point x="29" y="33"/>
      <point x="28" y="28"/>
      <point x="29" y="25" type="curve" smooth="yes"/>
      <point x="30" y="10"/>
      <point x="39" y="-1"/>
      <point x="58" y="-1" type="curve" smooth="yes"/>
      <point x="70" y="-1"/>
      <point x="80" y="6"/>
      <point x="85" y="19" type="curve"/>
    </contour>
    <contour>
      <point x="143" y="202" type="line"/>
      <point x="490" y="202" type="line"/>
      <point x="478" y="261" type="line"/>
      <point x="168" y="261" type="line"/>
    </contour>
  </outline>
</glyph>
<glyph name="B" format="2">
  <advance width="652"/>
  <unicode hex="0042"/>
  <note>
B
</note>
  <anchor x="326" y="0" name="bottom"/>
  <anchor x="326" y="700" name="top"/>
  <outline>
    <contour>
      <point x="389" y="700" type="curve"/>
      <point x="124" y="700" type="line"/>
      <point x="107" y="700"/>
      <point x="94" y="687"/>
      <point x="94" y="670" type="curve"/>
      <point x="94" y="30" type="line"/>
      <point x="94" y="13"/>
      <point x="107" y="0"/>
      <point x="124" y="0" type="curve"/>
      <point x="393" y="0" type="line"/>
      <point x="503" y="0"/>
      <point x="604" y="56"/>
      <point x="604" y="195" type="curve"/>
      <point x="604" y="324"/>
      <point x="504" y="380"/>
      <point x="406" y="380" type="curve"/>
      <point x="410" y="360" type="line"/>
      <point x="513" y="365"/>
      <point x="568" y="442"/>
      <point x="568" y="528" type="curve"/>
      <point x="568" y="635"/>
      <point x="501" y="700"/>
    </contour>
    <contour>
      <point x="381" y="641" type="line"/>
      <point x="459" y="641"/>
      <point x="504" y="595"/>
      <point x="504" y="523" type="curve"/>
      <point x="504" y="436"/>
      <point x="450" y="392"/>
      <point x="381" y="391" type="curve"/>
      <point x="147" y="391" type="line"/>
      <point x="158" y="376" type="line"/>
      <point x="158" y="659" type="line"/>
      <point x="146" y="641" type="line"/>
    </contour>
    <contour>
      <point x="388" y="331" type="line"/>
      <point x="469" y="331"/>
      <point x="540" y="295"/>
      <point x="540" y="195" type="curve"/>
      <point x="540" y="101"/>
      <point x="475" y="59"/>
      <point x="390" y="59" type="curve"/>
      <point x="152" y="59" type="line"/>
      <point x="158" y="50" type="line"/>
      <point x="158" y="337" type="line"/>
      <point x="153" y="331" type="line"/>
    </contour>
  </outline>
</glyph>
<glyph name="C" format="2">
  <advance width="653.25"/>
  <unicode hex="0043"/>
  <note>
C
</note>
  <anchor x="404" y="0" name="bottom"/>
  <anchor x="390" y="700" name="top"/>
  <outline>
    <contour>
      <point x="605" y="648" type="curve"/>
      <point x="548" y="686"/>
      <point x="475" y="709"/>
      <point x="399" y="709" type="curve"/>
      <point x="204" y="709"/>
      <point x="48" y="557"/>
      <point x="48" y="350" type="curve"/>
      <point x="48" y="135"/>
      <point x="208" y="-10"/>
      <point x="399" y="-10" type="curve"/>
      <point x="474" y="-10"/>
      <point x="556" y="18"/>
      <point x="606" y="51" type="curve"/>
      <point x="621" y="60"/>
      <point x="625" y="79"/>
      <point x="613" y="94" type="curve"/>
      <point x="603" y="107"/>
      <point x="587" y="109"/>
      <point x="573" y="101" type="curve"/>
      <point x="523" y="68"/>
      <point x="465" y="49"/>
      <point x="399" y="49" type="curve"/>
      <point x="239" y="49"/>
      <point x="112" y="168"/>
      <point x="112" y="350" type="curve"/>
      <point x="112" y="527"/>
      <point x="236" y="650"/>
      <point x="399" y="650" type="curve"/>
      <point x="464" y="650"/>
      <point x="524" y="630"/>
      <point x="574" y="597" type="curve"/>
      <point x="587" y="589"/>
      <point x="603" y="591"/>
      <point x="613" y="603" type="curve"/>
      <point x="624" y="619"/>
      <point x="621" y="638"/>
    </contour>
  </outline>
</glyph>
<glyph name="D" format="2">
  <advance width="718.75"/>
  <unicode hex="0044"/>
  <note>
D
</note>
  <anchor x="320" y="0" name="bottom"/>
  <anchor x="127" y="350" name="center"/>
  <anchor x="312" y="700" name="top"/>
  <outline>
    <contour>
      <point x="379" y="700" type="curve" smooth="yes"/>
      <point x="124" y="700" type="line" smooth="yes"/>
      <point x="107" y="700"/>
      <point x="94" y="687"/>
      <point x="94" y="670" type="curve" smooth="yes"/>
      <point x="94" y="30" type="line" smooth="yes"/>
      <point x="94" y="13"/>
      <point x="107" y="0"/>
      <point x="124" y="0" type="curve" smooth="yes"/>
      <point x="379" y="0" type="line" smooth="yes"/>
      <point x="578" y="0"/>
      <point x="671" y="158"/>
      <point x="671" y="350" type="curve" smooth="yes"/>
      <point x="671" y="535"/>
      <point x="578" y="700"/>
    </contour>
    <contour>
      <point x="369" y="59" type="curve" smooth="yes"/>
      <point x="151" y="59" type="line"/>
      <point x="157" y="49" type="line"/>
      <point x="157" y="650" type="line"/>
      <point x="150" y="641" type="line"/>
      <point x="369" y="641" type="line" smooth="yes"/>
      <point x="538" y="641"/>
      <point x="607" y="504"/>
      <point x="607" y="350" type="curve" smooth="yes"/>
      <point x="607" y="189"/>
      <point x="538" y="59"/>
    </contour>
  </outline>
</glyph>
<glyph name="E" format="2">
  <advance width="568.25"/>
  <unicode hex="0045"/>
  <note>
E
</note>
  <anchor x="312" y="0" name="bottom"/>
  <anchor x="489" y="10" name="ogonek"/>
  <anchor x="318" y="700" name="top"/>
  <anchor x="20" y="700" name="topleft"/>
  <outline>
    <contour>
      <point x="124" y="700" type="line"/>
      <point x="107" y="700"/>
      <point x="94" y="687"/>
      <point x="94" y="670" type="curve"/>
      <point x="94" y="30" type="line"/>
      <point x="94" y="13"/>
      <point x="107" y="0"/>
      <point x="124" y="0" type="curve"/>
      <point x="491" y="0" type="line"/>
      <point x="508" y="0"/>
      <point x="521" y="12"/>
      <point x="521" y="29" type="curve"/>
      <point x="521" y="45"/>
      <point x="508" y="59"/>
      <point x="491" y="59" type="curve"/>
      <point x="152" y="59" type="line"/>
      <point x="157" y="53" type="line"/>
      <point x="157" y="341" type="line"/>
      <point x="148" y="331" type="line"/>
      <point x="446" y="331" type="line"/>
      <point x="463" y="331"/>
      <point x="476" y="342"/>
      <point x="476" y="360" type="curve"/>
      <point x="476" y="377"/>
      <point x="463" y="390"/>
      <point x="446" y="390" type="curve"/>
      <point x="146" y="390" type="line"/>
      <point x="157" y="377" type="line"/>
      <point x="157" y="658" type="line"/>
      <point x="147" y="641" type="line"/>
      <point x="491" y="641" type="line"/>
      <point x="508" y="641"/>
      <point x="521" y="653"/>
      <point x="521" y="670" type="curve"/>
      <point x="521" y="687"/>
      <point x="508" y="700"/>
      <point x="491" y="700" type="curve"/>
    </contour>
  </outline>
</glyph>
<glyph name="F" format="2">
  <advance width="565.75"/>
  <unicode hex="0046"/>
  <note>
F
</note>
  <anchor x="283" y="0" name="bottom"/>
  <anchor x="128" y="207" name="center"/>
  <anchor x="283" y="700" name="top"/>
  <outline>
    <contour>
      <point x="125" y="0" type="curve"/>
      <point x="142" y="0"/>
      <point x="155" y="13"/>
      <point x="155" y="30" type="curve"/>
      <point x="155" y="340" type="line"/>
      <point x="148" y="332" type="line"/>
      <point x="443" y="332" type="line"/>
      <point x="460" y="332"/>
      <point x="473" y="344"/>
      <point x="473" y="361" type="curve"/>
      <point x="473" y="378"/>
      <point x="460" y="390"/>
      <point x="443" y="390" type="curve"/>
      <point x="150" y="390" type="line"/>
      <point x="155" y="381" type="line"/>
      <point x="155" y="647" type="line"/>
      <point x="151" y="641" type="line"/>
      <point x="488" y="641" type="line"/>
      <point x="505" y="641"/>
      <point x="518" y="654"/>
      <point x="518" y="670" type="curve"/>
      <point x="518" y="687"/>
      <point x="505" y="700"/>
      <point x="488" y="700" type="curve"/>
      <point x="124" y="700" type="line"/>
      <point x="107" y="700"/>
      <point x="94" y="687"/>
      <point x="94" y="670" type="curve"/>
      <point x="94" y="30" type="line"/>
      <point x="94" y="13"/>
      <point x="106" y="0"/>
    </contour>
  </outline>
</glyph>
<glyph name="G" format="2">
  <advance width="694.5"/>
  <unicode hex="0047"/>
  <note>
G
</note>
  <anchor x="392" y="0" name="bottom"/>
  <anchor x="380" y="700" name="top"/>
  <outline>
    <contour>
      <point x="408" y="-10" type="curve"/>
      <point x="486" y="-10"/>
      <point x="561" y="15"/>
      <point x="620" y="55" type="curve"/>
      <point x="629" y="61"/>
      <point x="635" y="71"/>
      <point x="635" y="82" type="curve"/>
      <point x="635" y="323" type="line"/>
      <point x="635" y="340"/>
      <point x="622" y="353"/>
      <point x="605" y="353" type="curve"/>
      <point x="414" y="353" type="line"/>
      <point x="397" y="353"/>
      <point x="383" y="341"/>
      <point x="383" y="323" type="curve"/>
      <point x="383" y="306"/>
      <point x="397" y="293"/>
      <point x="414" y="293" type="curve"/>
      <point x="587" y="293" type="line"/>
      <point x="572" y="307" type="line"/>
      <point x="572" y="77" type="line"/>
      <point x="577" y="98" type="line"/>
      <point x="532" y="69"/>
      <point x="468" y="50"/>
      <point x="408" y="50" type="curve"/>
      <point x="236" y="50"/>
      <point x="112" y="178"/>
      <point x="112" y="350" type="curve"/>
      <point x="112" y="523"/>
      <point x="236" y="650"/>
      <point x="408" y="650" type="curve"/>
      <point x="467" y="650"/>
      <point x="521" y="634"/>
      <point x="567" y="609" type="curve"/>
      <point x="572" y="606"/>
      <point x="578" y="604"/>
      <point x="585" y="604" type="curve"/>
      <point x="598" y="604"/>
      <point x="613" y="616"/>
      <point x="613" y="635" type="curve"/>
      <point x="613" y="645"/>
      <point x="608" y="654"/>
      <point x="599" y="660" type="curve"/>
      <point x="546" y="693"/>
      <point x="478" y="710"/>
      <point x="408" y="710" type="curve"/>
      <point x="202" y="710"/>
      <point x="48" y="557"/>
      <point x="48" y="350" type="curve"/>
      <point x="48" y="144"/>
      <point x="202" y="-10"/>
    </contour>
  </outline>
</glyph>
<glyph name="H" format="2">
  <advance width="719.75"/>
  <unicode hex="0048"/>
  <note>
H
</note>
  <anchor x="360" y="0" name="bottom"/>
  <anchor x="360" y="350" name="center"/>
  <anchor x="360" y="700" name="top"/>
  <anchor x="20" y="700" name="topleft"/>
  <outline>
    <contour>
      <point x="126" y="700" type="curve" smooth="yes"/>
      <point x="107" y="700"/>
      <point x="94" y="687"/>
      <point x="94" y="669" type="curve" smooth="yes"/>
      <point x="94" y="31" type="line" smooth="yes"/>
      <point x="94" y="13"/>
      <point x="106" y="0"/>
      <point x="125" y="0" type="curve" smooth="yes"/>
      <point x="142" y="0"/>
      <point x="156" y="13"/>
      <point x="157" y="31" type="curve" smooth="yes"/>
      <point x="157" y="669" type="line" smooth="yes"/>
      <point x="157" y="687"/>
      <point x="143" y="700"/>
    </contour>
    <contour>
      <point x="595" y="700" type="curve" smooth="yes"/>
      <point x="578" y="700"/>
      <point x="563" y="687"/>
      <point x="563" y="669" type="curve" smooth="yes"/>
      <point x="563" y="31" type="line" smooth="yes"/>
      <point x="563" y="13"/>
      <point x="577" y="0"/>
      <point x="594" y="0" type="curve" smooth="yes"/>
      <point x="612" y="0"/>
      <point x="625" y="13"/>
      <point x="626" y="31" type="curve" smooth="yes"/>
      <point x="626" y="669" type="line" smooth="yes"/>
      <point x="626" y="687"/>
      <point x="613" y="700"/>
    </contour>
    <contour>
      <point x="121" y="387" type="line"/>
      <point x="117" y="329" type="line"/>
      <point x="595" y="329" type="line"/>
      <point x="596" y="387" type="line"/>
    </contour>
  </outline>
</glyph>
<glyph name="I" format="2">
  <advance width="251"/>
  <unicode hex="0049"/>
  <note>
I
</note>
  <anchor x="126" y="0" name="bottom"/>
  <anchor x="227" y="10" name="ogonek"/>
  <anchor x="126" y="700" name="top"/>
  <anchor x="20" y="700" name="topleft"/>
  <outline>
    <contour>
      <point x="157" y="31" type="curve"/>
      <point x="157" y="669" type="line"/>
      <point x="157" y="687"/>
      <point x="143" y="700"/>
      <point x="126" y="700" type="curve"/>
      <point x="107" y="700"/>
      <point x="94" y="687"/>
      <point x="94" y="669" type="curve"/>
      <point x="94" y="31" type="line"/>
      <point x="94" y="13"/>
      <point x="106" y="0"/>
      <point x="125" y="0" type="curve"/>
      <point x="142" y="0"/>
      <point x="156" y="13"/>
    </contour>
  </outline>
</glyph>
<glyph name="J" format="2">
  <advance width="571.5"/>
  <unicode hex="004A"/>
  <note>
J
</note>
  <anchor x="286" y="0" name="bottom"/>
  <anchor x="447" y="700" name="top"/>
  <outline>
    <contour>
      <point x="260" y="-10" type="curve"/>
      <point x="388" y="-10"/>
      <point x="478" y="80"/>
      <point x="478" y="204" type="curve"/>
      <point x="478" y="670" type="line"/>
      <point x="478" y="687"/>
      <point x="466" y="700"/>
      <point x="447" y="700" type="curve"/>
      <point x="429" y="700"/>
      <point x="415" y="687"/>
      <point x="415" y="670" type="curve"/>
      <point x="415" y="204" type="line"/>
      <point x="415" y="112"/>
      <point x="352" y="50"/>
      <point x="260" y="50" type="curve"/>
      <point x="199" y="50"/>
      <point x="149" y="88"/>
      <point x="124" y="144" type="curve"/>
      <point x="117" y="154"/>
      <point x="108" y="161"/>
      <point x="96" y="161" type="curve" smooth="yes"/>
      <point x="83" y="161"/>
      <point x="66" y="150"/>
      <point x="66" y="133" type="curve" smooth="yes"/>
      <point x="66" y="128"/>
      <point x="68" y="122"/>
      <point x="71" y="117" type="curve"/>
      <point x="106" y="42"/>
      <point x="176" y="-10"/>
    </contour>
  </outline>
</glyph>
<glyph name="K" format="2">
  <advance width="675.25"/>
  <unicode hex="004B"/>
  <note>
K
</note>
  <anchor x="307" y="0" name="bottom"/>
  <anchor x="338" y="700" name="top"/>
  <outline>
    <contour>
      <point x="594" y="-4" type="curve" smooth="yes"/>
      <point x="609" y="-4"/>
      <point x="628" y="7"/>
      <point x="628" y="28" type="curve" smooth="yes"/>
      <point x="628" y="35"/>
      <point x="625" y="43"/>
      <point x="621" y="49" type="curve" smooth="yes"/>
      <point x="335" y="411" type="line"/>
      <point x="288" y="364" type="line"/>
      <point x="572" y="7" type="line" smooth="yes"/>
      <point x="578" y="0"/>
      <point x="586" y="-4"/>
    </contour>
    <contour>
      <point x="583" y="698" type="curve" smooth="yes"/>
      <point x="575" y="698"/>
      <point x="567" y="695"/>
      <point x="561" y="688" type="curve" smooth="yes"/>
      <point x="141" y="291" type="line"/>
      <point x="149" y="223" type="line"/>
      <point x="603" y="648" type="line" smooth="yes"/>
      <point x="609" y="654"/>
      <point x="612" y="661"/>
      <point x="612" y="669" type="curve" smooth="yes"/>
      <point x="612" y="683"/>
      <point x="600" y="698"/>
    </contour>
    <contour>
      <point x="125" y="0" type="curve"/>
      <point x="143" y="0"/>
      <point x="156" y="13"/>
      <point x="157" y="31" type="curve"/>
      <point x="157" y="669" type="line"/>
      <point x="157" y="687"/>
      <point x="144" y="700"/>
      <point x="126" y="700" type="curve"/>
      <point x="107" y="700"/>
      <point x="94" y="687"/>
      <point x="94" y="669" type="curve"/>
      <point x="94" y="31" type="line"/>
      <point x="94" y="13"/>
      <point x="106" y="0"/>
    </contour>
  </outline>
</glyph>
<glyph name="L" format="2">
  <advance width="532"/>
  <unicode hex="004C"/>
  <note>
L
</note>
  <anchor x="285" y="0" name="bottom"/>
  <anchor x="266" y="350" name="center"/>
  <anchor x="116" y="700" name="top"/>
  <anchor x="512" y="700" name="topright"/>
  <outline>
    <contour>
      <point x="481" y="59" type="curve"/>
      <point x="138" y="59" type="line"/>
      <point x="157" y="42" type="line"/>
      <point x="157" y="670" type="line"/>
      <point x="157" y="687"/>
      <point x="143" y="700"/>
      <point x="126" y="700" type="curve"/>
      <point x="107" y="700"/>
      <point x="94" y="687"/>
      <point x="94" y="670" type="curve"/>
      <point x="94" y="30" type="line"/>
      <point x="94" y="13"/>
      <point x="106" y="0"/>
      <point x="124" y="0" type="curve"/>
      <point x="481" y="0" type="line"/>
      <point x="498" y="0"/>
      <point x="511" y="12"/>
      <point x="511" y="30" type="curve"/>
      <point x="511" y="47"/>
      <point x="498" y="59"/>
    </contour>
  </outline>
</glyph>
<glyph name="M" format="2">
  <advance width="826.5"/>
  <unicode hex="004D"/>
  <note>
M
</note>
  <anchor x="414" y="0" name="bottom"/>
  <anchor x="414" y="700" name="top"/>
  <outline>
    <contour>
      <point x="124" y="700" type="curve"/>
      <point x="106" y="700"/>
      <point x="94" y="685"/>
      <point x="94" y="670" type="curve"/>
      <point x="94" y="30" type="line"/>
      <point x="94" y="13"/>
      <point x="106" y="0"/>
      <point x="123" y="0" type="curve"/>
      <point x="140" y="0"/>
      <point x="153" y="13"/>
      <point x="153" y="30" type="curve"/>
      <point x="153" y="624" type="line"/>
      <point x="134" y="611" type="line"/>
      <point x="388" y="224" type="line"/>
      <point x="393" y="217"/>
      <point x="403" y="211"/>
      <point x="412" y="212" type="curve"/>
      <point x="422" y="211"/>
      <point x="430" y="217"/>
      <point x="435" y="224" type="curve"/>
      <point x="688" y="607" type="line"/>
      <point x="670" y="609" type="line"/>
      <point x="670" y="30" type="line"/>
      <point x="670" y="13"/>
      <point x="683" y="0"/>
      <point x="702" y="0" type="curve"/>
      <point x="719" y="0"/>
      <point x="733" y="13"/>
      <point x="733" y="30" type="curve"/>
      <point x="733" y="670" type="line"/>
      <point x="733" y="687"/>
      <point x="720" y="700"/>
      <point x="704" y="700" type="curve"/>
      <point x="694" y="701"/>
      <point x="684" y="696"/>
      <point x="677" y="687" type="curve" smooth="yes"/>
      <point x="400" y="274" type="line"/>
      <point x="427" y="273" type="line"/>
      <point x="151" y="687" type="line" smooth="yes"/>
      <point x="145" y="696"/>
      <point x="133" y="700"/>
    </contour>
  </outline>
</glyph>
<glyph name="N" format="2">
  <advance width="727.5"/>
  <unicode hex="004E"/>
  <note>
N
</note>
  <anchor x="364" y="0" name="bottom"/>
  <anchor x="364" y="700" name="top"/>
  <outline>
    <contour>
      <point x="606" y="700" type="curve"/>
      <point x="590" y="700"/>
      <point x="578" y="688"/>
      <point x="578" y="672" type="curve"/>
      <point x="578" y="77" type="line"/>
      <point x="588" y="95" type="line"/>
      <point x="147" y="689" type="line"/>
      <point x="141" y="697"/>
      <point x="131" y="700"/>
      <point x="123" y="700" type="curve"/>
      <point x="108" y="700"/>
      <point x="94" y="690"/>
      <point x="94" y="670" type="curve"/>
      <point x="94" y="27" type="line"/>
      <point x="94" y="12"/>
      <point x="105" y="0"/>
      <point x="122" y="0" type="curve"/>
      <point x="137" y="0"/>
      <point x="150" y="12"/>
      <point x="150" y="27" type="curve"/>
      <point x="150" y="620" type="line"/>
      <point x="133" y="611" type="line"/>
      <point x="579" y="10" type="line"/>
      <point x="584" y="4"/>
      <point x="594" y="0"/>
      <point x="603" y="0" type="curve"/>
      <point x="620" y="0"/>
      <point x="634" y="12"/>
      <point x="634" y="32" type="curve"/>
      <point x="634" y="672" type="line"/>
      <point x="634" y="688"/>
      <point x="623" y="700"/>
    </contour>
  </outline>
</glyph>
<glyph name="O" format="2">
  <advance width="765.75"/>
  <unicode hex="004F"/>
  <note>
O
</note>
  <anchor x="383" y="0" name="bottom"/>
  <anchor x="383" y="350" name="center"/>
  <anchor x="689" y="10" name="ogonek"/>
  <anchor x="383" y="700" name="top"/>
  <anchor x="20" y="700" name="topleft"/>
  <anchor x="388" y="700" name="topright"/>
  <outline>
    <contour>
      <point x="718" y="350" type="curve"/>
      <point x="718" y="560"/>
      <point x="579" y="710"/>
      <point x="383" y="710" type="curve"/>
      <point x="187" y="710"/>
      <point x="48" y="560"/>
      <point x="48" y="350" type="curve"/>
      <point x="48" y="141"/>
      <point x="187" y="-10"/>
      <point x="383" y="-10" type="curve"/>
      <point x="579" y="-10"/>
      <point x="718" y="141"/>
    </contour>
    <contour>
      <point x="654" y="350" type="curve"/>
      <point x="654" y="173"/>
      <point x="542" y="50"/>
      <point x="383" y="50" type="curve"/>
      <point x="224" y="50"/>
      <point x="112" y="173"/>
      <point x="112" y="350" type="curve"/>
      <point x="112" y="527"/>
      <point x="224" y="650"/>
      <point x="383" y="650" type="curve"/>
      <point x="542" y="650"/>
      <point x="654" y="527"/>
    </contour>
  </outline>
</glyph>
<glyph name="P" format="2">
  <advance width="596.25"/>
  <unicode hex="0050"/>
  <note>
P
</note>
  <anchor x="298" y="0" name="bottom"/>
  <anchor x="128" y="168" name="center"/>
  <anchor x="298" y="700" name="top"/>
  <outline>
    <contour>
      <point x="361" y="700" type="curve" smooth="yes"/>
      <point x="124" y="700" type="line" smooth="yes"/>
      <point x="107" y="700"/>
      <point x="94" y="687"/>
      <point x="94" y="670" type="curve" smooth="yes"/>
      <point x="94" y="30" type="line" smooth="yes"/>
      <point x="94" y="13"/>
      <point x="106" y="0"/>
      <point x="124" y="0" type="curve" smooth="yes"/>
      <point x="141" y="0"/>
      <point x="154" y="13"/>
      <point x="154" y="30" type="curve" smooth="yes"/>
      <point x="154" y="306" type="line"/>
      <point x="149" y="296" type="line"/>
      <point x="361" y="296" type="line" smooth="yes"/>
      <point x="473" y="296"/>
      <point x="553" y="385"/>
      <point x="553" y="501" type="curve" smooth="yes"/>
      <point x="553" y="617"/>
      <point x="473" y="700"/>
    </contour>
    <contour>
      <point x="361" y="354" type="curve" smooth="yes"/>
      <point x="148" y="354" type="line"/>
      <point x="154" y="348" type="line"/>
      <point x="154" y="650" type="line"/>
      <point x="149" y="641" type="line"/>
      <point x="361" y="641" type="line" smooth="yes"/>
      <point x="439" y="641"/>
      <point x="491" y="583"/>
      <point x="491" y="501" type="curve" smooth="yes"/>
      <point x="491" y="418"/>
      <point x="439" y="354"/>
    </contour>
  </outline>
</glyph>
<glyph name="Q" format="2">
  <advance width="775.25"/>
  <unicode hex="0051"/>
  <note>
Q
</note>
  <anchor x="388" y="0" name="bottom"/>
  <anchor x="388" y="700" name="top"/>
  <outline>
    <contour>
      <point x="766" y="-56" type="curve"/>
      <point x="749" y="-56"/>
      <point x="738" y="-74"/>
      <point x="718" y="-86" type="curve" smooth="yes"/>
      <point x="697" y="-99"/>
      <point x="664" y="-118"/>
      <point x="612" y="-118" type="curve"/>
      <point x="494" y="-118"/>
      <point x="442" y="-36"/>
      <point x="331" y="-36" type="curve"/>
      <point x="318" y="-50" type="line"/>
      <point x="477" y="4" type="line"/>
      <point x="385" y="7" type="line"/>
      <point x="213" y="-55" type="line"/>
      <point x="202" y="-59"/>
      <point x="196" y="-69"/>
      <point x="196" y="-81" type="curve"/>
      <point x="196" y="-97"/>
      <point x="209" y="-111"/>
      <point x="225" y="-111" type="curve"/>
      <point x="250" y="-111"/>
      <point x="269" y="-88"/>
      <point x="306" y="-88" type="curve"/>
      <point x="419" y="-88"/>
      <point x="451" y="-174"/>
      <point x="610" y="-174" type="curve"/>
      <point x="685" y="-174"/>
      <point x="793" y="-129"/>
      <point x="793" y="-83" type="curve"/>
      <point x="793" y="-68"/>
      <point x="781" y="-56"/>
    </contour>
    <contour>
      <point x="718" y="350" type="curve"/>
      <point x="718" y="560"/>
      <point x="579" y="710"/>
      <point x="383" y="710" type="curve"/>
      <point x="187" y="710"/>
      <point x="48" y="560"/>
      <point x="48" y="350" type="curve"/>
      <point x="48" y="141"/>
      <point x="187" y="-10"/>
      <point x="383" y="-10" type="curve"/>
      <point x="579" y="-10"/>
      <point x="718" y="141"/>
    </contour>
    <contour>
      <point x="654" y="350" type="curve"/>
      <point x="654" y="173"/>
      <point x="542" y="50"/>
      <point x="383" y="50" type="curve"/>
      <point x="224" y="50"/>
      <point x="112" y="173"/>
      <point x="112" y="350" type="curve"/>
      <point x="112" y="527"/>
      <point x="224" y="650"/>
      <point x="383" y="650" type="curve"/>
      <point x="542" y="650"/>
      <point x="654" y="527"/>
    </contour>
  </outline>
</glyph>
<glyph name="R" format="2">
  <advance width="669.75"/>
  <unicode hex="0052"/>
  <note>
R
</note>
  <anchor x="331" y="0" name="bottom"/>
  <anchor x="331" y="700" name="top"/>
  <outline>
    <contour>
      <point x="128" y="0" type="curve"/>
      <point x="145" y="0"/>
      <point x="157" y="13"/>
      <point x="157" y="30" type="curve"/>
      <point x="157" y="313" type="line"/>
      <point x="146" y="299" type="line"/>
      <point x="379" y="299" type="line"/>
      <point x="437" y="299"/>
      <point x="511" y="276"/>
      <point x="511" y="172" type="curve"/>
      <point x="511" y="55"/>
      <point x="544" y="22"/>
      <point x="573" y="5" type="curve"/>
      <point x="587" y="-3"/>
      <point x="608" y="0"/>
      <point x="616" y="16" type="curve"/>
      <point x="624" y="29"/>
      <point x="618" y="46"/>
      <point x="605" y="54" type="curve"/>
      <point x="583" y="67"/>
      <point x="574" y="91"/>
      <point x="572" y="176" type="curve"/>
      <point x="571" y="275"/>
      <point x="505" y="334"/>
      <point x="431" y="341" type="curve"/>
      <point x="466" y="330" type="line"/>
      <point x="539" y="353"/>
      <point x="592" y="423"/>
      <point x="592" y="511" type="curve"/>
      <point x="592" y="620"/>
      <point x="509" y="700"/>
      <point x="394" y="700" type="curve"/>
      <point x="124" y="700" type="line"/>
      <point x="107" y="700"/>
      <point x="94" y="687"/>
      <point x="94" y="670" type="curve"/>
      <point x="94" y="30" type="line"/>
      <point x="94" y="13"/>
      <point x="109" y="0"/>
    </contour>
    <contour>
      <point x="146" y="354" type="line"/>
      <point x="157" y="340" type="line"/>
      <point x="157" y="655" type="line"/>
      <point x="150" y="641" type="line"/>
      <point x="389" y="641" type="line"/>
      <point x="472" y="641"/>
      <point x="528" y="584"/>
      <point x="528" y="509" type="curve"/>
      <point x="528" y="418"/>
      <point x="465" y="360"/>
      <point x="397" y="354" type="curve"/>
    </contour>
  </outline>
</glyph>
<glyph name="S" format="2">
  <advance width="561.75"/>
  <unicode hex="0053"/>
  <note>
S
</note>
  <anchor x="281" y="0" name="bottom"/>
  <anchor x="281" y="700" name="top"/>
  <outline>
    <contour>
      <point x="287" y="-10" type="curve"/>
      <point x="421" y="-9"/>
      <point x="514" y="71"/>
      <point x="514" y="172" type="curve"/>
      <point x="514" y="312"/>
      <point x="413" y="350"/>
      <point x="296" y="384" type="curve" smooth="yes"/>
      <point x="207" y="412"/>
      <point x="126" y="445"/>
      <point x="126" y="530" type="curve"/>
      <point x="126" y="606"/>
      <point x="196" y="651"/>
      <point x="291" y="651" type="curve"/>
      <point x="358" y="651"/>
      <point x="422" y="621"/>
      <point x="457" y="579" type="curve"/>
      <point x="462" y="574"/>
      <point x="468" y="572"/>
      <point x="474" y="572" type="curve"/>
      <point x="490" y="572"/>
      <point x="506" y="587"/>
      <point x="506" y="602" type="curve"/>
      <point x="506" y="610"/>
      <point x="501" y="620"/>
      <point x="491" y="631" type="curve"/>
      <point x="448" y="682"/>
      <point x="370" y="710"/>
      <point x="291" y="710" type="curve"/>
      <point x="155" y="710"/>
      <point x="64" y="634"/>
      <point x="64" y="528" type="curve"/>
      <point x="64" y="403"/>
      <point x="159" y="360"/>
      <point x="269" y="327" type="curve" smooth="yes"/>
      <point x="368" y="296"/>
      <point x="450" y="263"/>
      <point x="451" y="172" type="curve"/>
      <point x="451" y="98"/>
      <point x="379" y="49"/>
      <point x="284" y="49" type="curve"/>
      <point x="208" y="49"/>
      <point x="141" y="78"/>
      <point x="89" y="135" type="curve"/>
      <point x="82" y="142"/>
      <point x="75" y="145"/>
      <point x="67" y="145" type="curve"/>
      <point x="51" y="145"/>
      <point x="36" y="128"/>
      <point x="36" y="113" type="curve"/>
      <point x="36" y="102"/>
      <point x="41" y="95"/>
      <point x="48" y="89" type="curve"/>
      <point x="116" y="22"/>
      <point x="186" y="-11"/>
    </contour>
  </outline>
</glyph>
<glyph name="T" format="2">
  <advance width="603.5"/>
  <unicode hex="0054"/>
  <note>
T
</note>
  <anchor x="302" y="0" name="bottom"/>
  <anchor x="302" y="350" name="center"/>
  <anchor x="302" y="700" name="top"/>
  <outline>
    <contour>
      <point x="302" y="0" type="curve" smooth="yes"/>
      <point x="319" y="0"/>
      <point x="333" y="13"/>
      <point x="333" y="30" type="curve" smooth="yes"/>
      <point x="333" y="667" type="line"/>
      <point x="271" y="667" type="line"/>
      <point x="271" y="30" type="line" smooth="yes"/>
      <point x="271" y="13"/>
      <point x="283" y="0"/>
    </contour>
    <contour>
      <point x="64" y="643" type="curve" smooth="yes"/>
      <point x="540" y="643" type="line" smooth="yes"/>
      <point x="557" y="643"/>
      <point x="570" y="654"/>
      <point x="570" y="671" type="curve" smooth="yes"/>
      <point x="570" y="688"/>
      <point x="557" y="700"/>
      <point x="540" y="700" type="curve" smooth="yes"/>
      <point x="64" y="700" type="line" smooth="yes"/>
      <point x="47" y="700"/>
      <point x="34" y="688"/>
      <point x="34" y="672" type="curve" smooth="yes"/>
      <point x="34" y="655"/>
      <point x="47" y="643"/>
    </contour>
  </outline>
</glyph>
<glyph name="U" format="2">
  <advance width="712.5"/>
  <unicode hex="0055"/>
  <note>
U
</note>
  <anchor x="357" y="0" name="bottom"/>
  <anchor x="641" y="10" name="ogonek"/>
  <anchor x="357" y="700" name="top"/>
  <anchor x="512" y="701" name="topright"/>
  <outline>
    <contour>
      <point x="589" y="700" type="curve"/>
      <point x="572" y="700"/>
      <point x="560" y="687"/>
      <point x="560" y="670" type="curve"/>
      <point x="560" y="256" type="line"/>
      <point x="560" y="141"/>
      <point x="468" y="51"/>
      <point x="357" y="51" type="curve"/>
      <point x="247" y="51"/>
      <point x="156" y="141"/>
      <point x="156" y="256" type="curve"/>
      <point x="156" y="670" type="line"/>
      <point x="156" y="687"/>
      <point x="142" y="700"/>
      <point x="126" y="700" type="curve"/>
      <point x="106" y="700"/>
      <point x="94" y="687"/>
      <point x="94" y="670" type="curve"/>
      <point x="94" y="256" type="line"/>
      <point x="94" y="107"/>
      <point x="209" y="-9"/>
      <point x="357" y="-9" type="curve"/>
      <point x="503" y="-9"/>
      <point x="619" y="107"/>
      <point x="619" y="256" type="curve"/>
      <point x="619" y="670" type="line"/>
      <point x="619" y="687"/>
      <point x="607" y="700"/>
    </contour>
  </outline>
</glyph>
<glyph name="V" format="2">
  <advance width="664.5"/>
  <unicode hex="0056"/>
  <note>
V
</note>
  <anchor x="332" y="0" name="bottom"/>
  <anchor x="332" y="700" name="top"/>
  <outline>
    <contour>
      <point x="600" y="701" type="curve" smooth="yes"/>
      <point x="589" y="701"/>
      <point x="578" y="693"/>
      <point x="572" y="681" type="curve"/>
      <point x="326" y="81" type="line"/>
      <point x="344" y="81" type="line"/>
      <point x="94" y="679" type="line"/>
      <point x="88" y="694"/>
      <point x="77" y="701"/>
      <point x="64" y="701" type="curve" smooth="yes"/>
      <point x="50" y="701"/>
      <point x="35" y="690"/>
      <point x="35" y="672" type="curve" smooth="yes"/>
      <point x="35" y="666"/>
      <point x="36" y="660"/>
      <point x="38" y="656" type="curve"/>
      <point x="304" y="19" type="line"/>
      <point x="309" y="7"/>
      <point x="320" y="0"/>
      <point x="332" y="0" type="curve"/>
      <point x="343" y="0"/>
      <point x="355" y="7"/>
      <point x="361" y="20" type="curve"/>
      <point x="628" y="658" type="line"/>
      <point x="630" y="663"/>
      <point x="631" y="668"/>
      <point x="631" y="673" type="curve" smooth="yes"/>
      <point x="631" y="688"/>
      <point x="618" y="701"/>
    </contour>
  </outline>
</glyph>
<glyph name="W" format="2">
  <advance width="966.25"/>
  <unicode hex="0057"/>
  <note>
W
</note>
  <anchor x="483" y="0" name="bottom"/>
  <anchor x="483" y="700" name="top"/>
  <outline>
    <contour>
      <point x="904" y="702" type="curve" smooth="yes"/>
      <point x="889" y="702"/>
      <point x="879" y="695"/>
      <point x="874" y="683" type="curve" smooth="yes"/>
      <point x="674" y="94" type="line"/>
      <point x="685" y="98" type="line"/>
      <point x="513" y="530" type="line" smooth="yes"/>
      <point x="508" y="542"/>
      <point x="497" y="550"/>
      <point x="484" y="549" type="curve"/>
      <point x="471" y="550"/>
      <point x="461" y="542"/>
      <point x="456" y="530" type="curve" smooth="yes"/>
      <point x="282" y="96" type="line"/>
      <point x="293" y="97" type="line"/>
      <point x="92" y="683" type="line" smooth="yes"/>
      <point x="88" y="695"/>
      <point x="76" y="702"/>
      <point x="63" y="702" type="curve" smooth="yes"/>
      <point x="48" y="702"/>
      <point x="30" y="691"/>
      <point x="30" y="671" type="curve" smooth="yes"/>
      <point x="30" y="668"/>
      <point x="31" y="663"/>
      <point x="33" y="659" type="curve" smooth="yes"/>
      <point x="254" y="19" type="line" smooth="yes"/>
      <point x="257" y="7"/>
      <point x="269" y="0"/>
      <point x="280" y="0" type="curve"/>
      <point x="292" y="0"/>
      <point x="304" y="6"/>
      <point x="310" y="19" type="curve" smooth="yes"/>
      <point x="487" y="455" type="line"/>
      <point x="479" y="457" type="line"/>
      <point x="656" y="19" type="line" smooth="yes"/>
      <point x="661" y="6"/>
      <point x="673" y="0"/>
      <point x="686" y="0" type="curve"/>
      <point x="697" y="0"/>
      <point x="709" y="7"/>
      <point x="713" y="19" type="curve" smooth="yes"/>
      <point x="934" y="659" type="line" smooth="yes"/>
      <point x="935" y="663"/>
      <point x="936" y="669"/>
      <point x="936" y="672" type="curve" smooth="yes"/>
      <point x="936" y="692"/>
      <point x="921" y="702"/>
    </contour>
  </outline>
</glyph>
<glyph name="X" format="2">
  <advance width="605.5"/>
  <unicode hex="0058"/>
  <note>
X
</note>
  <anchor x="303" y="0" name="bottom"/>
  <anchor x="303" y="700" name="top"/>
  <outline>
    <contour>
      <point x="543" y="703" type="curve" smooth="yes"/>
      <point x="534" y="703"/>
      <point x="526" y="698"/>
      <point x="519" y="690" type="curve" smooth="yes"/>
      <point x="302" y="394" type="line"/>
      <point x="335" y="345" type="line"/>
      <point x="565" y="658" type="line" smooth="yes"/>
      <point x="569" y="664"/>
      <point x="572" y="671"/>
      <point x="572" y="677" type="curve" smooth="yes"/>
      <point x="572" y="692"/>
      <point x="559" y="703"/>
    </contour>
    <contour>
      <point x="65" y="703" type="curve" smooth="yes"/>
      <point x="49" y="703"/>
      <point x="34" y="690"/>
      <point x="34" y="673" type="curve" smooth="yes"/>
      <point x="34" y="667"/>
      <point x="36" y="661"/>
      <point x="41" y="655" type="curve" smooth="yes"/>
      <point x="517" y="9" type="line" smooth="yes"/>
      <point x="523" y="0"/>
      <point x="532" y="-4"/>
      <point x="541" y="-4" type="curve" smooth="yes"/>
      <point x="556" y="-4"/>
      <point x="572" y="8"/>
      <point x="572" y="27" type="curve" smooth="yes"/>
      <point x="572" y="33"/>
      <point x="569" y="39"/>
      <point x="565" y="45" type="curve" smooth="yes"/>
      <point x="90" y="691" type="line" smooth="yes"/>
      <point x="83" y="699"/>
      <point x="74" y="703"/>
    </contour>
    <contour>
      <point x="62" y="-4" type="curve" smooth="yes"/>
      <point x="72" y="-4"/>
      <point x="80" y="1"/>
      <point x="86" y="10" type="curve" smooth="yes"/>
      <point x="304" y="306" type="line"/>
      <point x="272" y="356" type="line"/>
      <point x="42" y="43" type="line" smooth="yes"/>
      <point x="37" y="36"/>
      <point x="35" y="29"/>
      <point x="35" y="23" type="curve" smooth="yes"/>
      <point x="35" y="11"/>
      <point x="45" y="-4"/>
    </contour>
  </outline>
</glyph>
<glyph name="Y" format="2">
  <advance width="559.25"/>
  <unicode hex="0059"/>
  <note>
Y
</note>
  <anchor x="281" y="0" name="bottom"/>
  <anchor x="280" y="700" name="top"/>
  <anchor x="20" y="700" name="topleft"/>
  <outline>
    <contour>
      <point x="511" y="704" type="curve" smooth="yes"/>
      <point x="501" y="704"/>
      <point x="492" y="699"/>
      <point x="485" y="690" type="curve" smooth="yes"/>
      <point x="276" y="399" type="line"/>
      <point x="291" y="397" type="line"/>
      <point x="76" y="690" type="line" smooth="yes"/>
      <point x="70" y="699"/>
      <point x="60" y="704"/>
      <point x="51" y="704" type="curve" smooth="yes"/>
      <point x="36" y="704"/>
      <point x="19" y="691"/>
      <point x="19" y="674" type="curve" smooth="yes"/>
      <point x="19" y="667"/>
      <point x="21" y="660"/>
      <point x="27" y="653" type="curve" smooth="yes"/>
      <point x="256" y="340" type="line"/>
      <point x="251" y="364" type="line"/>
      <point x="251" y="30" type="line"/>
      <point x="251" y="13"/>
      <point x="263" y="0"/>
      <point x="281" y="0" type="curve"/>
      <point x="298" y="0"/>
      <point x="312" y="13"/>
      <point x="312" y="30" type="curve"/>
      <point x="312" y="371" type="line"/>
      <point x="300" y="332" type="line"/>
      <point x="535" y="655" type="line" smooth="yes"/>
      <point x="538" y="661"/>
      <point x="541" y="667"/>
      <point x="541" y="674" type="curve" smooth="yes"/>
      <point x="541" y="688"/>
      <point x="528" y="704"/>
    </contour>
  </outline>
</glyph>
<glyph name="Z" format="2">
  <advance width="644.25"/>
  <unicode hex="005A"/>
  <note>
Z
</note>
  <anchor x="323" y="0" name="bottom"/>
  <anchor x="323" y="700" name="top"/>
  <outline>
    <contour>
      <point x="565" y="700" type="curve" smooth="yes"/>
      <point x="110" y="700" type="line" smooth="yes"/>
      <point x="93" y="700"/>
      <point x="80" y="688"/>
      <point x="80" y="672" type="curve" smooth="yes"/>
      <point x="80" y="655"/>
      <point x="93" y="643"/>
      <point x="110" y="643" type="curve" smooth="yes"/>
      <point x="519" y="643" type="line"/>
      <point x="513" y="647" type="line"/>
      <point x="60" y="49" type="line" smooth="yes"/>
      <point x="56" y="43"/>
      <point x="54" y="37"/>
      <point x="54" y="31" type="curve" smooth="yes"/>
      <point x="54" y="16"/>
      <point x="66" y="0"/>
      <point x="85" y="0" type="curve" smooth="yes"/>
      <point x="564" y="0" type="line" smooth="yes"/>
      <point x="581" y="0"/>
      <point x="594" y="12"/>
      <point x="594" y="29" type="curve" smooth="yes"/>
      <point x="594" y="44"/>
      <point x="581" y="57"/>
      <point x="564" y="57" type="curve" smooth="yes"/>
      <point x="135" y="57" type="line"/>
      <point x="137" y="49" type="line"/>
      <point x="592" y="652" type="line" smooth="yes"/>
      <point x="596" y="658"/>
      <point x="598" y="664"/>
      <point x="598" y="670" type="curve" smooth="yes"/>
      <point x="598" y="686"/>
      <point x="585" y="700"/>
    </contour>
  </outline>
</glyph>
<glyph name="bracketleft" format="2">
  <advance width="396.5"/>
  <unicode hex="005B"/>
  <note>
bracketleft
</note>
  <outline>
    <contour>
      <point x="107" y="-190" type="curve" smooth="yes"/>
      <point x="335" y="-190" type="line" smooth="yes"/>
      <point x="350" y="-190"/>
      <point x="362" y="-178"/>
      <point x="362" y="-164" type="curve" smooth="yes"/>
      <point x="362" y="-149"/>
      <point x="350" y="-136"/>
      <point x="335" y="-136" type="curve" smooth="yes"/>
      <point x="131" y="-136" type="line"/>
      <point x="139" y="-149" type="line"/>
      <point x="139" y="655" type="line"/>
      <point x="130" y="648" type="line"/>
      <point x="335" y="648" type="line" smooth="yes"/>
      <point x="350" y="648"/>
      <point x="362" y="659"/>
      <point x="362" y="674" type="curve" smooth="yes"/>
      <point x="362" y="689"/>
      <point x="350" y="700"/>
      <point x="335" y="700" type="curve" smooth="yes"/>
      <point x="107" y="700" type="line" smooth="yes"/>
      <point x="92" y="700"/>
      <point x="80" y="688"/>
      <point x="80" y="673" type="curve" smooth="yes"/>
      <point x="80" y="-163" type="line" smooth="yes"/>
      <point x="80" y="-178"/>
      <point x="92" y="-190"/>
    </contour>
  </outline>
</glyph>
<glyph name="backslash" format="2">
  <advance width="523"/>
  <unicode hex="005C"/>
  <note>
backslash
</note>
  <outline>
    <contour>
      <point x="487" y="-133" type="curve" smooth="yes"/>
      <point x="500" y="-133"/>
      <point x="515" y="-124"/>
      <point x="515" y="-108" type="curve" smooth="yes"/>
      <point x="515" y="-103"/>
      <point x="514" y="-98"/>
      <point x="512" y="-93" type="curve" smooth="yes"/>
      <point x="70" y="781" type="line" smooth="yes"/>
      <point x="64" y="794"/>
      <point x="59" y="803"/>
      <point x="38" y="803" type="curve" smooth="yes"/>
      <point x="24" y="803"/>
      <point x="11" y="792"/>
      <point x="11" y="778" type="curve" smooth="yes"/>
      <point x="11" y="773"/>
      <point x="12" y="768"/>
      <point x="15" y="762" type="curve" smooth="yes"/>
      <point x="456" y="-112" type="line" smooth="yes"/>
      <point x="462" y="-124"/>
      <point x="470" y="-133"/>
    </contour>
  </outline>
</glyph>
<glyph name="bracketright" format="2">
  <advance width="396.5"/>
  <unicode hex="005D"/>
  <note>
bracketright
</note>
  <outline>
    <contour>
      <point x="290" y="700" type="curve" smooth="yes"/>
      <point x="62" y="700" type="line" smooth="yes"/>
      <point x="47" y="700"/>
      <point x="35" y="688"/>
      <point x="35" y="674" type="curve" smooth="yes"/>
      <point x="35" y="659"/>
      <point x="47" y="646"/>
      <point x="62" y="646" type="curve" smooth="yes"/>
      <point x="265" y="646" type="line"/>
      <point x="258" y="659" type="line"/>
      <point x="258" y="-145" type="line"/>
      <point x="267" y="-138" type="line"/>
      <point x="62" y="-138" type="line" smooth="yes"/>
      <point x="47" y="-138"/>
      <point x="35" y="-149"/>
      <point x="35" y="-164" type="curve" smooth="yes"/>
      <point x="35" y="-179"/>
      <point x="47" y="-190"/>
      <point x="62" y="-190" type="curve" smooth="yes"/>
      <point x="290" y="-190" type="line" smooth="yes"/>
      <point x="305" y="-190"/>
      <point x="317" y="-178"/>
      <point x="317" y="-163" type="curve" smooth="yes"/>
      <point x="317" y="673" type="line" smooth="yes"/>
      <point x="317" y="688"/>
      <point x="305" y="700"/>
    </contour>
  </outline>
</glyph>
<glyph name="asciicircum" format="2">
  <advance width="517.5"/>
  <unicode hex="005E"/>
  <note>
asciicircum
</note>
  <outline>
    <contour>
      <point x="86" y="396" type="curve" smooth="yes"/>
      <point x="101" y="396"/>
      <point x="110" y="403"/>
      <point x="118" y="417" type="curve" smooth="yes"/>
      <point x="267" y="689" type="line"/>
      <point x="252" y="688" type="line"/>
      <point x="399" y="417" type="line" smooth="yes"/>
      <point x="406" y="403"/>
      <point x="416" y="396"/>
      <point x="430" y="396" type="curve" smooth="yes"/>
      <point x="448" y="396"/>
      <point x="460" y="410"/>
      <point x="460" y="426" type="curve" smooth="yes"/>
      <point x="460" y="433"/>
      <point x="457" y="440"/>
      <point x="453" y="447" type="curve" smooth="yes"/>
      <point x="299" y="725" type="line" smooth="yes"/>
      <point x="289" y="742"/>
      <point x="279" y="749"/>
      <point x="259" y="749" type="curve"/>
      <point x="241" y="749"/>
      <point x="229" y="743"/>
      <point x="219" y="725" type="curve" smooth="yes"/>
      <point x="65" y="448" type="line" smooth="yes"/>
      <point x="60" y="440"/>
      <point x="57" y="433"/>
      <point x="57" y="426" type="curve" smooth="yes"/>
      <point x="57" y="409"/>
      <point x="70" y="396"/>
    </contour>
  </outline>
</glyph>
<glyph name="underscore" format="2">
  <advance width="666.5"/>
  <unicode hex="005F"/>
  <note>
underscore
</note>
  <outline>
    <contour>
      <point x="86" y="-160" type="curve" smooth="yes"/>
      <point x="581" y="-160" type="line" smooth="yes"/>
      <point x="597" y="-160"/>
      <point x="609" y="-149"/>
      <point x="609" y="-134" type="curve" smooth="yes"/>
      <point x="609" y="-117"/>
      <point x="597" y="-107"/>
      <point x="581" y="-107" type="curve" smooth="yes"/>
      <point x="86" y="-107" type="line" smooth="yes"/>
      <point x="69" y="-107"/>
      <point x="58" y="-117"/>
      <point x="58" y="-133" type="curve" smooth="yes"/>
      <point x="58" y="-148"/>
      <point x="69" y="-160"/>
    </contour>
  </outline>
</glyph>
<glyph name="grave" format="2">
  <advance width="226"/>
  <unicode hex="0060"/>
  <anchor x="160" y="515" name="_top"/>
  <outline>
    <contour>
      <point x="159" y="566" type="curve" smooth="yes"/>
      <point x="170" y="566"/>
      <point x="178" y="574"/>
      <point x="178" y="584" type="curve" smooth="yes"/>
      <point x="178" y="589"/>
      <point x="175" y="594"/>
      <point x="170" y="600" type="curve" smooth="yes"/>
      <point x="102" y="689" type="line" smooth="yes"/>
      <point x="96" y="697"/>
      <point x="86" y="706"/>
      <point x="71" y="706" type="curve" smooth="yes"/>
      <point x="54" y="706"/>
      <point x="41" y="696"/>
      <point x="41" y="677" type="curve" smooth="yes"/>
      <point x="41" y="666"/>
      <point x="46" y="658"/>
      <point x="55" y="651" type="curve" smooth="yes"/>
      <point x="134" y="578" type="line" smooth="yes"/>
      <point x="141" y="572"/>
      <point x="150" y="566"/>
    </contour>
  </outline>
</glyph>
<glyph name="a" format="2">
  <advance width="602"/>
  <unicode hex="0061"/>
  <note>
a
</note>
  <anchor x="287" y="0" name="bottom"/>
  <anchor x="541" y="8" name="ogonek"/>
  <anchor x="292" y="503" name="top"/>
  <outline>
    <contour>
      <point x="494" y="511" type="curve"/>
      <point x="476" y="511"/>
      <point x="464" y="497"/>
      <point x="464" y="480" type="curve"/>
      <point x="464" y="353" type="line"/>
      <point x="485" y="338" type="line"/>
      <point x="485" y="436"/>
      <point x="394" y="523"/>
      <point x="279" y="523" type="curve"/>
      <point x="147" y="523"/>
      <point x="45" y="412"/>
      <point x="45" y="258" type="curve"/>
      <point x="45" y="104"/>
      <point x="145" y="-10"/>
      <point x="280" y="-10" type="curve"/>
      <point x="393" y="-10"/>
      <point x="481" y="84"/>
      <point x="481" y="157" type="curve"/>
      <point x="464" y="149" type="line"/>
      <point x="464" y="30" type="line"/>
      <point x="464" y="13"/>
      <point x="476" y="0"/>
      <point x="494" y="0" type="curve"/>
      <point x="511" y="0"/>
      <point x="524" y="13"/>
      <point x="524" y="30" type="curve"/>
      <point x="524" y="480" type="line"/>
      <point x="524" y="498"/>
      <point x="511" y="511"/>
    </contour>
    <contour>
      <point x="286" y="46" type="curve"/>
      <point x="179" y="46"/>
      <point x="104" y="137"/>
      <point x="104" y="258" type="curve"/>
      <point x="104" y="379"/>
      <point x="181" y="467"/>
      <point x="286" y="467" type="curve"/>
      <point x="392" y="467"/>
      <point x="468" y="375"/>
      <point x="468" y="258" type="curve"/>
      <point x="468" y="137"/>
      <point x="392" y="46"/>
    </contour>
  </outline>
</glyph>
<glyph name="b" format="2">
  <advance width="601"/>
  <unicode hex="0062"/>
  <note>
b
</note>
  <anchor x="302" y="0" name="bottom"/>
  <anchor x="302" y="503" name="top"/>
  <outline>
    <contour>
      <point x="322" y="523" type="curve"/>
      <point x="232" y="523"/>
      <point x="152" y="464"/>
      <point x="125" y="382" type="curve"/>
      <point x="139" y="374" type="line"/>
      <point x="139" y="709" type="line"/>
      <point x="139" y="726"/>
      <point x="126" y="739"/>
      <point x="109" y="739" type="curve"/>
      <point x="91" y="739"/>
      <point x="79" y="726"/>
      <point x="79" y="709" type="curve"/>
      <point x="79" y="28" type="line"/>
      <point x="79" y="11"/>
      <point x="92" y="-3"/>
      <point x="109" y="-3" type="curve"/>
      <point x="126" y="-3"/>
      <point x="139" y="11"/>
      <point x="139" y="28" type="curve"/>
      <point x="139" y="141" type="line"/>
      <point x="121" y="128" type="line"/>
      <point x="153" y="52"/>
      <point x="229" y="-10"/>
      <point x="323" y="-10" type="curve"/>
      <point x="456" y="-10"/>
      <point x="557" y="105"/>
      <point x="557" y="258" type="curve"/>
      <point x="557" y="412"/>
      <point x="456" y="523"/>
    </contour>
    <contour>
      <point x="317" y="467" type="curve"/>
      <point x="422" y="467"/>
      <point x="499" y="379"/>
      <point x="499" y="258" type="curve"/>
      <point x="499" y="138"/>
      <point x="422" y="46"/>
      <point x="317" y="46" type="curve"/>
      <point x="209" y="46"/>
      <point x="134" y="137"/>
      <point x="134" y="258" type="curve"/>
      <point x="134" y="380"/>
      <point x="209" y="467"/>
    </contour>
  </outline>
</glyph>
<glyph name="c" format="2">
  <advance width="513.5"/>
  <unicode hex="0063"/>
  <note>
c
</note>
  <anchor x="257" y="0" name="bottom"/>
  <anchor x="297" y="503" name="top"/>
  <outline>
    <contour>
      <point x="300" y="523" type="curve"/>
      <point x="147" y="523"/>
      <point x="45" y="402"/>
      <point x="45" y="257" type="curve"/>
      <point x="45" y="104"/>
      <point x="146" y="-10"/>
      <point x="295" y="-10" type="curve"/>
      <point x="403" y="-10"/>
      <point x="478" y="42"/>
      <point x="478" y="74" type="curve" smooth="yes"/>
      <point x="478" y="90"/>
      <point x="468" y="101"/>
      <point x="452" y="101" type="curve"/>
      <point x="433" y="101"/>
      <point x="427" y="84"/>
      <point x="401" y="69" type="curve" smooth="yes"/>
      <point x="380" y="58"/>
      <point x="355" y="46"/>
      <point x="301" y="46" type="curve"/>
      <point x="185" y="46"/>
      <point x="105" y="136"/>
      <point x="105" y="257" type="curve"/>
      <point x="105" y="375"/>
      <point x="191" y="467"/>
      <point x="303" y="467" type="curve" smooth="yes"/>
      <point x="343" y="467"/>
      <point x="377" y="459"/>
      <point x="395" y="451" type="curve" smooth="yes"/>
      <point x="423" y="436"/>
      <point x="425" y="416"/>
      <point x="451" y="416" type="curve"/>
      <point x="466" y="416"/>
      <point x="477" y="431"/>
      <point x="477" y="445" type="curve"/>
      <point x="477" y="487"/>
      <point x="395" y="523"/>
    </contour>
  </outline>
</glyph>
<glyph name="d" format="2">
  <advance width="602"/>
  <unicode hex="0064"/>
  <note>
d
</note>
  <anchor x="302" y="0" name="bottom"/>
  <anchor x="470" y="614" name="center"/>
  <anchor x="302" y="503" name="top"/>
  <anchor x="582" y="503" name="topright"/>
  <outline>
    <contour>
      <point x="494" y="740" type="curve"/>
      <point x="476" y="740"/>
      <point x="464" y="727"/>
      <point x="464" y="710" type="curve"/>
      <point x="464" y="353" type="line"/>
      <point x="485" y="338" type="line"/>
      <point x="485" y="436"/>
      <point x="390" y="523"/>
      <point x="279" y="523" type="curve"/>
      <point x="147" y="523"/>
      <point x="45" y="410"/>
      <point x="45" y="257" type="curve"/>
      <point x="45" y="103"/>
      <point x="147" y="-10"/>
      <point x="280" y="-10" type="curve"/>
      <point x="394" y="-10"/>
      <point x="481" y="86"/>
      <point x="481" y="163" type="curve"/>
      <point x="464" y="149" type="line"/>
      <point x="464" y="30" type="line"/>
      <point x="464" y="13"/>
      <point x="476" y="0"/>
      <point x="494" y="0" type="curve"/>
      <point x="511" y="0"/>
      <point x="524" y="13"/>
      <point x="524" y="30" type="curve"/>
      <point x="524" y="710" type="line"/>
      <point x="524" y="727"/>
      <point x="511" y="740"/>
    </contour>
    <contour>
      <point x="286" y="46" type="curve"/>
      <point x="181" y="46"/>
      <point x="104" y="136"/>
      <point x="104" y="257" type="curve"/>
      <point x="104" y="377"/>
      <point x="181" y="467"/>
      <point x="286" y="467" type="curve"/>
      <point x="392" y="467"/>
      <point x="468" y="377"/>
      <point x="468" y="257" type="curve"/>
      <point x="468" y="135"/>
      <point x="392" y="46"/>
    </contour>
  </outline>
</glyph>
<glyph name="e" format="2">
  <advance width="555"/>
  <unicode hex="0065"/>
  <note>
e
</note>
  <anchor x="278" y="0" name="bottom"/>
  <anchor x="500" y="10" name="ogonek"/>
  <anchor x="283" y="503" name="top"/>
  <outline>
    <contour>
      <point x="306" y="-10" type="curve"/>
      <point x="382" y="-10"/>
      <point x="449" y="31"/>
      <point x="489" y="79" type="curve"/>
      <point x="496" y="86"/>
      <point x="499" y="93"/>
      <point x="499" y="100" type="curve" smooth="yes"/>
      <point x="499" y="113"/>
      <point x="487" y="126"/>
      <point x="473" y="126" type="curve" smooth="yes"/>
      <point x="465" y="126"/>
      <point x="459" y="123"/>
      <point x="452" y="117" type="curve"/>
      <point x="424" y="80"/>
      <point x="373" y="46"/>
      <point x="305" y="46" type="curve"/>
      <point x="178" y="46"/>
      <point x="103" y="138"/>
      <point x="103" y="257" type="curve"/>
      <point x="103" y="402"/>
      <point x="198" y="465"/>
      <point x="279" y="465" type="curve"/>
      <point x="358" y="465"/>
      <point x="439" y="412"/>
      <point x="449" y="318" type="curve"/>
      <point x="449" y="298" type="line"/>
      <point x="462" y="310" type="line"/>
      <point x="68" y="310" type="line"/>
      <point x="80" y="256" type="line"/>
      <point x="481" y="256" type="line"/>
      <point x="497" y="256"/>
      <point x="511" y="269"/>
      <point x="511" y="285" type="curve"/>
      <point x="508" y="438"/>
      <point x="397" y="523"/>
      <point x="279" y="523" type="curve"/>
      <point x="159" y="523"/>
      <point x="45" y="423"/>
      <point x="45" y="253" type="curve"/>
      <point x="45" y="96"/>
      <point x="151" y="-10"/>
    </contour>
  </outline>
</glyph>
<glyph name="f" format="2">
  <advance width="353.25"/>
  <unicode hex="0066"/>
  <note>
f
</note>
  <anchor x="177" y="0" name="bottom"/>
  <anchor x="177" y="503" name="top"/>
  <outline>
    <contour>
      <point x="264" y="736" type="curve" smooth="yes"/>
      <point x="184" y="736"/>
      <point x="130" y="689"/>
      <point x="130" y="604" type="curve" smooth="yes"/>
      <point x="130" y="30" type="line" smooth="yes"/>
      <point x="130" y="13"/>
      <point x="143" y="0"/>
      <point x="160" y="0" type="curve" smooth="yes"/>
      <point x="177" y="0"/>
      <point x="190" y="13"/>
      <point x="190" y="30" type="curve" smooth="yes"/>
      <point x="190" y="604" type="line" smooth="yes"/>
      <point x="190" y="653"/>
      <point x="214" y="683"/>
      <point x="257" y="683" type="curve" smooth="yes"/>
      <point x="279" y="683"/>
      <point x="300" y="672"/>
      <point x="314" y="672" type="curve" smooth="yes"/>
      <point x="327" y="672"/>
      <point x="340" y="684"/>
      <point x="340" y="700" type="curve" smooth="yes"/>
      <point x="340" y="728"/>
      <point x="293" y="736"/>
    </contour>
    <contour>
      <point x="302" y="501" type="curve" smooth="yes"/>
      <point x="57" y="501" type="line" smooth="yes"/>
      <point x="41" y="501"/>
      <point x="29" y="490"/>
      <point x="29" y="473" type="curve" smooth="yes"/>
      <point x="29" y="458"/>
      <point x="41" y="445"/>
      <point x="57" y="445" type="curve" smooth="yes"/>
      <point x="302" y="445" type="line" smooth="yes"/>
      <point x="317" y="445"/>
      <point x="330" y="457"/>
      <point x="330" y="473" type="curve" smooth="yes"/>
      <point x="330" y="489"/>
      <point x="317" y="501"/>
    </contour>
  </outline>
</glyph>
<glyph name="g" format="2">
  <advance width="619"/>
  <unicode hex="0067"/>
  <note>
g
</note>
  <anchor x="310" y="0" name="bottom"/>
  <anchor x="310" y="503" name="top"/>
  <outline>
    <contour>
      <point x="288" y="523" type="curve"/>
      <point x="150" y="523"/>
      <point x="45" y="410"/>
      <point x="45" y="257" type="curve"/>
      <point x="45" y="103"/>
      <point x="150" y="-10"/>
      <point x="289" y="-10" type="curve"/>
      <point x="374" y="-10"/>
      <point x="468" y="42"/>
      <point x="492" y="136" type="curve"/>
      <point x="481" y="139" type="line"/>
      <point x="481" y="43" type="line"/>
      <point x="481" y="-70"/>
      <point x="411" y="-144"/>
      <point x="291" y="-144" type="curve"/>
      <point x="240" y="-144"/>
      <point x="193" y="-127"/>
      <point x="175" y="-120" type="curve"/>
      <point x="146" y="-109"/>
      <point x="133" y="-98"/>
      <point x="121" y="-107" type="curve"/>
      <point x="110" y="-115"/>
      <point x="109" y="-128"/>
      <point x="119" y="-139" type="curve"/>
      <point x="127" y="-170"/>
      <point x="220" y="-200"/>
      <point x="290" y="-200" type="curve"/>
      <point x="434" y="-200"/>
      <point x="541" y="-113"/>
      <point x="541" y="47" type="curve"/>
      <point x="541" y="480" type="line"/>
      <point x="541" y="498"/>
      <point x="529" y="511"/>
      <point x="511" y="511" type="curve"/>
      <point x="493" y="511"/>
      <point x="481" y="497"/>
      <point x="481" y="480" type="curve"/>
      <point x="481" y="387" type="line"/>
      <point x="497" y="363" type="line"/>
      <point x="497" y="429"/>
      <point x="406" y="523"/>
    </contour>
    <contour>
      <point x="294" y="467" type="curve"/>
      <point x="404" y="467"/>
      <point x="485" y="381"/>
      <point x="485" y="257" type="curve"/>
      <point x="485" y="132"/>
      <point x="404" y="46"/>
      <point x="294" y="46" type="curve"/>
      <point x="184" y="46"/>
      <point x="104" y="136"/>
      <point x="104" y="257" type="curve"/>
      <point x="104" y="377"/>
      <point x="184" y="467"/>
    </contour>
  </outline>
</glyph>
<glyph name="h" format="2">
  <advance width="568"/>
  <unicode hex="0068"/>
  <note>
h
</note>
  <anchor x="284" y="0" name="bottom"/>
  <anchor x="122" y="590" name="center"/>
  <anchor x="109" y="710" name="top"/>
  <outline>
    <contour>
      <point x="312" y="515" type="curve"/>
      <point x="218" y="515"/>
      <point x="122" y="435"/>
      <point x="116" y="351" type="curve"/>
      <point x="139" y="386" type="line"/>
      <point x="139" y="710" type="line"/>
      <point x="139" y="727"/>
      <point x="126" y="740"/>
      <point x="109" y="740" type="curve"/>
      <point x="92" y="740"/>
      <point x="79" y="727"/>
      <point x="79" y="710" type="curve"/>
      <point x="79" y="30" type="line"/>
      <point x="79" y="13"/>
      <point x="91" y="0"/>
      <point x="109" y="0" type="curve"/>
      <point x="126" y="0"/>
      <point x="139" y="13"/>
      <point x="139" y="30" type="curve"/>
      <point x="139" y="313" type="line"/>
      <point x="139" y="393"/>
      <point x="218" y="459"/>
      <point x="302" y="459" type="curve"/>
      <point x="395" y="459"/>
      <point x="430" y="393"/>
      <point x="430" y="313" type="curve"/>
      <point x="430" y="30" type="line"/>
      <point x="430" y="13"/>
      <point x="442" y="0"/>
      <point x="460" y="0" type="curve"/>
      <point x="477" y="0"/>
      <point x="490" y="13"/>
      <point x="490" y="30" type="curve"/>
      <point x="490" y="313" type="line"/>
      <point x="490" y="424"/>
      <point x="438" y="515"/>
    </contour>
  </outline>
</glyph>
<glyph name="l" format="2">
  <advance width="229.5"/>
  <unicode hex="006C"/>
  <note>
l
</note>
  <anchor x="115" y="0" name="bottom"/>
  <anchor x="115" y="339" name="center"/>
  <anchor x="115" y="740" name="top"/>
  <anchor x="210" y="684" name="topright"/>
  <outline>
    <contour>
      <point x="145" y="30" type="curve" smooth="yes"/>
      <point x="145" y="710" type="line" smooth="yes"/>
      <point x="145" y="727"/>
      <point x="133" y="740"/>
      <point x="115" y="740" type="curve" smooth="yes"/>
      <point x="98" y="740"/>
      <point x="85" y="727"/>
      <point x="85" y="710" type="curve" smooth="yes"/>
      <point x="85" y="30" type="line" smooth="yes"/>
      <point x="85" y="13"/>
      <point x="97" y="0"/>
      <point x="115" y="0" type="curve" smooth="yes"/>
      <point x="132" y="0"/>
      <point x="145" y="13"/>
    </contour>
  </outline>
</glyph>
<glyph name="m" format="2">
  <advance width="912.25"/>
  <unicode hex="006D"/>
  <note>
m
</note>
  <anchor x="457" y="0" name="bottom"/>
  <anchor x="457" y="503" name="top"/>
  <outline>
    <contour>
      <point x="309" y="515" type="curve"/>
      <point x="209" y="515"/>
      <point x="118" y="428"/>
      <point x="112" y="348" type="curve"/>
      <point x="139" y="385" type="line"/>
      <point x="139" y="478" type="line"/>
      <point x="139" y="495"/>
      <point x="126" y="508"/>
      <point x="109" y="508" type="curve"/>
      <point x="92" y="508"/>
      <point x="79" y="495"/>
      <point x="79" y="478" type="curve"/>
      <point x="79" y="30" type="line"/>
      <point x="79" y="13"/>
      <point x="91" y="0"/>
      <point x="109" y="0" type="curve"/>
      <point x="126" y="0"/>
      <point x="139" y="13"/>
      <point x="139" y="30" type="curve"/>
      <point x="139" y="313" type="line"/>
      <point x="139" y="393"/>
      <point x="216" y="459"/>
      <point x="298" y="459" type="curve"/>
      <point x="389" y="459"/>
      <point x="422" y="393"/>
      <point x="422" y="313" type="curve"/>
      <point x="422" y="30" type="line"/>
      <point x="422" y="13"/>
      <point x="434" y="0"/>
      <point x="452" y="0" type="curve"/>
      <point x="470" y="0"/>
      <point x="482" y="13"/>
      <point x="482" y="30" type="curve"/>
      <point x="482" y="310" type="line"/>
      <point x="482" y="392"/>
      <point x="561" y="459"/>
      <point x="645" y="459" type="curve"/>
      <point x="738" y="459"/>
      <point x="774" y="392"/>
      <point x="774" y="310" type="curve"/>
      <point x="774" y="30" type="line"/>
      <point x="774" y="13"/>
      <point x="786" y="0"/>
      <point x="804" y="0" type="curve"/>
      <point x="822" y="0"/>
      <point x="834" y="13"/>
      <point x="834" y="30" type="curve"/>
      <point x="834" y="313" type="line"/>
      <point x="834" y="426"/>
      <point x="785" y="515"/>
      <point x="659" y="515" type="curve"/>
      <point x="580" y="515"/>
      <point x="492" y="460"/>
      <point x="467" y="400" type="curve"/>
      <point x="461" y="382" type="line"/>
      <point x="475" y="386" type="line"/>
      <point x="454" y="471"/>
      <point x="391" y="515"/>
    </contour>
  </outline>
</glyph>
<glyph name="n" format="2">
  <advance width="578"/>
  <unicode hex="006E"/>
  <note>
n
</note>
  <anchor x="289" y="0" name="bottom"/>
  <anchor x="289" y="503" name="top"/>
  <outline>
    <contour>
      <point x="320" y="523" type="curve"/>
      <point x="223" y="523"/>
      <point x="122" y="443"/>
      <point x="116" y="358" type="curve"/>
      <point x="139" y="394" type="line"/>
      <point x="139" y="478" type="line"/>
      <point x="139" y="495"/>
      <point x="126" y="508"/>
      <point x="109" y="508" type="curve"/>
      <point x="92" y="508"/>
      <point x="79" y="495"/>
      <point x="79" y="478" type="curve"/>
      <point x="79" y="30" type="line"/>
      <point x="79" y="13"/>
      <point x="91" y="0"/>
      <point x="109" y="0" type="curve"/>
      <point x="126" y="0"/>
      <point x="139" y="13"/>
      <point x="139" y="30" type="curve"/>
      <point x="139" y="321" type="line"/>
      <point x="139" y="401"/>
      <point x="221" y="467"/>
      <point x="307" y="467" type="curve"/>
      <point x="403" y="467"/>
      <point x="440" y="401"/>
      <point x="440" y="321" type="curve"/>
      <point x="440" y="30" type="line"/>
      <point x="440" y="13"/>
      <point x="452" y="0"/>
      <point x="470" y="0" type="curve"/>
      <point x="486" y="0"/>
      <point x="500" y="13"/>
      <point x="500" y="30" type="curve"/>
      <point x="500" y="324" type="line"/>
      <point x="500" y="435"/>
      <point x="451" y="523"/>
    </contour>
  </outline>
</glyph>
<glyph name="o" format="2">
  <advance width="595.25"/>
  <unicode hex="006F"/>
  <note>
o
</note>
  <anchor x="298" y="0" name="bottom"/>
  <anchor x="298" y="252" name="center"/>
  <anchor x="536" y="10" name="ogonek"/>
  <anchor x="298" y="511" name="top"/>
  <anchor x="314" y="508" name="topright"/>
  <outline>
    <contour>
      <point x="551" y="256" type="curve"/>
      <point x="551" y="409"/>
      <point x="442" y="523"/>
      <point x="298" y="523" type="curve"/>
      <point x="154" y="523"/>
      <point x="45" y="409"/>
      <point x="45" y="256" type="curve"/>
      <point x="45" y="103"/>
      <point x="154" y="-10"/>
      <point x="298" y="-10" type="curve"/>
      <point x="442" y="-10"/>
      <point x="551" y="103"/>
    </contour>
    <contour>
      <point x="491" y="256" type="curve"/>
      <point x="491" y="135"/>
      <point x="408" y="46"/>
      <point x="298" y="46" type="curve"/>
      <point x="189" y="46"/>
      <point x="105" y="135"/>
      <point x="105" y="256" type="curve"/>
      <point x="105" y="378"/>
      <point x="189" y="467"/>
      <point x="298" y="467" type="curve"/>
      <point x="408" y="467"/>
      <point x="491" y="378"/>
    </contour>
  </outline>
</glyph>
<glyph name="p" format="2">
  <advance width="601"/>
  <unicode hex="0070"/>
  <note>
p
</note>
  <anchor x="302" y="0" name="bottom"/>
  <anchor x="302" y="503" name="top"/>
  <outline>
    <contour>
      <point x="322" y="515" type="curve"/>
      <point x="232" y="515"/>
      <point x="152" y="464"/>
      <point x="125" y="382" type="curve"/>
      <point x="139" y="374" type="line"/>
      <point x="139" y="482" type="line"/>
      <point x="139" y="499"/>
      <point x="126" y="513"/>
      <point x="109" y="513" type="curve"/>
      <point x="91" y="513"/>
      <point x="79" y="499"/>
      <point x="79" y="482" type="curve"/>
      <point x="79" y="-170" type="line"/>
      <point x="79" y="-187"/>
      <point x="92" y="-200"/>
      <point x="109" y="-200" type="curve"/>
      <point x="126" y="-200"/>
      <point x="139" y="-187"/>
      <point x="139" y="-170" type="curve"/>
      <point x="139" y="141" type="line"/>
      <point x="121" y="128" type="line"/>
      <point x="153" y="52"/>
      <point x="229" y="-7"/>
      <point x="323" y="-7" type="curve"/>
      <point x="456" y="-7"/>
      <point x="557" y="103"/>
      <point x="557" y="255" type="curve"/>
      <point x="557" y="406"/>
      <point x="456" y="515"/>
    </contour>
    <contour>
      <point x="317" y="459" type="curve"/>
      <point x="422" y="459"/>
      <point x="499" y="373"/>
      <point x="499" y="255" type="curve"/>
      <point x="499" y="136"/>
      <point x="422" y="49"/>
      <point x="317" y="49" type="curve"/>
      <point x="209" y="49"/>
      <point x="134" y="136"/>
      <point x="134" y="255" type="curve"/>
      <point x="134" y="374"/>
      <point x="209" y="459"/>
    </contour>
  </outline>
</glyph>
<glyph name="q" format="2">
  <advance width="602"/>
  <unicode hex="0071"/>
  <note>
q
</note>
  <anchor x="302" y="0" name="bottom"/>
  <anchor x="302" y="503" name="top"/>
  <outline>
    <contour>
      <point x="494" y="513" type="curve"/>
      <point x="476" y="513"/>
      <point x="464" y="499"/>
      <point x="464" y="482" type="curve"/>
      <point x="464" y="353" type="line"/>
      <point x="485" y="338" type="line"/>
      <point x="485" y="436"/>
      <point x="390" y="523"/>
      <point x="279" y="523" type="curve"/>
      <point x="147" y="523"/>
      <point x="45" y="410"/>
      <point x="45" y="257" type="curve"/>
      <point x="45" y="103"/>
      <point x="147" y="-10"/>
      <point x="280" y="-10" type="curve"/>
      <point x="394" y="-10"/>
      <point x="481" y="86"/>
      <point x="481" y="163" type="curve"/>
      <point x="464" y="149" type="line"/>
      <point x="464" y="-170" type="line"/>
      <point x="464" y="-187"/>
      <point x="476" y="-200"/>
      <point x="494" y="-200" type="curve"/>
      <point x="511" y="-200"/>
      <point x="524" y="-187"/>
      <point x="524" y="-170" type="curve"/>
      <point x="524" y="482" type="line"/>
      <point x="524" y="500"/>
      <point x="511" y="513"/>
    </contour>
    <contour>
      <point x="286" y="46" type="curve"/>
      <point x="181" y="46"/>
      <point x="104" y="136"/>
      <point x="104" y="257" type="curve"/>
      <point x="104" y="377"/>
      <point x="181" y="467"/>
      <point x="286" y="467" type="curve"/>
      <point x="392" y="467"/>
      <point x="468" y="377"/>
      <point x="468" y="257" type="curve"/>
      <point x="468" y="135"/>
      <point x="392" y="46"/>
    </contour>
  </outline>
</glyph>
<glyph name="r" format="2">
  <advance width="384.5"/>
  <unicode hex="0072"/>
  <note>
r
</note>
  <anchor x="108" y="0" name="bottom"/>
  <anchor x="192" y="503" name="top"/>
  <outline>
    <contour>
      <point x="109" y="0" type="curve"/>
      <point x="126" y="0"/>
      <point x="139" y="13"/>
      <point x="139" y="30" type="curve"/>
      <point x="139" y="277" type="line"/>
      <point x="139" y="372"/>
      <point x="220" y="470"/>
      <point x="296" y="470" type="curve" smooth="yes"/>
      <point x="319" y="470"/>
      <point x="331" y="460"/>
      <point x="343" y="460" type="curve"/>
      <point x="357" y="460"/>
      <point x="370" y="471"/>
      <point x="370" y="491" type="curve"/>
      <point x="370" y="514"/>
      <point x="341" y="523"/>
      <point x="318" y="523" type="curve"/>
      <point x="203" y="522"/>
      <point x="131" y="418"/>
      <point x="124" y="325" type="curve"/>
      <point x="139" y="328" type="line"/>
      <point x="139" y="478" type="line"/>
      <point x="139" y="495"/>
      <point x="126" y="508"/>
      <point x="109" y="508" type="curve"/>
      <point x="92" y="508"/>
      <point x="79" y="495"/>
      <point x="79" y="478" type="curve"/>
      <point x="79" y="30" type="line"/>
      <point x="79" y="13"/>
      <point x="91" y="0"/>
    </contour>
  </outline>
</glyph>
<glyph name="s" format="2">
  <advance width="469.25"/>
  <unicode hex="0073"/>
  <note>
s
</note>
  <anchor x="235" y="0" name="bottom"/>
  <anchor x="235" y="503" name="top"/>
  <outline>
    <contour>
      <point x="50" y="81" type="curve"/>
      <point x="102" y="15"/>
      <point x="172" y="-10"/>
      <point x="244" y="-10" type="curve"/>
      <point x="344" y="-10"/>
      <point x="425" y="43"/>
      <point x="425" y="132" type="curve"/>
      <point x="425" y="233"/>
      <point x="348" y="261"/>
      <point x="262" y="283" type="curve"/>
      <point x="186" y="302"/>
      <point x="127" y="324"/>
      <point x="124" y="382" type="curve"/>
      <point x="124" y="444"/>
      <point x="181" y="470"/>
      <point x="238" y="470" type="curve"/>
      <point x="289" y="470"/>
      <point x="334" y="451"/>
      <point x="366" y="415" type="curve"/>
      <point x="375" y="405"/>
      <point x="391" y="405"/>
      <point x="402" y="413" type="curve"/>
      <point x="416" y="425"/>
      <point x="415" y="443"/>
      <point x="403" y="454" type="curve"/>
      <point x="358" y="505"/>
      <point x="293" y="523"/>
      <point x="242" y="523" type="curve"/>
      <point x="142" y="523"/>
      <point x="67" y="464"/>
      <point x="67" y="381" type="curve"/>
      <point x="67" y="286"/>
      <point x="152" y="251"/>
      <point x="244" y="228" type="curve"/>
      <point x="307" y="212"/>
      <point x="369" y="191"/>
      <point x="369" y="129" type="curve"/>
      <point x="369" y="68"/>
      <point x="307" y="41"/>
      <point x="250" y="41" type="curve"/>
      <point x="178" y="41"/>
      <point x="129" y="71"/>
      <point x="93" y="119" type="curve" smooth="yes"/>
      <point x="81" y="131"/>
      <point x="65" y="132"/>
      <point x="55" y="123" type="curve"/>
      <point x="39" y="113"/>
      <point x="39" y="98"/>
    </contour>
  </outline>
</glyph>
<glyph name="t" format="2">
  <advance width="339.25"/>
  <unicode hex="0074"/>
  <note>
t
</note>
  <anchor x="168" y="0" name="bottom"/>
  <anchor x="168" y="252" name="center"/>
  <anchor x="150" y="649" name="top"/>
  <anchor x="316" y="506" name="topright"/>
  <outline>
    <contour>
      <point x="46" y="509" type="line" smooth="yes"/>
      <point x="30" y="509"/>
      <point x="17" y="497"/>
      <point x="17" y="481" type="curve" smooth="yes"/>
      <point x="17" y="465"/>
      <point x="30" y="453"/>
      <point x="46" y="453" type="curve" smooth="yes"/>
      <point x="279" y="453" type="line" smooth="yes"/>
      <point x="294" y="453"/>
      <point x="307" y="464"/>
      <point x="307" y="480" type="curve" smooth="yes"/>
      <point x="307" y="495"/>
      <point x="294" y="509"/>
      <point x="279" y="509" type="curve" smooth="yes"/>
    </contour>
    <contour>
      <point x="149" y="650" type="curve" smooth="yes"/>
      <point x="132" y="650"/>
      <point x="119" y="637"/>
      <point x="119" y="620" type="curve" smooth="yes"/>
      <point x="119" y="115" type="line" smooth="yes"/>
      <point x="119" y="-6"/>
      <point x="201" y="0"/>
      <point x="227" y="0" type="curve" smooth="yes"/>
      <point x="256" y="0"/>
      <point x="281" y="14"/>
      <point x="281" y="33" type="curve" smooth="yes"/>
      <point x="281" y="47"/>
      <point x="271" y="58"/>
      <point x="259" y="58" type="curve" smooth="yes"/>
      <point x="248" y="58"/>
      <point x="241" y="53"/>
      <point x="230" y="53" type="curve" smooth="yes"/>
      <point x="206" y="53"/>
      <point x="179" y="61"/>
      <point x="179" y="118" type="curve" smooth="yes"/>
      <point x="179" y="620" type="line" smooth="yes"/>
      <point x="179" y="637"/>
      <point x="166" y="650"/>
    </contour>
  </outline>
</glyph>
<glyph name="u" format="2">
  <advance width="569"/>
  <unicode hex="0075"/>
  <note>
u
</note>
  <anchor x="285" y="0" name="bottom"/>
  <anchor x="512" y="10" name="ogonek"/>
  <anchor x="285" y="503" name="top"/>
  <anchor x="382" y="509" name="topright"/>
  <outline>
    <contour>
      <point x="461" y="508" type="curve"/>
      <point x="443" y="508"/>
      <point x="431" y="495"/>
      <point x="431" y="478" type="curve"/>
      <point x="431" y="196" type="line"/>
      <point x="431" y="99"/>
      <point x="376" y="49"/>
      <point x="284" y="49" type="curve"/>
      <point x="193" y="49"/>
      <point x="139" y="99"/>
      <point x="139" y="196" type="curve"/>
      <point x="139" y="478" type="line"/>
      <point x="139" y="495"/>
      <point x="126" y="508"/>
      <point x="109" y="508" type="curve"/>
      <point x="92" y="508"/>
      <point x="79" y="495"/>
      <point x="79" y="478" type="curve"/>
      <point x="79" y="196" type="line"/>
      <point x="79" y="64"/>
      <point x="158" y="-7"/>
      <point x="284" y="-7" type="curve"/>
      <point x="411" y="-7"/>
      <point x="491" y="64"/>
      <point x="491" y="196" type="curve"/>
      <point x="491" y="478" type="line"/>
      <point x="491" y="495"/>
      <point x="478" y="508"/>
    </contour>
  </outline>
</glyph>
<glyph name="v" format="2">
  <advance width="529"/>
  <unicode hex="0076"/>
  <note>
v
</note>
  <anchor x="265" y="0" name="bottom"/>
  <anchor x="265" y="503" name="top"/>
  <outline>
    <contour>
      <point x="67" y="522" type="curve"/>
      <point x="46" y="522"/>
      <point x="36" y="507"/>
      <point x="36" y="493" type="curve"/>
      <point x="36" y="487"/>
      <point x="38" y="483"/>
      <point x="39" y="479" type="curve"/>
      <point x="236" y="19" type="line"/>
      <point x="241" y="6"/>
      <point x="253" y="-1"/>
      <point x="266" y="0" type="curve"/>
      <point x="277" y="0"/>
      <point x="288" y="8"/>
      <point x="293" y="19" type="curve"/>
      <point x="489" y="479" type="line"/>
      <point x="491" y="483"/>
      <point x="493" y="488"/>
      <point x="493" y="496" type="curve"/>
      <point x="493" y="511"/>
      <point x="478" y="521"/>
      <point x="465" y="521" type="curve"/>
      <point x="452" y="522"/>
      <point x="441" y="514"/>
      <point x="436" y="502" type="curve"/>
      <point x="257" y="78" type="line"/>
      <point x="270" y="86" type="line"/>
      <point x="95" y="502" type="line"/>
      <point x="90" y="515"/>
      <point x="78" y="522"/>
    </contour>
  </outline>
</glyph>
<glyph name="w" format="2">
  <advance width="751.5"/>
  <unicode hex="0077"/>
  <note>
w
</note>
  <anchor x="376" y="0" name="bottom"/>
  <anchor x="376" y="488" name="top"/>
  <outline>
    <contour>
      <point x="686" y="522" type="curve"/>
      <point x="672" y="522"/>
      <point x="662" y="515"/>
      <point x="658" y="502" type="curve"/>
      <point x="517" y="75" type="line"/>
      <point x="539" y="76" type="line"/>
      <point x="402" y="402" type="line"/>
      <point x="397" y="414"/>
      <point x="388" y="421"/>
      <point x="374" y="421" type="curve"/>
      <point x="362" y="421"/>
      <point x="351" y="415"/>
      <point x="346" y="402" type="curve"/>
      <point x="217" y="77" type="line"/>
      <point x="236" y="76" type="line"/>
      <point x="94" y="502" type="line"/>
      <point x="90" y="515"/>
      <point x="79" y="522"/>
      <point x="67" y="522" type="curve"/>
      <point x="49" y="522"/>
      <point x="36" y="509"/>
      <point x="36" y="492" type="curve"/>
      <point x="36" y="488"/>
      <point x="37" y="483"/>
      <point x="39" y="479" type="curve"/>
      <point x="197" y="19" type="line"/>
      <point x="201" y="7"/>
      <point x="214" y="-1"/>
      <point x="227" y="0" type="curve"/>
      <point x="238" y="0"/>
      <point x="249" y="8"/>
      <point x="254" y="19" type="curve"/>
      <point x="379" y="347" type="line"/>
      <point x="361" y="351" type="line"/>
      <point x="502" y="19" type="line"/>
      <point x="507" y="8"/>
      <point x="517" y="0"/>
      <point x="529" y="0" type="curve"/>
      <point x="541" y="-1"/>
      <point x="553" y="7"/>
      <point x="559" y="19" type="curve"/>
      <point x="713" y="479" type="line"/>
      <point x="714" y="483"/>
      <point x="716" y="488"/>
      <point x="716" y="492" type="curve"/>
      <point x="716" y="511"/>
      <point x="702" y="522"/>
    </contour>
  </outline>
</glyph>
<glyph name="x" format="2">
  <advance width="484"/>
  <unicode hex="0078"/>
  <note>
x
</note>
  <anchor x="243" y="0" name="bottom"/>
  <anchor x="243" y="503" name="top"/>
  <outline>
    <contour>
      <point x="65" y="516" type="curve" smooth="yes"/>
      <point x="49" y="516"/>
      <point x="34" y="503"/>
      <point x="34" y="486" type="curve" smooth="yes"/>
      <point x="34" y="480"/>
      <point x="36" y="473"/>
      <point x="40" y="468" type="curve" smooth="yes"/>
      <point x="395" y="10" type="line" smooth="yes"/>
      <point x="402" y="1"/>
      <point x="411" y="-4"/>
      <point x="420" y="-4" type="curve" smooth="yes"/>
      <point x="435" y="-4"/>
      <point x="450" y="10"/>
      <point x="450" y="27" type="curve" smooth="yes"/>
      <point x="450" y="33"/>
      <point x="448" y="39"/>
      <point x="443" y="45" type="curve" smooth="yes"/>
      <point x="89" y="503" type="line" smooth="yes"/>
      <point x="83" y="512"/>
      <point x="74" y="516"/>
    </contour>
    <contour>
      <point x="65" y="-3" type="curve" smooth="yes"/>
      <point x="74" y="-3"/>
      <point x="83" y="1"/>
      <point x="89" y="9" type="curve" smooth="yes"/>
      <point x="245" y="212" type="line"/>
      <point x="212" y="260" type="line"/>
      <point x="43" y="43" type="line" smooth="yes"/>
      <point x="38" y="37"/>
      <point x="36" y="31"/>
      <point x="36" y="24" type="curve" smooth="yes"/>
      <point x="36" y="7"/>
      <point x="51" y="-3"/>
    </contour>
    <contour>
      <point x="420" y="516" type="curve" smooth="yes"/>
      <point x="411" y="516"/>
      <point x="402" y="512"/>
      <point x="395" y="503" type="curve" smooth="yes"/>
      <point x="241" y="297" type="line"/>
      <point x="272" y="249" type="line"/>
      <point x="441" y="471" type="line" smooth="yes"/>
      <point x="446" y="477"/>
      <point x="448" y="484"/>
      <point x="448" y="490" type="curve" smooth="yes"/>
      <point x="448" y="504"/>
      <point x="438" y="516"/>
    </contour>
  </outline>
</glyph>
<glyph name="y" format="2">
  <advance width="568.25"/>
  <unicode hex="0079"/>
  <note>
y
</note>
  <anchor x="356" y="0" name="bottom"/>
  <anchor x="284" y="503" name="top"/>
  <outline>
    <contour>
      <point x="460" y="520" type="curve" smooth="yes"/>
      <point x="442" y="520"/>
      <point x="430" y="507"/>
      <point x="430" y="490" type="curve" smooth="yes"/>
      <point x="430" y="192" type="line" smooth="yes"/>
      <point x="430" y="115"/>
      <point x="353" y="46"/>
      <point x="269" y="46" type="curve" smooth="yes"/>
      <point x="177" y="46"/>
      <point x="139" y="99"/>
      <point x="139" y="192" type="curve" smooth="yes"/>
      <point x="139" y="490" type="line" smooth="yes"/>
      <point x="139" y="507"/>
      <point x="126" y="520"/>
      <point x="109" y="520" type="curve" smooth="yes"/>
      <point x="91" y="520"/>
      <point x="79" y="507"/>
      <point x="79" y="490" type="curve" smooth="yes"/>
      <point x="79" y="183" type="line" smooth="yes"/>
      <point x="79" y="69"/>
      <point x="136" y="-10"/>
      <point x="256" y="-10" type="curve" smooth="yes"/>
      <point x="335" y="-10"/>
      <point x="407" y="33"/>
      <point x="437" y="96" type="curve"/>
      <point x="430" y="120" type="line"/>
      <point x="430" y="48" type="line"/>
      <point x="430" y="-72"/>
      <point x="360" y="-146"/>
      <point x="250" y="-146" type="curve" smooth="yes"/>
      <point x="196" y="-146"/>
      <point x="150" y="-123"/>
      <point x="128" y="-111" type="curve" smooth="yes"/>
      <point x="113" y="-104"/>
      <point x="97" y="-111"/>
      <point x="91" y="-128" type="curve" smooth="yes"/>
      <point x="85" y="-144"/>
      <point x="93" y="-157"/>
      <point x="110" y="-167" type="curve" smooth="yes"/>
      <point x="141" y="-186"/>
      <point x="191" y="-200"/>
      <point x="249" y="-200" type="curve" smooth="yes"/>
      <point x="386" y="-200"/>
      <point x="490" y="-113"/>
      <point x="490" y="49" type="curve" smooth="yes"/>
      <point x="490" y="490" type="line" smooth="yes"/>
      <point x="490" y="507"/>
      <point x="478" y="520"/>
    </contour>
  </outline>
</glyph>
<glyph name="z" format="2">
  <advance width="478.75"/>
  <unicode hex="007A"/>
  <note>
z
</note>
  <anchor x="236" y="0" name="bottom"/>
  <anchor x="257" y="503" name="top"/>
  <outline>
    <contour>
      <point x="399" y="56" type="curve"/>
      <point x="113" y="56" type="line"/>
      <point x="125" y="51" type="line"/>
      <point x="426" y="466" type="line"/>
      <point x="432" y="474"/>
      <point x="434" y="481"/>
      <point x="434" y="488" type="curve"/>
      <point x="434" y="504"/>
      <point x="422" y="518"/>
      <point x="406" y="518" type="curve"/>
      <point x="99" y="518" type="line"/>
      <point x="83" y="518"/>
      <point x="70" y="506"/>
      <point x="70" y="490" type="curve"/>
      <point x="70" y="474"/>
      <point x="83" y="462"/>
      <point x="99" y="462" type="curve"/>
      <point x="361" y="462" type="line"/>
      <point x="357" y="471" type="line"/>
      <point x="54" y="52" type="line"/>
      <point x="47" y="44"/>
      <point x="45" y="37"/>
      <point x="45" y="29" type="curve"/>
      <point x="45" y="17"/>
      <point x="56" y="0"/>
      <point x="74" y="0" type="curve"/>
      <point x="399" y="0" type="line"/>
      <point x="416" y="0"/>
      <point x="428" y="12"/>
      <point x="428" y="28" type="curve"/>
      <point x="428" y="43"/>
      <point x="416" y="56"/>
    </contour>
  </outline>
</glyph>
<glyph name="braceleft" format="2">
  <advance width="427.25"/>
  <unicode hex="007B"/>
  <note>
braceleft
</note>
  <outline>
    <contour>
      <point x="363" y="-201" type="curve" smooth="yes"/>
      <point x="375" y="-201"/>
      <point x="384" y="-192"/>
      <point x="385" y="-182" type="curve" smooth="yes"/>
      <point x="387" y="-169"/>
      <point x="379" y="-158"/>
      <point x="366" y="-154" type="curve" smooth="yes"/>
      <point x="244" y="-118"/>
      <point x="223" y="-82"/>
      <point x="223" y="6" type="curve"/>
      <point x="224" y="89" type="line"/>
      <point x="224" y="172"/>
      <point x="191" y="237"/>
      <point x="128" y="255" type="curve"/>
      <point x="129" y="253" type="line"/>
      <point x="189" y="269"/>
      <point x="224" y="335"/>
      <point x="224" y="418" type="curve"/>
      <point x="223" y="500" type="line"/>
      <point x="223" y="589"/>
      <point x="245" y="623"/>
      <point x="366" y="660" type="curve" smooth="yes"/>
      <point x="378" y="664"/>
      <point x="386" y="673"/>
      <point x="386" y="684" type="curve" smooth="yes"/>
      <point x="386" y="696"/>
      <point x="378" y="712"/>
      <point x="353" y="705" type="curve" smooth="yes"/>
      <point x="239" y="676"/>
      <point x="165" y="636"/>
      <point x="165" y="509" type="curve"/>
      <point x="166" y="424" type="line"/>
      <point x="166" y="347"/>
      <point x="140" y="280"/>
      <point x="54" y="279" type="curve"/>
      <point x="48" y="279" type="line"/>
      <point x="33" y="279"/>
      <point x="21" y="268"/>
      <point x="21" y="254" type="curve" smooth="yes"/>
      <point x="21" y="239"/>
      <point x="33" y="228"/>
      <point x="48" y="228" type="curve"/>
      <point x="53" y="228" type="line"/>
      <point x="137" y="227"/>
      <point x="166" y="160"/>
      <point x="166" y="82" type="curve"/>
      <point x="165" y="-3" type="line"/>
      <point x="165" y="-101"/>
      <point x="197" y="-166"/>
      <point x="354" y="-200" type="curve" smooth="yes"/>
      <point x="357" y="-200"/>
      <point x="360" y="-201"/>
    </contour>
  </outline>
</glyph>
<glyph name="bar" format="2">
  <advance width="204.5"/>
  <unicode hex="007C"/>
  <note>
bar
</note>
  <outline>
    <contour>
      <point x="132" y="-151" type="curve" smooth="yes"/>
      <point x="132" y="755" type="line" smooth="yes"/>
      <point x="132" y="772"/>
      <point x="120" y="785"/>
      <point x="103" y="785" type="curve" smooth="yes"/>
      <point x="85" y="785"/>
      <point x="72" y="772"/>
      <point x="72" y="755" type="curve" smooth="yes"/>
      <point x="72" y="-151" type="line" smooth="yes"/>
      <point x="72" y="-168"/>
      <point x="85" y="-181"/>
      <point x="102" y="-181" type="curve" smooth="yes"/>
      <point x="120" y="-181"/>
      <point x="132" y="-168"/>
    </contour>
  </outline>
</glyph>
<glyph name="braceright" format="2">
  <advance width="427.25"/>
  <unicode hex="007D"/>
  <note>
braceright
</note>
  <outline>
    <contour>
      <point x="65" y="-200" type="curve" smooth="yes"/>
      <point x="68" y="-200"/>
      <point x="71" y="-200"/>
      <point x="73" y="-199" type="curve" smooth="yes"/>
      <point x="220" y="-136"/>
      <point x="262" y="-101"/>
      <point x="262" y="-2" type="curve"/>
      <point x="262" y="83" type="line"/>
      <point x="262" y="160"/>
      <point x="288" y="227"/>
      <point x="374" y="228" type="curve"/>
      <point x="380" y="228" type="line"/>
      <point x="394" y="228"/>
      <point x="406" y="239"/>
      <point x="406" y="253" type="curve" smooth="yes"/>
      <point x="406" y="268"/>
      <point x="394" y="280"/>
      <point x="380" y="280" type="curve"/>
      <point x="374" y="280" type="line"/>
      <point x="291" y="280"/>
      <point x="262" y="347"/>
      <point x="262" y="425" type="curve"/>
      <point x="262" y="510" type="line"/>
      <point x="262" y="608"/>
      <point x="231" y="673"/>
      <point x="73" y="707" type="curve" smooth="yes"/>
      <point x="71" y="707"/>
      <point x="68" y="708"/>
      <point x="64" y="708" type="curve" smooth="yes"/>
      <point x="53" y="708"/>
      <point x="44" y="699"/>
      <point x="42" y="689" type="curve" smooth="yes"/>
      <point x="41" y="676"/>
      <point x="48" y="665"/>
      <point x="62" y="661" type="curve" smooth="yes"/>
      <point x="183" y="625"/>
      <point x="204" y="589"/>
      <point x="204" y="501" type="curve"/>
      <point x="204" y="419" type="line"/>
      <point x="204" y="335"/>
      <point x="237" y="270"/>
      <point x="300" y="253" type="curve"/>
      <point x="298" y="254" type="line"/>
      <point x="238" y="239"/>
      <point x="204" y="172"/>
      <point x="204" y="89" type="curve"/>
      <point x="204" y="7" type="line"/>
      <point x="204" y="-82"/>
      <point x="183" y="-116"/>
      <point x="62" y="-153" type="curve" smooth="yes"/>
      <point x="49" y="-157"/>
      <point x="41" y="-166"/>
      <point x="41" y="-177" type="curve" smooth="yes"/>
      <point x="41" y="-187"/>
      <point x="48" y="-200"/>
    </contour>
  </outline>
</glyph>
<glyph name="asciitilde" format="2">
  <advance width="462.75"/>
  <unicode hex="007E"/>
  <note>
asciitilde
</note>
  <outline>
    <contour>
      <point x="324" y="217" type="curve"/>
      <point x="383" y="217"/>
      <point x="413" y="253"/>
      <point x="413" y="304" type="curve" smooth="yes"/>
      <point x="413" y="321"/>
      <point x="400" y="331"/>
      <point x="386" y="331" type="curve" smooth="yes"/>
      <point x="372" y="331"/>
      <point x="362" y="321"/>
      <point x="363" y="306" type="curve" smooth="yes"/>
      <point x="361" y="282"/>
      <point x="350" y="268"/>
      <point x="331" y="268" type="curve"/>
      <point x="286" y="268"/>
      <point x="200" y="325"/>
      <point x="143" y="325" type="curve" smooth="yes"/>
      <point x="79" y="325"/>
      <point x="50" y="279"/>
      <point x="50" y="241" type="curve" smooth="yes"/>
      <point x="50" y="222"/>
      <point x="62" y="213"/>
      <point x="76" y="213" type="curve" smooth="yes"/>
      <point x="88" y="213"/>
      <point x="99" y="221"/>
      <point x="99" y="236" type="curve" smooth="yes"/>
      <point x="105" y="262"/>
      <point x="118" y="273"/>
      <point x="137" y="273" type="curve" smooth="yes"/>
      <point x="183" y="273"/>
      <point x="271" y="217"/>
    </contour>
  </outline>
</glyph>
<glyph name="cent" format="2">
  <advance width="513.5"/>
  <unicode hex="00A2"/>
  <note>
cent
</note>
  <anchor x="257" y="90" name="bottom"/>
  <anchor x="297" y="593" name="top"/>
  <outline>
    <contour>
      <point x="317" y="30" type="curve"/>
      <point x="317" y="97" type="line"/>
      <point x="315" y="117" type="line"/>
      <point x="315" y="579" type="line"/>
      <point x="317" y="599" type="line"/>
      <point x="317" y="664" type="line"/>
      <point x="317" y="681"/>
      <point x="305" y="694"/>
      <point x="288" y="694" type="curve"/>
      <point x="270" y="694"/>
      <point x="257" y="681"/>
      <point x="257" y="664" type="curve"/>
      <point x="257" y="597" type="line"/>
      <point x="260" y="573" type="line"/>
      <point x="260" y="126" type="line"/>
      <point x="257" y="100" type="line"/>
      <point x="257" y="30" type="line"/>
      <point x="257" y="13"/>
      <point x="270" y="0"/>
      <point x="287" y="0" type="curve"/>
      <point x="305" y="0"/>
      <point x="317" y="13"/>
    </contour>
    <contour>
      <point x="295" y="80" type="curve"/>
      <point x="403" y="80"/>
      <point x="478" y="132"/>
      <point x="478" y="164" type="curve"/>
      <point x="478" y="180"/>
      <point x="468" y="192"/>
      <point x="452" y="192" type="curve"/>
      <point x="433" y="192"/>
      <point x="426" y="175"/>
      <point x="401" y="159" type="curve"/>
      <point x="380" y="145"/>
      <point x="355" y="133"/>
      <point x="299" y="133" type="curve"/>
      <point x="185" y="133"/>
      <point x="105" y="223"/>
      <point x="105" y="347" type="curve"/>
      <point x="105" y="468"/>
      <point x="191" y="559"/>
      <point x="297" y="559" type="curve"/>
      <point x="344" y="559"/>
      <point x="375" y="553"/>
      <point x="395" y="541" type="curve"/>
      <point x="422" y="524"/>
      <point x="425" y="506"/>
      <point x="449" y="506" type="curve"/>
      <point x="466" y="506"/>
      <point x="477" y="521"/>
      <point x="477" y="535" type="curve"/>
      <point x="477" y="577"/>
      <point x="395" y="613"/>
      <point x="300" y="613" type="curve"/>
      <point x="147" y="613"/>
      <point x="45" y="492"/>
      <point x="45" y="347" type="curve"/>
      <point x="45" y="194"/>
      <point x="146" y="80"/>
    </contour>
  </outline>
</glyph>
<glyph name="sterling" format="2">
  <advance width="614.25"/>
  <unicode hex="00A3"/>
  <note>
sterling
</note>
  <outline>
    <contour>
      <point x="74" y="331" type="curve"/>
      <point x="441" y="331" type="line"/>
      <point x="457" y="331"/>
      <point x="470" y="342"/>
      <point x="470" y="358" type="curve"/>
      <point x="470" y="374"/>
      <point x="457" y="387"/>
      <point x="441" y="387" type="curve"/>
      <point x="74" y="387" type="line"/>
      <point x="57" y="387"/>
      <point x="45" y="375"/>
      <point x="45" y="359" type="curve"/>
      <point x="45" y="343"/>
      <point x="57" y="331"/>
    </contour>
    <contour>
      <point x="238" y="77" type="curve"/>
      <point x="178" y="77"/>
      <point x="132" y="60"/>
      <point x="66" y="41" type="curve"/>
      <point x="49" y="36"/>
      <point x="40" y="24"/>
      <point x="40" y="10" type="curve"/>
      <point x="40" y="-3"/>
      <point x="50" y="-16"/>
      <point x="65" y="-16" type="curve"/>
      <point x="74" y="-16"/>
      <point x="90" y="-5"/>
      <point x="110" y="-1" type="curve" smooth="yes"/>
      <point x="129" y="3"/>
      <point x="182" y="22"/>
      <point x="233" y="22" type="curve"/>
      <point x="308" y="21"/>
      <point x="405" y="-23"/>
      <point x="485" y="-23" type="curve"/>
      <point x="514" y="-23"/>
      <point x="552" y="-14"/>
      <point x="584" y="5" type="curve"/>
      <point x="601" y="13"/>
      <point x="614" y="24"/>
      <point x="614" y="42" type="curve"/>
      <point x="614" y="54"/>
      <point x="607" y="69"/>
      <point x="588" y="69" type="curve"/>
      <point x="581" y="69"/>
      <point x="573" y="67"/>
      <point x="563" y="58" type="curve"/>
      <point x="545" y="43"/>
      <point x="521" y="34"/>
      <point x="484" y="34" type="curve"/>
      <point x="415" y="34"/>
      <point x="321" y="77"/>
    </contour>
    <contour>
      <point x="161" y="23" type="line"/>
      <point x="202" y="54"/>
      <point x="241" y="108"/>
      <point x="241" y="184" type="curve"/>
      <point x="241" y="268"/>
      <point x="187" y="363"/>
      <point x="187" y="477" type="curve"/>
      <point x="187" y="579"/>
      <point x="247" y="652"/>
      <point x="344" y="652" type="curve"/>
      <point x="408" y="652"/>
      <point x="460" y="625"/>
      <point x="494" y="584" type="curve"/>
      <point x="499" y="578"/>
      <point x="507" y="575"/>
      <point x="515" y="575" type="curve"/>
      <point x="532" y="575"/>
      <point x="548" y="591"/>
      <point x="548" y="606" type="curve"/>
      <point x="548" y="616"/>
      <point x="540" y="627"/>
      <point x="526" y="640" type="curve"/>
      <point x="485" y="686"/>
      <point x="414" y="710"/>
      <point x="344" y="710" type="curve"/>
      <point x="209" y="710"/>
      <point x="125" y="617"/>
      <point x="125" y="477" type="curve"/>
      <point x="125" y="359"/>
      <point x="179" y="274"/>
      <point x="179" y="177" type="curve"/>
      <point x="179" y="106"/>
      <point x="142" y="52"/>
      <point x="117" y="41" type="curve"/>
    </contour>
  </outline>
</glyph>
<glyph name="currency" format="2">
  <advance width="492.75"/>
  <unicode hex="00A4"/>
  <note>
currency
</note>
  <outline>
    <contour>
      <point x="83" y="483" type="curve" smooth="yes"/>
      <point x="69" y="483"/>
      <point x="53" y="465"/>
      <point x="53" y="452" type="curve" smooth="yes"/>
      <point x="53" y="445"/>
      <point x="57" y="438"/>
      <point x="64" y="431" type="curve"/>
      <point x="126" y="373" type="line"/>
      <point x="133" y="380"/>
      <point x="159" y="408"/>
      <point x="166" y="416" type="curve"/>
      <point x="104" y="473" type="line"/>
      <point x="97" y="480"/>
      <point x="90" y="483"/>
    </contour>
    <contour>
      <point x="408" y="482" type="curve" smooth="yes"/>
      <point x="401" y="482"/>
      <point x="395" y="479"/>
      <point x="388" y="473" type="curve"/>
      <point x="328" y="416" type="line"/>
      <point x="335" y="409"/>
      <point x="359" y="381"/>
      <point x="366" y="374" type="curve"/>
      <point x="428" y="431" type="line"/>
      <point x="435" y="438"/>
      <point x="439" y="445"/>
      <point x="439" y="452" type="curve" smooth="yes"/>
      <point x="439" y="466"/>
      <point x="422" y="482"/>
    </contour>
    <contour>
      <point x="409" y="118" type="curve" smooth="yes"/>
      <point x="423" y="118"/>
      <point x="438" y="135"/>
      <point x="438" y="149" type="curve" smooth="yes"/>
      <point x="438" y="155"/>
      <point x="434" y="163"/>
      <point x="428" y="169" type="curve"/>
      <point x="368" y="226" type="line"/>
      <point x="361" y="219"/>
      <point x="336" y="191"/>
      <point x="328" y="184" type="curve"/>
      <point x="388" y="128" type="line"/>
      <point x="395" y="121"/>
      <point x="402" y="118"/>
    </contour>
    <contour>
      <point x="83" y="118" type="curve" smooth="yes"/>
      <point x="90" y="118"/>
      <point x="97" y="121"/>
      <point x="104" y="128" type="curve"/>
      <point x="168" y="188" type="line"/>
      <point x="161" y="195"/>
      <point x="135" y="223"/>
      <point x="127" y="230" type="curve"/>
      <point x="64" y="169" type="line"/>
      <point x="57" y="162"/>
      <point x="53" y="155"/>
      <point x="53" y="149" type="curve" smooth="yes"/>
      <point x="53" y="134"/>
      <point x="70" y="118"/>
    </contour>
    <contour>
      <point x="246" y="136" type="curve"/>
      <point x="335" y="136"/>
      <point x="406" y="209"/>
      <point x="406" y="300" type="curve"/>
      <point x="406" y="391"/>
      <point x="335" y="464"/>
      <point x="246" y="464" type="curve"/>
      <point x="158" y="464"/>
      <point x="87" y="391"/>
      <point x="87" y="300" type="curve"/>
      <point x="87" y="209"/>
      <point x="158" y="136"/>
    </contour>
    <contour>
      <point x="247" y="187" type="curve"/>
      <point x="188" y="187"/>
      <point x="144" y="237"/>
      <point x="144" y="299" type="curve"/>
      <point x="144" y="362"/>
      <point x="188" y="413"/>
      <point x="247" y="413" type="curve"/>
      <point x="305" y="413"/>
      <point x="350" y="362"/>
      <point x="350" y="299" type="curve"/>
      <point x="350" y="237"/>
      <point x="305" y="187"/>
    </contour>
  </outline>
</glyph>
<glyph name="yen" format="2">
  <advance width="559.25"/>
  <unicode hex="00A5"/>
  <note>
yen
</note>
  <anchor x="281" y="0" name="bottom"/>
  <anchor x="280" y="700" name="top"/>
  <anchor x="20" y="700" name="topleft"/>
  <outline>
    <contour>
      <point x="114" y="155" type="curve"/>
      <point x="454" y="152" type="line"/>
      <point x="471" y="152"/>
      <point x="485" y="163"/>
      <point x="485" y="179" type="curve"/>
      <point x="485" y="196"/>
      <point x="471" y="207"/>
      <point x="454" y="207" type="curve"/>
      <point x="114" y="210" type="line"/>
      <point x="96" y="210"/>
      <point x="83" y="199"/>
      <point x="83" y="182" type="curve"/>
      <point x="83" y="166"/>
      <point x="96" y="155"/>
    </contour>
    <contour>
      <point x="113" y="288" type="curve"/>
      <point x="453" y="285" type="line"/>
      <point x="471" y="285"/>
      <point x="484" y="297"/>
      <point x="484" y="313" type="curve"/>
      <point x="484" y="329"/>
      <point x="471" y="341"/>
      <point x="453" y="341" type="curve"/>
      <point x="113" y="344" type="line"/>
      <point x="96" y="344"/>
      <point x="82" y="332"/>
      <point x="82" y="316" type="curve"/>
      <point x="82" y="300"/>
      <point x="96" y="288"/>
    </contour>
    <contour>
      <point x="511" y="704" type="curve" smooth="yes"/>
      <point x="501" y="704"/>
      <point x="491" y="699"/>
      <point x="485" y="690" type="curve" smooth="yes"/>
      <point x="277" y="393" type="line"/>
      <point x="291" y="390" type="line"/>
      <point x="78" y="690" type="line" smooth="yes"/>
      <point x="71" y="699"/>
      <point x="62" y="704"/>
      <point x="53" y="704" type="curve" smooth="yes"/>
      <point x="38" y="704"/>
      <point x="19" y="691"/>
      <point x="19" y="674" type="curve" smooth="yes"/>
      <point x="19" y="667"/>
      <point x="21" y="660"/>
      <point x="27" y="653" type="curve" smooth="yes"/>
      <point x="255" y="340" type="line"/>
      <point x="249" y="364" type="line"/>
      <point x="249" y="30" type="line"/>
      <point x="249" y="13"/>
      <point x="262" y="0"/>
      <point x="281" y="0" type="curve"/>
      <point x="300" y="0"/>
      <point x="313" y="13"/>
      <point x="313" y="30" type="curve"/>
      <point x="313" y="371" type="line"/>
      <point x="302" y="332" type="line"/>
      <point x="535" y="655" type="line" smooth="yes"/>
      <point x="538" y="661"/>
      <point x="541" y="667"/>
      <point x="541" y="674" type="curve" smooth="yes"/>
      <point x="541" y="688"/>
      <point x="528" y="704"/>
    </contour>
  </outline>
</glyph>
<glyph name="brokenbar" format="2">
  <advance width="207.75"/>
  <unicode hex="00A6"/>
  <note>
brokenbar
</note>
  <outline>
    <contour>
      <point x="134" y="409" type="curve" smooth="yes"/>
      <point x="134" y="755" type="line" smooth="yes"/>
      <point x="134" y="772"/>
      <point x="122" y="785"/>
      <point x="105" y="785" type="curve" smooth="yes"/>
      <point x="87" y="785"/>
      <point x="74" y="772"/>
      <point x="74" y="755" type="curve" smooth="yes"/>
      <point x="74" y="409" type="line" smooth="yes"/>
      <point x="74" y="392"/>
      <point x="87" y="379"/>
      <point x="104" y="379" type="curve" smooth="yes"/>
      <point x="122" y="379"/>
      <point x="134" y="392"/>
    </contour>
    <contour>
      <point x="134" y="-151" type="curve" smooth="yes"/>
      <point x="134" y="195" type="line" smooth="yes"/>
      <point x="134" y="212"/>
      <point x="121" y="225"/>
      <point x="104" y="225" type="curve" smooth="yes"/>
      <point x="86" y="225"/>
      <point x="74" y="212"/>
      <point x="74" y="195" type="curve" smooth="yes"/>
      <point x="74" y="-151" type="line" smooth="yes"/>
      <point x="74" y="-168"/>
      <point x="86" y="-181"/>
      <point x="103" y="-181" type="curve" smooth="yes"/>
      <point x="121" y="-181"/>
      <point x="134" y="-168"/>
    </contour>
  </outline>
</glyph>
<glyph name="section" format="2">
  <advance width="532.75"/>
  <unicode hex="00A7"/>
  <note>
section
</note>
  <outline>
    <contour>
      <point x="488" y="279" type="curve" smooth="yes"/>
      <point x="489" y="365"/>
      <point x="425" y="408"/>
      <point x="314" y="438" type="curve" smooth="yes"/>
      <point x="272" y="449"/>
      <point x="164" y="475"/>
      <point x="164" y="555" type="curve" smooth="yes"/>
      <point x="164" y="621"/>
      <point x="228" y="648"/>
      <point x="286" y="648" type="curve" smooth="yes"/>
      <point x="339" y="648"/>
      <point x="378" y="626"/>
      <point x="409" y="599" type="curve"/>
      <point x="413" y="596"/>
      <point x="418" y="594"/>
      <point x="422" y="594" type="curve"/>
      <point x="443" y="594"/>
      <point x="452" y="610"/>
      <point x="452" y="624" type="curve" smooth="yes"/>
      <point x="452" y="632"/>
      <point x="448" y="639"/>
      <point x="444" y="643" type="curve" smooth="yes"/>
      <point x="409" y="677"/>
      <point x="360" y="706"/>
      <point x="290" y="707" type="curve" smooth="yes"/>
      <point x="216" y="709"/>
      <point x="103" y="668"/>
      <point x="103" y="549" type="curve" smooth="yes"/>
      <point x="103" y="494"/>
      <point x="134" y="445"/>
      <point x="203" y="417" type="curve"/>
      <point x="208" y="441" type="line"/>
      <point x="98" y="429"/>
      <point x="60" y="354"/>
      <point x="60" y="298" type="curve" smooth="yes"/>
      <point x="60" y="213"/>
      <point x="123" y="168"/>
      <point x="227" y="138" type="curve" smooth="yes"/>
      <point x="325" y="110"/>
      <point x="390" y="77"/>
      <point x="390" y="22" type="curve" smooth="yes"/>
      <point x="390" y="-71"/>
      <point x="303" y="-82"/>
      <point x="260" y="-82" type="curve" smooth="yes"/>
      <point x="177" y="-82"/>
      <point x="124" y="-41"/>
      <point x="96" y="-12" type="curve" smooth="yes"/>
      <point x="88" y="-4"/>
      <point x="79" y="-3"/>
      <point x="73" y="-3" type="curve" smooth="yes"/>
      <point x="57" y="-3"/>
      <point x="45" y="-16"/>
      <point x="44" y="-30" type="curve" smooth="yes"/>
      <point x="44" y="-43"/>
      <point x="50" y="-53"/>
      <point x="58" y="-61" type="curve" smooth="yes"/>
      <point x="92" y="-96"/>
      <point x="173" y="-139"/>
      <point x="261" y="-139" type="curve" smooth="yes"/>
      <point x="380" y="-139"/>
      <point x="451" y="-67"/>
      <point x="451" y="29" type="curve" smooth="yes"/>
      <point x="451" y="94"/>
      <point x="416" y="128"/>
      <point x="341" y="168" type="curve"/>
      <point x="321" y="140" type="line"/>
      <point x="427" y="149"/>
      <point x="486" y="203"/>
    </contour>
    <contour>
      <point x="241" y="199" type="line"/>
      <point x="155" y="227"/>
      <point x="123" y="259"/>
      <point x="123" y="303" type="curve" smooth="yes"/>
      <point x="123" y="355"/>
      <point x="175" y="395"/>
      <point x="230" y="392" type="curve"/>
      <point x="315" y="373" type="line"/>
      <point x="392" y="349"/>
      <point x="427" y="324"/>
      <point x="427" y="275" type="curve" smooth="yes"/>
      <point x="427" y="228"/>
      <point x="384" y="183"/>
      <point x="313" y="183" type="curve"/>
    </contour>
  </outline>
</glyph>
<glyph name="dieresis" format="2">
  <advance width="399.5"/>
  <unicode hex="00A8"/>
  <anchor x="201" y="515" name="_top"/>
  <outline>
    <contour>
      <point x="286" y="600" type="curve"/>
      <point x="312" y="600"/>
      <point x="327" y="614"/>
      <point x="327" y="640" type="curve" smooth="yes"/>
      <point x="327" y="650" type="line" smooth="yes"/>
      <point x="327" y="675"/>
      <point x="312" y="690"/>
      <point x="287" y="690" type="curve"/>
      <point x="261" y="690"/>
      <point x="245" y="675"/>
      <point x="245" y="650" type="curve" smooth="yes"/>
      <point x="245" y="640" type="line" smooth="yes"/>
      <point x="245" y="615"/>
      <point x="260" y="600"/>
    </contour>
    <contour>
      <point x="114" y="600" type="curve"/>
      <point x="140" y="600"/>
      <point x="155" y="614"/>
      <point x="155" y="640" type="curve" smooth="yes"/>
      <point x="155" y="650" type="line" smooth="yes"/>
      <point x="155" y="675"/>
      <point x="140" y="690"/>
      <point x="114" y="690" type="curve"/>
      <point x="89" y="690"/>
      <point x="73" y="675"/>
      <point x="73" y="650" type="curve" smooth="yes"/>
      <point x="73" y="640" type="line" smooth="yes"/>
      <point x="73" y="615"/>
      <point x="88" y="600"/>
    </contour>
  </outline>
</glyph>
<glyph name="copyright" format="2">
  <advance width="795"/>
  <unicode hex="00A9"/>
  <note>
copyright
</note>
  <outline>
    <contour>
      <point x="398" y="-3" type="curve" smooth="yes"/>
      <point x="591" y="-3"/>
      <point x="750" y="148"/>
      <point x="750" y="350" type="curve" smooth="yes"/>
      <point x="750" y="553"/>
      <point x="591" y="703"/>
      <point x="398" y="703" type="curve" smooth="yes"/>
      <point x="203" y="703"/>
      <point x="45" y="553"/>
      <point x="45" y="350" type="curve" smooth="yes"/>
      <point x="45" y="148"/>
      <point x="203" y="-3"/>
    </contour>
    <contour>
      <point x="398" y="45" type="curve" smooth="yes"/>
      <point x="231" y="45"/>
      <point x="94" y="173"/>
      <point x="94" y="350" type="curve" smooth="yes"/>
      <point x="94" y="526"/>
      <point x="231" y="656"/>
      <point x="398" y="656" type="curve" smooth="yes"/>
      <point x="565" y="656"/>
      <point x="702" y="526"/>
      <point x="702" y="350" type="curve" smooth="yes"/>
      <point x="702" y="173"/>
      <point x="565" y="45"/>
    </contour>
    <contour>
      <point x="416" y="153" type="curve" smooth="yes"/>
      <point x="457" y="153"/>
      <point x="497" y="164"/>
      <point x="531" y="185" type="curve" smooth="yes"/>
      <point x="543" y="194"/>
      <point x="547" y="211"/>
      <point x="537" y="223" type="curve"/>
      <point x="529" y="234"/>
      <point x="514" y="235"/>
      <point x="503" y="229" type="curve"/>
      <point x="477" y="214"/>
      <point x="448" y="204"/>
      <point x="416" y="204" type="curve" smooth="yes"/>
      <point x="322" y="204"/>
      <point x="266" y="264"/>
      <point x="266" y="350" type="curve" smooth="yes"/>
      <point x="266" y="433"/>
      <point x="322" y="496"/>
      <point x="416" y="496" type="curve" smooth="yes"/>
      <point x="448" y="496"/>
      <point x="477" y="486"/>
      <point x="503" y="470" type="curve"/>
      <point x="514" y="463"/>
      <point x="529" y="465"/>
      <point x="537" y="476" type="curve"/>
      <point x="546" y="488"/>
      <point x="543" y="506"/>
      <point x="530" y="514" type="curve"/>
      <point x="499" y="535"/>
      <point x="457" y="547"/>
      <point x="416" y="547" type="curve" smooth="yes"/>
      <point x="293" y="547"/>
      <point x="213" y="459"/>
      <point x="213" y="350" type="curve" smooth="yes"/>
      <point x="213" y="237"/>
      <point x="296" y="153"/>
    </contour>
  </outline>
</glyph>
<glyph name="ordfeminine" format="2">
  <advance width="350.25"/>
  <unicode hex="00AA"/>
  <note>
ordfeminine
</note>
  <outline>
    <contour>
      <point x="147" y="391" type="curve"/>
      <point x="216" y="391"/>
      <point x="268" y="456"/>
      <point x="268" y="506" type="curve"/>
      <point x="253" y="474" type="line"/>
      <point x="253" y="426" type="line"/>
      <point x="253" y="412"/>
      <point x="264" y="401"/>
      <point x="280" y="401" type="curve"/>
      <point x="295" y="401"/>
      <point x="308" y="411"/>
      <point x="308" y="426" type="curve"/>
      <point x="308" y="677" type="line"/>
      <point x="308" y="690"/>
      <point x="297" y="702"/>
      <point x="280" y="702" type="curve"/>
      <point x="264" y="702"/>
      <point x="253" y="689"/>
      <point x="253" y="677" type="curve"/>
      <point x="253" y="632" type="line"/>
      <point x="268" y="586" type="line"/>
      <point x="268" y="670"/>
      <point x="220" y="714"/>
      <point x="156" y="714" type="curve"/>
      <point x="77" y="714"/>
      <point x="21" y="646"/>
      <point x="21" y="558" type="curve"/>
      <point x="21" y="466"/>
      <point x="63" y="391"/>
    </contour>
    <contour>
      <point x="161" y="439" type="curve"/>
      <point x="104" y="439"/>
      <point x="76" y="493"/>
      <point x="76" y="558" type="curve"/>
      <point x="76" y="619"/>
      <point x="118" y="666"/>
      <point x="166" y="666" type="curve"/>
      <point x="220" y="666"/>
      <point x="257" y="625"/>
      <point x="257" y="555" type="curve"/>
      <point x="257" y="482"/>
      <point x="217" y="439"/>
    </contour>
  </outline>
</glyph>
<glyph name="logicalnot" format="2">
  <advance width="649.75"/>
  <unicode hex="00AC"/>
  <note>
logicalnot
</note>
  <outline>
    <contour>
      <point x="568" y="129" type="curve"/>
      <point x="587" y="129"/>
      <point x="600" y="143"/>
      <point x="600" y="161" type="curve"/>
      <point x="600" y="369" type="line"/>
      <point x="600" y="387"/>
      <point x="586" y="400"/>
      <point x="568" y="400" type="curve"/>
      <point x="79" y="400" type="line"/>
      <point x="63" y="400"/>
      <point x="50" y="386"/>
      <point x="50" y="370" type="curve"/>
      <point x="50" y="352"/>
      <point x="63" y="340"/>
      <point x="79" y="340" type="curve"/>
      <point x="553" y="340" type="line"/>
      <point x="536" y="350" type="line"/>
      <point x="536" y="161" type="line"/>
      <point x="536" y="143"/>
      <point x="550" y="129"/>
    </contour>
  </outline>
</glyph>
<glyph name="registered" format="2">
  <advance width="533.5"/>
  <unicode hex="00AE"/>
  <note>
registered
</note>
  <outline>
    <contour>
      <point x="207" y="363" type="curve" smooth="yes"/>
      <point x="218" y="363"/>
      <point x="228" y="372"/>
      <point x="228" y="382" type="curve" smooth="yes"/>
      <point x="228" y="467" type="line"/>
      <point x="218" y="458" type="line"/>
      <point x="265" y="458" type="line" smooth="yes"/>
      <point x="289" y="458"/>
      <point x="299" y="441"/>
      <point x="299" y="419" type="curve" smooth="yes"/>
      <point x="299" y="382"/>
      <point x="314" y="364"/>
      <point x="330" y="362" type="curve" smooth="yes"/>
      <point x="344" y="360"/>
      <point x="358" y="365"/>
      <point x="361" y="376" type="curve" smooth="yes"/>
      <point x="363" y="382"/>
      <point x="361" y="389"/>
      <point x="353" y="392" type="curve" smooth="yes"/>
      <point x="344" y="395"/>
      <point x="341" y="403"/>
      <point x="340" y="423" type="curve" smooth="yes"/>
      <point x="340" y="452"/>
      <point x="317" y="477"/>
      <point x="296" y="481" type="curve"/>
      <point x="298" y="473" type="line"/>
      <point x="335" y="481"/>
      <point x="357" y="500"/>
      <point x="357" y="534" type="curve" smooth="yes"/>
      <point x="357" y="581"/>
      <point x="327" y="602"/>
      <point x="276" y="602" type="curve" smooth="yes"/>
      <point x="203" y="602" type="line" smooth="yes"/>
      <point x="194" y="602"/>
      <point x="187" y="594"/>
      <point x="187" y="586" type="curve" smooth="yes"/>
      <point x="187" y="382" type="line" smooth="yes"/>
      <point x="187" y="372"/>
      <point x="196" y="363"/>
    </contour>
    <contour>
      <point x="270" y="495" type="curve" smooth="yes"/>
      <point x="219" y="495" type="line"/>
      <point x="228" y="488" type="line"/>
      <point x="228" y="574" type="line"/>
      <point x="214" y="563" type="line"/>
      <point x="273" y="563" type="line" smooth="yes"/>
      <point x="300" y="563"/>
      <point x="317" y="556"/>
      <point x="317" y="531" type="curve" smooth="yes"/>
      <point x="317" y="507"/>
      <point x="296" y="495"/>
    </contour>
    <contour>
      <point x="267" y="259" type="curve" smooth="yes"/>
      <point x="390" y="259"/>
      <point x="491" y="354"/>
      <point x="491" y="483" type="curve" smooth="yes"/>
      <point x="491" y="611"/>
      <point x="390" y="707"/>
      <point x="267" y="707" type="curve" smooth="yes"/>
      <point x="143" y="707"/>
      <point x="43" y="611"/>
      <point x="43" y="483" type="curve" smooth="yes"/>
      <point x="43" y="354"/>
      <point x="143" y="259"/>
    </contour>
    <contour>
      <point x="267" y="302" type="curve" smooth="yes"/>
      <point x="166" y="302"/>
      <point x="87" y="377"/>
      <point x="87" y="483" type="curve" smooth="yes"/>
      <point x="87" y="589"/>
      <point x="166" y="664"/>
      <point x="267" y="664" type="curve" smooth="yes"/>
      <point x="368" y="664"/>
      <point x="445" y="589"/>
      <point x="445" y="483" type="curve" smooth="yes"/>
      <point x="445" y="377"/>
      <point x="368" y="302"/>
    </contour>
  </outline>
</glyph>
<glyph name="macron" format="2">
  <advance width="395.5"/>
  <unicode hex="00AF"/>
  <anchor x="180" y="515" name="_top"/>
  <outline>
    <contour>
      <point x="78" y="575" type="curve" smooth="yes"/>
      <point x="318" y="575" type="line" smooth="yes"/>
      <point x="336" y="575"/>
      <point x="346" y="584"/>
      <point x="346" y="601" type="curve" smooth="yes"/>
      <point x="346" y="618"/>
      <point x="336" y="628"/>
      <point x="318" y="628" type="curve" smooth="yes"/>
      <point x="78" y="628" type="line" smooth="yes"/>
      <point x="60" y="628"/>
      <point x="50" y="618"/>
      <point x="50" y="601" type="curve" smooth="yes"/>
      <point x="50" y="584"/>
      <point x="60" y="575"/>
    </contour>
  </outline>
</glyph>
<glyph name="degree" format="2">
  <advance width="332.25"/>
  <unicode hex="00B0"/>
  <note>
degree
</note>
  <outline>
    <contour>
      <point x="166" y="420" type="curve"/>
      <point x="246" y="420"/>
      <point x="306" y="486"/>
      <point x="306" y="564" type="curve"/>
      <point x="306" y="642"/>
      <point x="248" y="707"/>
      <point x="166" y="707" type="curve"/>
      <point x="86" y="707"/>
      <point x="26" y="642"/>
      <point x="26" y="563" type="curve"/>
      <point x="26" y="486"/>
      <point x="87" y="420"/>
    </contour>
    <contour>
      <point x="166" y="469" type="curve"/>
      <point x="116" y="469"/>
      <point x="79" y="514"/>
      <point x="79" y="563" type="curve"/>
      <point x="79" y="614"/>
      <point x="116" y="659"/>
      <point x="166" y="659" type="curve"/>
      <point x="217" y="659"/>
      <point x="254" y="614"/>
      <point x="254" y="564" type="curve"/>
      <point x="254" y="514"/>
      <point x="217" y="469"/>
    </contour>
  </outline>
</glyph>
<glyph name="plusminus" format="2">
  <advance width="522.5"/>
  <unicode hex="00B1"/>
  <note>
plusminus
</note>
  <outline>
    <contour>
      <point x="83" y="273" type="curve"/>
      <point x="441" y="273" type="line"/>
      <point x="458" y="273"/>
      <point x="471" y="285"/>
      <point x="471" y="301" type="curve"/>
      <point x="471" y="318"/>
      <point x="458" y="330"/>
      <point x="441" y="330" type="curve"/>
      <point x="83" y="330" type="line"/>
      <point x="66" y="330"/>
      <point x="53" y="319"/>
      <point x="53" y="303" type="curve"/>
      <point x="53" y="286"/>
      <point x="66" y="273"/>
    </contour>
    <contour>
      <point x="264" y="124" type="curve"/>
      <point x="283" y="124"/>
      <point x="296" y="137"/>
      <point x="296" y="156" type="curve"/>
      <point x="296" y="455" type="line"/>
      <point x="296" y="473"/>
      <point x="284" y="487"/>
      <point x="265" y="487" type="curve"/>
      <point x="246" y="487"/>
      <point x="232" y="473"/>
      <point x="232" y="454" type="curve"/>
      <point x="232" y="155" type="line"/>
      <point x="232" y="137"/>
      <point x="246" y="124"/>
    </contour>
    <contour>
      <point x="78" y="0" type="curve" smooth="yes"/>
      <point x="445" y="0" type="line" smooth="yes"/>
      <point x="462" y="0"/>
      <point x="475" y="10"/>
      <point x="475" y="28" type="curve" smooth="yes"/>
      <point x="475" y="47"/>
      <point x="462" y="58"/>
      <point x="445" y="58" type="curve" smooth="yes"/>
      <point x="77" y="58" type="line" smooth="yes"/>
      <point x="60" y="58"/>
      <point x="48" y="45"/>
      <point x="48" y="30" type="curve" smooth="yes"/>
      <point x="48" y="13"/>
      <point x="60" y="0"/>
    </contour>
  </outline>
</glyph>
<glyph name="acute" format="2">
  <advance width="281.25"/>
  <unicode hex="00B4"/>
  <anchor x="96" y="569" name="_top"/>
  <outline>
    <contour>
      <point x="93" y="595" type="curve" smooth="yes"/>
      <point x="105" y="595"/>
      <point x="115" y="602"/>
      <point x="124" y="611" type="curve" smooth="yes"/>
      <point x="199" y="690" type="line" smooth="yes"/>
      <point x="205" y="697"/>
      <point x="209" y="704"/>
      <point x="209" y="713" type="curve" smooth="yes"/>
      <point x="210" y="733"/>
      <point x="196" y="744"/>
      <point x="177" y="744" type="curve" smooth="yes"/>
      <point x="160" y="744"/>
      <point x="149" y="733"/>
      <point x="143" y="722" type="curve" smooth="yes"/>
      <point x="82" y="627" type="line" smooth="yes"/>
      <point x="79" y="622"/>
      <point x="77" y="617"/>
      <point x="77" y="613" type="curve" smooth="yes"/>
      <point x="77" y="603"/>
      <point x="85" y="595"/>
    </contour>
  </outline>
</glyph>
<glyph name="micro" format="2">
  <advance width="553.5"/>
  <unicode hex="00B5"/>
  <note>
uni00B5
</note>
  <outline>
    <contour>
      <point x="110" y="-153" type="curve" smooth="yes"/>
      <point x="129" y="-153"/>
      <point x="140" y="-141"/>
      <point x="140" y="-123" type="curve" smooth="yes"/>
      <point x="140" y="80" type="line"/>
      <point x="127" y="88" type="line"/>
      <point x="138" y="25"/>
      <point x="204" y="-10"/>
      <point x="259" y="-10" type="curve" smooth="yes"/>
      <point x="340" y="-10"/>
      <point x="406" y="50"/>
      <point x="426" y="99" type="curve"/>
      <point x="424" y="108" type="line"/>
      <point x="424" y="30" type="line" smooth="yes"/>
      <point x="424" y="13"/>
      <point x="436" y="0"/>
      <point x="454" y="0" type="curve" smooth="yes"/>
      <point x="471" y="0"/>
      <point x="484" y="13"/>
      <point x="484" y="30" type="curve" smooth="yes"/>
      <point x="484" y="485" type="line" smooth="yes"/>
      <point x="484" y="502"/>
      <point x="471" y="515"/>
      <point x="454" y="515" type="curve" smooth="yes"/>
      <point x="437" y="515"/>
      <point x="424" y="502"/>
      <point x="424" y="485" type="curve" smooth="yes"/>
      <point x="424" y="197" type="line" smooth="yes"/>
      <point x="424" y="123"/>
      <point x="346" y="48"/>
      <point x="264" y="48" type="curve" smooth="yes"/>
      <point x="174" y="48"/>
      <point x="140" y="115"/>
      <point x="140" y="197" type="curve" smooth="yes"/>
      <point x="140" y="485" type="line" smooth="yes"/>
      <point x="140" y="502"/>
      <point x="128" y="515"/>
      <point x="110" y="515" type="curve" smooth="yes"/>
      <point x="93" y="515"/>
      <point x="80" y="502"/>
      <point x="80" y="485" type="curve" smooth="yes"/>
      <point x="80" y="-123" type="line" smooth="yes"/>
      <point x="80" y="-141"/>
      <point x="92" y="-153"/>
    </contour>
  </outline>
</glyph>
<glyph name="paragraph" format="2">
  <advance width="623"/>
  <unicode hex="00B6"/>
  <note>
paragraph
</note>
  <outline>
    <contour>
      <point x="502" y="0" type="curve" smooth="yes"/>
      <point x="516" y="0"/>
      <point x="528" y="10"/>
      <point x="528" y="29" type="curve" smooth="yes"/>
      <point x="528" y="675" type="line" smooth="yes"/>
      <point x="528" y="689"/>
      <point x="517" y="700"/>
      <point x="503" y="700" type="curve" smooth="yes"/>
      <point x="324" y="700" type="line" smooth="yes"/>
      <point x="124" y="700"/>
      <point x="46" y="649"/>
      <point x="46" y="487" type="curve" smooth="yes"/>
      <point x="46" y="332"/>
      <point x="116" y="272"/>
      <point x="297" y="269" type="curve" smooth="yes"/>
      <point x="350" y="269" type="line"/>
      <point x="331" y="299" type="line"/>
      <point x="331" y="65" type="line" smooth="yes"/>
      <point x="331" y="23"/>
      <point x="304" y="-9"/>
      <point x="264" y="-9" type="curve" smooth="yes"/>
      <point x="248" y="-9"/>
      <point x="235" y="-3"/>
      <point x="225" y="4" type="curve" smooth="yes"/>
      <point x="215" y="9"/>
      <point x="204" y="12"/>
      <point x="195" y="7" type="curve" smooth="yes"/>
      <point x="182" y="0"/>
      <point x="179" y="-15"/>
      <point x="184" y="-25" type="curve" smooth="yes"/>
      <point x="189" y="-43"/>
      <point x="225" y="-60"/>
      <point x="265" y="-60" type="curve" smooth="yes"/>
      <point x="335" y="-60"/>
      <point x="383" y="-13"/>
      <point x="383" y="59" type="curve" smooth="yes"/>
      <point x="383" y="664" type="line"/>
      <point x="368" y="651" type="line"/>
      <point x="493" y="651" type="line"/>
      <point x="476" y="667" type="line"/>
      <point x="476" y="29" type="line" smooth="yes"/>
      <point x="476" y="10"/>
      <point x="488" y="0"/>
    </contour>
  </outline>
</glyph>
<glyph name="periodcentered" format="2">
  <advance width="195"/>
  <unicode hex="00B7"/>
  <note>
periodcentered
</note>
  <outline>
    <contour>
      <point x="94" y="251" type="curve" smooth="yes"/>
      <point x="101" y="251" type="line" smooth="yes"/>
      <point x="124" y="251"/>
      <point x="139" y="266"/>
      <point x="139" y="289" type="curve" smooth="yes"/>
      <point x="139" y="311" type="line" smooth="yes"/>
      <point x="139" y="334"/>
      <point x="124" y="349"/>
      <point x="101" y="349" type="curve" smooth="yes"/>
      <point x="94" y="349" type="line" smooth="yes"/>
      <point x="71" y="349"/>
      <point x="56" y="334"/>
      <point x="56" y="311" type="curve" smooth="yes"/>
      <point x="56" y="289" type="line" smooth="yes"/>
      <point x="56" y="266"/>
      <point x="71" y="251"/>
    </contour>
  </outline>
</glyph>
<glyph name="cedilla" format="2">
  <advance width="277.5"/>
  <unicode hex="00B8"/>
  <anchor x="141" y="0" name="_bottom"/>
  <outline>
    <contour>
      <point x="78" y="-144" type="curve" smooth="yes"/>
      <point x="90" y="-144"/>
      <point x="99" y="-137"/>
      <point x="104" y="-124" type="curve" smooth="yes"/>
      <point x="168" y="15" type="line"/>
      <point x="130" y="15" type="line"/>
      <point x="43" y="-94" type="line" smooth="yes"/>
      <point x="38" y="-99"/>
      <point x="36" y="-106"/>
      <point x="36" y="-112" type="curve" smooth="yes"/>
      <point x="36" y="-130"/>
      <point x="65" y="-144"/>
    </contour>
  </outline>
</glyph>
<glyph name="ordmasculine" format="2">
  <advance width="348.5"/>
  <unicode hex="00BA"/>
  <note>
ordmasculine
</note>
  <outline>
    <contour>
      <point x="326" y="549" type="curve"/>
      <point x="326" y="640"/>
      <point x="261" y="710"/>
      <point x="173" y="710" type="curve"/>
      <point x="87" y="710"/>
      <point x="23" y="640"/>
      <point x="23" y="549" type="curve"/>
      <point x="23" y="459"/>
      <point x="87" y="392"/>
      <point x="173" y="392" type="curve"/>
      <point x="261" y="392"/>
      <point x="326" y="459"/>
    </contour>
    <contour>
      <point x="274" y="549" type="curve"/>
      <point x="274" y="488"/>
      <point x="235" y="441"/>
      <point x="173" y="441" type="curve"/>
      <point x="113" y="441"/>
      <point x="75" y="488"/>
      <point x="75" y="549" type="curve"/>
      <point x="75" y="613"/>
      <point x="113" y="660"/>
      <point x="173" y="660" type="curve"/>
      <point x="235" y="660"/>
      <point x="274" y="613"/>
    </contour>
  </outline>
</glyph>
<glyph name="Aring" format="2">
  <advance width="647.5"/>
  <unicode hex="00C5"/>
  <anchor x="324" y="618" name="_top"/>
  <anchor x="324" y="857" name="top"/>
  <anchor x="324" y="0" name="bottom"/>
  <anchor x="583" y="10" name="ogonek"/>
  <outline>
    <contour>
      <point x="324" y="662" type="curve"/>
      <point x="378" y="662"/>
      <point x="426" y="706"/>
      <point x="426" y="760" type="curve"/>
      <point x="426" y="814"/>
      <point x="378" y="858"/>
      <point x="324" y="858" type="curve"/>
      <point x="270" y="858"/>
      <point x="222" y="814"/>
      <point x="222" y="760" type="curve"/>
      <point x="222" y="706"/>
      <point x="270" y="662"/>
    </contour>
    <contour>
      <point x="324" y="704" type="curve"/>
      <point x="293" y="704"/>
      <point x="267" y="729"/>
      <point x="267" y="760" type="curve"/>
      <point x="267" y="792"/>
      <point x="293" y="817"/>
      <point x="324" y="817" type="curve"/>
      <point x="355" y="817"/>
      <point x="382" y="792"/>
      <point x="382" y="760" type="curve"/>
      <point x="382" y="729"/>
      <point x="356" y="704"/>
    </contour>
    <component base="A"/>
  </outline>
</glyph>
<glyph name="AE" format="2">
  <advance width="919.25"/>
  <unicode hex="00C6"/>
  <note>
AE
</note>
  <anchor x="463" y="0" name="bottom"/>
  <anchor x="624" y="700" name="top"/>
  <outline>
    <contour>
      <point x="175" y="227" type="line"/>
      <point x="131" y="169" type="line"/>
      <point x="476" y="169" type="line"/>
      <point x="457" y="182" type="line"/>
      <point x="457" y="30" type="line" smooth="yes"/>
      <point x="457" y="13"/>
      <point x="471" y="0"/>
      <point x="488" y="0" type="curve" smooth="yes"/>
      <point x="842" y="0" type="line" smooth="yes"/>
      <point x="859" y="0"/>
      <point x="872" y="12"/>
      <point x="872" y="29" type="curve" smooth="yes"/>
      <point x="872" y="45"/>
      <point x="859" y="59"/>
      <point x="842" y="59" type="curve" smooth="yes"/>
      <point x="512" y="59" type="line"/>
      <point x="519" y="45" type="line"/>
      <point x="519" y="340" type="line"/>
      <point x="510" y="330" type="line"/>
      <point x="797" y="330" type="line" smooth="yes"/>
      <point x="814" y="330"/>
      <point x="827" y="341"/>
      <point x="827" y="359" type="curve" smooth="yes"/>
      <point x="827" y="376"/>
      <point x="814" y="388"/>
      <point x="797" y="388" type="curve" smooth="yes"/>
      <point x="512" y="388" type="line"/>
      <point x="519" y="376" type="line"/>
      <point x="519" y="651" type="line"/>
      <point x="511" y="641" type="line"/>
      <point x="842" y="641" type="line" smooth="yes"/>
      <point x="859" y="641"/>
      <point x="872" y="653"/>
      <point x="872" y="670" type="curve" smooth="yes"/>
      <point x="872" y="687"/>
      <point x="859" y="700"/>
      <point x="842" y="700" type="curve" smooth="yes"/>
      <point x="489" y="700" type="line" smooth="yes"/>
      <point x="479" y="700"/>
      <point x="469" y="696"/>
      <point x="462" y="687" type="curve" smooth="yes"/>
      <point x="13" y="46" type="line" smooth="yes"/>
      <point x="10" y="40"/>
      <point x="8" y="34"/>
      <point x="8" y="27" type="curve" smooth="yes"/>
      <point x="8" y="10"/>
      <point x="22" y="-2"/>
      <point x="36" y="-2" type="curve" smooth="yes"/>
      <point x="45" y="-2"/>
      <point x="54" y="2"/>
      <point x="60" y="11" type="curve"/>
      <point x="472" y="605" type="line"/>
      <point x="457" y="623" type="line"/>
      <point x="457" y="205" type="line"/>
      <point x="475" y="227" type="line"/>
    </contour>
  </outline>
</glyph>
<glyph name="multiply" format="2">
  <advance width="440.25"/>
  <unicode hex="00D7"/>
  <note>
multiply
</note>
  <outline>
    <contour>
      <point x="68" y="74" type="curve" smooth="yes"/>
      <point x="76" y="74"/>
      <point x="83" y="77"/>
      <point x="90" y="84" type="curve"/>
      <point x="393" y="384" type="line"/>
      <point x="399" y="391"/>
      <point x="402" y="398"/>
      <point x="402" y="406" type="curve" smooth="yes"/>
      <point x="402" y="421"/>
      <point x="389" y="435"/>
      <point x="373" y="435" type="curve" smooth="yes"/>
      <point x="365" y="435"/>
      <point x="357" y="432"/>
      <point x="351" y="426" type="curve"/>
      <point x="48" y="125" type="line"/>
      <point x="42" y="119"/>
      <point x="39" y="111"/>
      <point x="39" y="104" type="curve" smooth="yes"/>
      <point x="39" y="88"/>
      <point x="52" y="74"/>
    </contour>
    <contour>
      <point x="348" y="83" type="line"/>
      <point x="354" y="77"/>
      <point x="362" y="74"/>
      <point x="369" y="74" type="curve" smooth="yes"/>
      <point x="381" y="74"/>
      <point x="398" y="83"/>
      <point x="398" y="103" type="curve" smooth="yes"/>
      <point x="398" y="110"/>
      <point x="395" y="118"/>
      <point x="388" y="124" type="curve"/>
      <point x="97" y="423" type="line"/>
      <point x="90" y="430"/>
      <point x="82" y="433"/>
      <point x="75" y="433" type="curve" smooth="yes"/>
      <point x="60" y="433"/>
      <point x="47" y="420"/>
      <point x="47" y="404" type="curve" smooth="yes"/>
      <point x="47" y="397"/>
      <point x="50" y="390"/>
      <point x="56" y="383" type="curve"/>
    </contour>
  </outline>
</glyph>
<glyph name="Oslash" format="2">
  <advance width="725.5"/>
  <unicode hex="00D8"/>
  <note>
Oslash
</note>
  <anchor x="363" y="0" name="bottom"/>
  <anchor x="363" y="700" name="top"/>
  <anchor x="383" y="350" name="center"/>
  <anchor x="689" y="10" name="ogonek"/>
  <anchor x="20" y="700" name="topleft"/>
  <anchor x="388" y="700" name="topright"/>
  <outline>
    <contour>
      <point x="73" y="-23" type="curve" smooth="yes"/>
      <point x="87" y="-23"/>
      <point x="95" y="-15"/>
      <point x="102" y="-6" type="curve" smooth="yes"/>
      <point x="671" y="682" type="line" smooth="yes"/>
      <point x="677" y="689"/>
      <point x="679" y="696"/>
      <point x="679" y="702" type="curve" smooth="yes"/>
      <point x="679" y="716"/>
      <point x="666" y="726"/>
      <point x="653" y="726" type="curve" smooth="yes"/>
      <point x="642" y="726"/>
      <point x="636" y="724"/>
      <point x="627" y="713" type="curve" smooth="yes"/>
      <point x="55" y="21" type="line" smooth="yes"/>
      <point x="50" y="15"/>
      <point x="48" y="8"/>
      <point x="48" y="3" type="curve" smooth="yes"/>
      <point x="48" y="-11"/>
      <point x="60" y="-23"/>
    </contour>
    <component base="O"/>
  </outline>
</glyph>
<glyph name="Thorn" format="2">
  <advance width="587"/>
  <unicode hex="00DE"/>
  <note>
Thorn
</note>
  <anchor x="265" y="0" name="bottom"/>
  <anchor x="265" y="700" name="top"/>
  <outline>
    <contour>
      <point x="154" y="30" type="curve" smooth="yes"/>
      <point x="154" y="710" type="line" smooth="yes"/>
      <point x="154" y="727"/>
      <point x="142" y="740"/>
      <point x="124" y="740" type="curve" smooth="yes"/>
      <point x="107" y="740"/>
      <point x="94" y="727"/>
      <point x="94" y="710" type="curve" smooth="yes"/>
      <point x="94" y="30" type="line" smooth="yes"/>
      <point x="94" y="13"/>
      <point x="106" y="0"/>
      <point x="124" y="0" type="curve" smooth="yes"/>
      <point x="141" y="0"/>
      <point x="154" y="13"/>
    </contour>
    <contour>
      <point x="141" y="249" type="line"/>
      <point x="126" y="189" type="line"/>
      <point x="353" y="189" type="line" smooth="yes"/>
      <point x="464" y="189"/>
      <point x="544" y="278"/>
      <point x="544" y="393" type="curve" smooth="yes"/>
      <point x="544" y="509"/>
      <point x="464" y="593"/>
      <point x="353" y="593" type="curve" smooth="yes"/>
      <point x="116" y="593" type="line"/>
      <point x="142" y="533" type="line"/>
      <point x="353" y="533" type="line" smooth="yes"/>
      <point x="431" y="533"/>
      <point x="483" y="476"/>
      <point x="483" y="393" type="curve" smooth="yes"/>
      <point x="483" y="311"/>
      <point x="431" y="249"/>
      <point x="353" y="249" type="curve" smooth="yes"/>
    </contour>
  </outline>
</glyph>
<glyph name="germandbls" format="2">
  <advance width="606.25"/>
  <unicode hex="00DF"/>
  <note>
germandbls
</note>
  <outline>
    <contour>
      <point x="133" y="0" type="curve"/>
      <point x="151" y="0"/>
      <point x="163" y="12"/>
      <point x="163" y="30" type="curve"/>
      <point x="164" y="496" type="line"/>
      <point x="164" y="579"/>
      <point x="203" y="671"/>
      <point x="308" y="671" type="curve"/>
      <point x="380" y="671"/>
      <point x="423" y="630"/>
      <point x="423" y="581" type="curve"/>
      <point x="423" y="546"/>
      <point x="395" y="497"/>
      <point x="331" y="481" type="curve"/>
      <point x="318" y="477"/>
      <point x="311" y="466"/>
      <point x="311" y="453" type="curve"/>
      <point x="311" y="439"/>
      <point x="319" y="427"/>
      <point x="338" y="422" type="curve"/>
      <point x="417" y="404"/>
      <point x="502" y="351"/>
      <point x="502" y="223" type="curve"/>
      <point x="502" y="115"/>
      <point x="428" y="40"/>
      <point x="346" y="40" type="curve"/>
      <point x="322" y="40"/>
      <point x="300" y="47"/>
      <point x="284" y="57" type="curve"/>
      <point x="269" y="69"/>
      <point x="254" y="68"/>
      <point x="244" y="55" type="curve"/>
      <point x="230" y="42"/>
      <point x="235" y="25"/>
      <point x="247" y="16" type="curve"/>
      <point x="268" y="-1"/>
      <point x="304" y="-10"/>
      <point x="345" y="-10" type="curve"/>
      <point x="464" y="-10"/>
      <point x="562" y="90"/>
      <point x="562" y="231" type="curve"/>
      <point x="562" y="354"/>
      <point x="484" y="435"/>
      <point x="389" y="464" type="curve"/>
      <point x="390" y="460" type="line"/>
      <point x="452" y="482"/>
      <point x="482" y="544"/>
      <point x="482" y="585" type="curve"/>
      <point x="482" y="661"/>
      <point x="425" y="729"/>
      <point x="309" y="729" type="curve"/>
      <point x="162" y="729"/>
      <point x="104" y="602"/>
      <point x="104" y="495" type="curve"/>
      <point x="103" y="30" type="line"/>
      <point x="103" y="12"/>
      <point x="114" y="0"/>
    </contour>
    <contour>
      <point x="58" y="444" type="curve"/>
      <point x="127" y="444" type="line"/>
      <point x="144" y="444"/>
      <point x="152" y="456"/>
      <point x="152" y="473" type="curve"/>
      <point x="152" y="488"/>
      <point x="144" y="501"/>
      <point x="127" y="501" type="curve"/>
      <point x="58" y="501" type="line"/>
      <point x="42" y="501"/>
      <point x="29" y="489"/>
      <point x="29" y="473" type="curve"/>
      <point x="29" y="457"/>
      <point x="42" y="444"/>
    </contour>
  </outline>
</glyph>
<glyph name="ae" format="2">
  <advance width="893"/>
  <unicode hex="00E6"/>
  <note>
ae
</note>
  <anchor x="408" y="0" name="bottom"/>
  <anchor x="842" y="10" name="ogonek"/>
  <anchor x="446" y="515" name="top"/>
  <outline>
    <contour>
      <point x="265" y="523" type="curve"/>
      <point x="178" y="523"/>
      <point x="102" y="466"/>
      <point x="61" y="413" type="curve" smooth="yes"/>
      <point x="56" y="406"/>
      <point x="54" y="400"/>
      <point x="54" y="394" type="curve" smooth="yes"/>
      <point x="54" y="380"/>
      <point x="66" y="368"/>
      <point x="80" y="368" type="curve" smooth="yes"/>
      <point x="89" y="368"/>
      <point x="97" y="372"/>
      <point x="104" y="380" type="curve"/>
      <point x="134" y="423"/>
      <point x="197" y="467"/>
      <point x="265" y="467" type="curve"/>
      <point x="318" y="467"/>
      <point x="384" y="450"/>
      <point x="384" y="365" type="curve"/>
      <point x="384" y="253" type="line"/>
      <point x="440" y="256" type="line"/>
      <point x="440" y="388" type="line"/>
      <point x="440" y="491"/>
      <point x="353" y="523"/>
    </contour>
    <contour>
      <point x="205" y="-10" type="curve"/>
      <point x="322" y="-10"/>
      <point x="393" y="67"/>
      <point x="428" y="119" type="curve"/>
      <point x="398" y="163" type="line"/>
      <point x="375" y="116"/>
      <point x="297" y="46"/>
      <point x="209" y="46" type="curve"/>
      <point x="161" y="46"/>
      <point x="105" y="76"/>
      <point x="105" y="144" type="curve"/>
      <point x="105" y="211"/>
      <point x="170" y="256"/>
      <point x="301" y="256" type="curve"/>
      <point x="818" y="256" type="line"/>
      <point x="835" y="256"/>
      <point x="848" y="269"/>
      <point x="849" y="285" type="curve"/>
      <point x="845" y="438"/>
      <point x="734" y="523"/>
      <point x="616" y="523" type="curve"/>
      <point x="496" y="523"/>
      <point x="382" y="423"/>
      <point x="382" y="253" type="curve"/>
      <point x="382" y="96"/>
      <point x="488" y="-10"/>
      <point x="643" y="-10" type="curve"/>
      <point x="719" y="-10"/>
      <point x="787" y="31"/>
      <point x="826" y="79" type="curve"/>
      <point x="833" y="86"/>
      <point x="836" y="93"/>
      <point x="836" y="100" type="curve" smooth="yes"/>
      <point x="836" y="113"/>
      <point x="825" y="126"/>
      <point x="811" y="126" type="curve" smooth="yes"/>
      <point x="803" y="126"/>
      <point x="796" y="123"/>
      <point x="789" y="117" type="curve"/>
      <point x="761" y="80"/>
      <point x="710" y="46"/>
      <point x="642" y="46" type="curve"/>
      <point x="515" y="46"/>
      <point x="440" y="138"/>
      <point x="440" y="257" type="curve"/>
      <point x="440" y="402"/>
      <point x="535" y="465"/>
      <point x="616" y="465" type="curve"/>
      <point x="695" y="465"/>
      <point x="776" y="412"/>
      <point x="786" y="318" type="curve"/>
      <point x="786" y="298" type="line"/>
      <point x="798" y="310" type="line"/>
      <point x="302" y="310" type="line"/>
      <point x="130" y="310"/>
      <point x="45" y="244"/>
      <point x="45" y="141" type="curve"/>
      <point x="45" y="39"/>
      <point x="130" y="-10"/>
    </contour>
  </outline>
</glyph>
<glyph name="eth" format="2">
  <advance width="564"/>
  <unicode hex="00F0"/>
  <note>
eth
</note>
  <outline>
    <contour>
      <point x="282" y="-3" type="curve"/>
      <point x="414" y="-3"/>
      <point x="520" y="113"/>
      <point x="520" y="284" type="curve"/>
      <point x="520" y="430"/>
      <point x="441" y="686"/>
      <point x="207" y="738" type="curve"/>
      <point x="202" y="740"/>
      <point x="198" y="740"/>
      <point x="194" y="740" type="curve"/>
      <point x="176" y="740"/>
      <point x="167" y="726"/>
      <point x="167" y="709" type="curve"/>
      <point x="167" y="695"/>
      <point x="177" y="685"/>
      <point x="193" y="680" type="curve"/>
      <point x="350" y="648"/>
      <point x="425" y="520"/>
      <point x="445" y="372" type="curve"/>
      <point x="474" y="357" type="line"/>
      <point x="449" y="440"/>
      <point x="384" y="518"/>
      <point x="278" y="518" type="curve"/>
      <point x="153" y="518"/>
      <point x="45" y="405"/>
      <point x="45" y="261" type="curve"/>
      <point x="45" y="117"/>
      <point x="150" y="-3"/>
    </contour>
    <contour>
      <point x="282" y="55" type="curve"/>
      <point x="185" y="55"/>
      <point x="105" y="150"/>
      <point x="105" y="261" type="curve"/>
      <point x="105" y="372"/>
      <point x="183" y="460"/>
      <point x="282" y="460" type="curve"/>
      <point x="381" y="460"/>
      <point x="459" y="366"/>
      <point x="459" y="261" type="curve"/>
      <point x="459" y="150"/>
      <point x="380" y="55"/>
    </contour>
    <contour>
      <point x="217" y="547" type="curve"/>
      <point x="353" y="592" type="line"/>
      <point x="389" y="605" type="line"/>
      <point x="468" y="632" type="line"/>
      <point x="483" y="636"/>
      <point x="491" y="648"/>
      <point x="487" y="664" type="curve"/>
      <point x="483" y="679"/>
      <point x="468" y="684"/>
      <point x="453" y="679" type="curve"/>
      <point x="353" y="646" type="line"/>
      <point x="311" y="631" type="line"/>
      <point x="202" y="594" type="line"/>
      <point x="186" y="590"/>
      <point x="179" y="578"/>
      <point x="183" y="562" type="curve"/>
      <point x="187" y="547"/>
      <point x="202" y="542"/>
    </contour>
  </outline>
</glyph>
<glyph name="divide" format="2">
  <advance width="562.75"/>
  <unicode hex="00F7"/>
  <note>
divide
</note>
  <outline>
    <contour>
      <point x="231" y="390" type="curve" smooth="yes"/>
      <point x="231" y="365"/>
      <point x="251" y="345"/>
      <point x="276" y="345" type="curve" smooth="yes"/>
      <point x="301" y="345"/>
      <point x="322" y="365"/>
      <point x="322" y="390" type="curve" smooth="yes"/>
      <point x="322" y="416"/>
      <point x="301" y="437"/>
      <point x="276" y="437" type="curve" smooth="yes"/>
      <point x="251" y="437"/>
      <point x="231" y="416"/>
    </contour>
    <contour>
      <point x="231" y="44" type="curve" smooth="yes"/>
      <point x="231" y="19"/>
      <point x="251" y="-1"/>
      <point x="276" y="-1" type="curve" smooth="yes"/>
      <point x="301" y="-1"/>
      <point x="322" y="19"/>
      <point x="322" y="44" type="curve" smooth="yes"/>
      <point x="322" y="69"/>
      <point x="301" y="89"/>
      <point x="276" y="89" type="curve" smooth="yes"/>
      <point x="251" y="89"/>
      <point x="231" y="69"/>
    </contour>
    <contour>
      <point x="81" y="190" type="curve"/>
      <point x="482" y="190" type="line"/>
      <point x="500" y="190"/>
      <point x="513" y="203"/>
      <point x="513" y="219" type="curve"/>
      <point x="513" y="235"/>
      <point x="500" y="248"/>
      <point x="482" y="248" type="curve"/>
      <point x="81" y="248" type="line"/>
      <point x="63" y="248"/>
      <point x="50" y="236"/>
      <point x="50" y="220" type="curve"/>
      <point x="50" y="203"/>
      <point x="63" y="190"/>
    </contour>
  </outline>
</glyph>
